<svg width="930" height="162" viewBox="0 0 930 162" fill="none" xmlns="http://www.w3.org/2000/svg">
<path d="M9.78601 44.0661H29.322V152.471H58.143V44.0661H77.519V22.7681H9.78601V44.0661Z" fill="black"/>
<path d="M161.664 82.0951C163.958 79.0531 165.532 75.4501 166.388 71.2861C167.241 67.1231 167.669 62.3741 167.669 57.0351C167.669 47.9641 165.88 40.9431 162.305 35.9791C158.728 31.0151 153.738 27.5721 147.333 25.6501C140.929 23.7291 133.347 22.7681 124.595 22.7681H88.8879V152.471H117.55V94.345H125.716L139.967 152.471H169.591L151.817 89.7021C156.085 87.6751 159.368 85.1381 161.665 82.0961L161.664 82.0951ZM139.727 69.4461C138.819 72.1681 137.245 74.2501 135.003 75.6911C132.762 77.1331 129.611 77.8531 125.556 77.8531H117.549V41.985H126.837C132.281 41.985 136.017 43.5331 138.046 46.6281C140.072 49.7251 141.088 54.0491 141.088 59.5981C141.088 63.4411 140.632 66.7231 139.727 69.4461Z" fill="black"/>
<path d="M213.624 94.345H236.201V74.4891H213.624V42.304H243.246V22.7681H184.961V152.471H243.567V133.095H213.624V94.345Z" fill="black"/>
<path d="M319.304 27.1721C314.286 24.2381 307.881 22.7681 300.089 22.7681H256.535V152.471H285.198V97.3881H296.727C303.772 97.3881 310.122 96.374 315.782 94.345C321.439 92.319 325.922 88.6601 329.233 83.3761C332.54 78.0921 334.197 70.4331 334.197 60.3981C334.197 52.3911 332.968 45.5861 330.514 39.9821C328.057 34.3771 324.322 30.1091 319.305 27.1711L319.304 27.1721ZM306.415 69.6861C305.827 72.2481 304.626 74.1701 302.812 75.4501C300.996 76.7311 298.328 77.3711 294.805 77.3711H285.198V42.9441H294.645C298.488 42.9441 301.315 43.6911 303.132 45.1851C304.945 46.6821 306.094 48.6831 306.574 51.1901C307.054 53.7001 307.295 56.6091 307.295 59.9181C307.295 63.8681 307 67.1231 306.414 69.6861H306.415Z" fill="black"/>
<path d="M410.737 27.1721C405.718 24.2381 399.313 22.7681 391.522 22.7681H347.968V152.471H376.63V97.3881H388.16C395.205 97.3881 401.555 96.374 407.214 94.345C412.871 92.319 417.354 88.6601 420.665 83.3761C423.973 78.0921 425.629 70.4331 425.629 60.3981C425.629 52.3911 424.401 45.5861 421.946 39.9821C419.49 34.3771 415.754 30.1091 410.738 27.1711L410.737 27.1721ZM397.846 69.6861C397.258 72.2481 396.057 74.1701 394.243 75.4501C392.427 76.7311 389.759 77.3711 386.237 77.3711H376.629V42.9441H386.076C389.92 42.9441 392.746 43.6911 394.563 45.1851C396.377 46.6821 397.525 48.6831 398.006 51.1901C398.486 53.7001 398.726 56.6091 398.726 59.9181C398.726 63.8681 398.431 67.1231 397.845 69.6861H397.846Z" fill="black"/>
<path d="M468.062 94.345H490.639V74.4891H468.062V42.304H497.685V22.7681H439.399V152.471H498.005V133.095H468.062V94.345Z" fill="black"/>
<path d="M565.737 80.2531H524.905V22.7681H512.576V152.471H524.905V89.3811H565.737V152.471H577.907V22.7681H565.737V80.2531Z" fill="black"/>
<path d="M651.163 26.292C646.305 23.089 639.714 21.488 631.388 21.488C622.953 21.488 616.308 23.089 611.452 26.292C606.593 29.495 603.125 34.006 601.043 39.822C598.961 45.642 597.92 52.5 597.92 60.399V114.201C597.92 121.995 598.906 128.907 600.883 134.937C602.857 140.969 606.271 145.665 611.131 149.027C615.987 152.39 622.74 154.072 631.387 154.072C639.926 154.072 646.599 152.365 651.403 148.948C656.207 145.532 659.594 140.861 661.571 134.937C663.545 129.012 664.533 122.154 664.533 114.36V60.398C664.533 52.499 663.517 45.641 661.491 39.821C659.462 34.005 656.018 29.493 651.162 26.291L651.163 26.292ZM652.205 116.922C652.205 122.367 651.644 127.145 650.524 131.254C649.403 135.365 647.346 138.566 644.358 140.861C641.368 143.158 637.046 144.304 631.389 144.304C625.624 144.304 621.221 143.157 618.178 140.861C615.136 138.567 613.055 135.365 611.933 131.254C610.812 127.145 610.252 122.367 610.252 116.922V58.156C610.252 52.712 610.812 47.964 611.933 43.905C613.054 39.85 615.136 36.727 618.178 34.538C621.221 32.351 625.624 31.255 631.389 31.255C637.046 31.255 641.369 32.351 644.358 34.538C647.346 36.727 649.403 39.85 650.524 43.905C651.644 47.964 652.205 52.712 652.205 58.156V116.922Z" fill="black"/>
<path d="M733.147 25.9711C728.716 22.9831 722.603 21.4871 714.813 21.4871C706.271 21.4871 699.6 23.1961 694.796 26.6111C689.993 30.0291 686.655 34.7771 684.789 40.8621C682.92 46.9471 681.987 53.9921 681.987 61.9991V113.559C681.987 121.032 682.893 127.838 684.709 133.975C686.522 140.115 689.805 144.999 694.557 148.627C699.306 152.258 706.058 154.072 714.813 154.072C722.924 154.072 729.196 152.417 733.628 149.107C738.056 145.8 741.153 141.237 742.916 135.417C744.677 129.599 745.558 122.902 745.558 115.322V107.636H734.029V116.123C734.029 121.782 733.573 126.718 732.667 130.934C731.759 135.152 729.946 138.435 727.223 140.782C724.501 143.132 720.417 144.305 714.973 144.305C709.633 144.305 705.47 143.239 702.483 141.102C699.493 138.967 697.384 135.765 696.159 131.494C694.93 127.226 694.317 121.887 694.317 115.482V60.2381C694.317 54.4741 694.823 49.4051 695.838 45.0261C696.852 40.6501 698.826 37.2601 701.763 34.8581C704.697 32.4561 709.101 31.2551 714.973 31.2551C720.309 31.2551 724.366 32.3761 727.143 34.6171C729.918 36.8591 731.758 40.0091 732.667 44.0651C733.573 48.1231 734.029 52.979 734.029 58.636V66.162H745.558V58.3161C745.558 50.7371 744.598 44.1991 742.676 38.7001C740.754 33.2041 737.577 28.9601 733.149 25.9701L733.147 25.9711Z" fill="black"/>
<path d="M817.612 80.2531H776.781V22.7681H764.45V152.471H776.781V89.3811H817.612V152.471H829.782V22.7681H817.612V80.2531Z" fill="black"/>
<path d="M912.902 67.666V9.92798H893.488V19.547H885.967V29.171H878.445V38.795H870.923V48.419H863.401V58.043H855.879V67.667H848.357V81.03H893.489V97.166H912.903V81.03H920.215V67.667H912.903L912.902 67.666ZM893.488 67.666H870.923V58.042H878.445V48.418H885.967V38.794H893.488V67.666Z" fill="black"/>
</svg>
