<svg width="1187" height="141" viewBox="0 0 1187 141" fill="none" xmlns="http://www.w3.org/2000/svg">
<mask id="mask0_5_116" style="mask-type:alpha" maskUnits="userSpaceOnUse" x="243" y="79" width="80" height="10">
<rect x="243" y="79" width="80" height="10" fill="url(#paint0_linear_5_116)"/>
</mask>
<g mask="url(#mask0_5_116)">
<rect x="243" y="79" width="100" height="10" fill="#D9D9D9"/>
</g>
<rect x="210" y="59" width="33" height="10" fill="#D9D9D9"/>
<mask id="mask1_5_116" style="mask-type:alpha" maskUnits="userSpaceOnUse" x="343" y="79" width="80" height="10">
<rect x="343" y="79" width="80" height="10" fill="url(#paint1_linear_5_116)"/>
</mask>
<g mask="url(#mask1_5_116)">
<rect x="343" y="79" width="100" height="10" fill="#D9D9D9"/>
</g>
<rect x="310" y="59" width="33" height="10" fill="#D9D9D9"/>
<mask id="mask2_5_116" style="mask-type:alpha" maskUnits="userSpaceOnUse" x="443" y="79" width="80" height="10">
<rect x="443" y="79" width="80" height="10" fill="url(#paint2_linear_5_116)"/>
</mask>
<g mask="url(#mask2_5_116)">
<rect x="443" y="79" width="100" height="10" fill="#D9D9D9"/>
</g>
<rect x="410" y="59" width="33" height="10" fill="#D9D9D9"/>
<mask id="mask3_5_116" style="mask-type:alpha" maskUnits="userSpaceOnUse" x="543" y="79" width="80" height="10">
<rect x="543" y="79" width="80" height="10" fill="url(#paint3_linear_5_116)"/>
</mask>
<g mask="url(#mask3_5_116)">
<rect x="543" y="79" width="100" height="10" fill="#D9D9D9"/>
</g>
<rect x="510" y="59" width="33" height="10" fill="#D9D9D9"/>
<mask id="mask4_5_116" style="mask-type:alpha" maskUnits="userSpaceOnUse" x="643" y="79" width="80" height="10">
<rect x="643" y="79" width="80" height="10" fill="url(#paint4_linear_5_116)"/>
</mask>
<g mask="url(#mask4_5_116)">
<rect x="643" y="79" width="100" height="10" fill="#D9D9D9"/>
</g>
<rect x="610" y="59" width="33" height="10" fill="#D9D9D9"/>
<mask id="mask5_5_116" style="mask-type:alpha" maskUnits="userSpaceOnUse" x="743" y="79" width="80" height="10">
<rect x="743" y="79" width="80" height="10" fill="url(#paint5_linear_5_116)"/>
</mask>
<g mask="url(#mask5_5_116)">
<rect x="743" y="79" width="100" height="10" fill="#D9D9D9"/>
</g>
<rect x="710" y="59" width="33" height="10" fill="#D9D9D9"/>
<mask id="mask6_5_116" style="mask-type:alpha" maskUnits="userSpaceOnUse" x="843" y="79" width="80" height="10">
<rect x="843" y="79" width="80" height="10" fill="url(#paint6_linear_5_116)"/>
</mask>
<g mask="url(#mask6_5_116)">
<rect x="843" y="79" width="100" height="10" fill="#D9D9D9"/>
</g>
<rect x="810" y="59" width="33" height="10" fill="#D9D9D9"/>
<mask id="mask7_5_116" style="mask-type:alpha" maskUnits="userSpaceOnUse" x="943" y="79" width="80" height="10">
<rect x="943" y="79" width="80" height="10" fill="url(#paint7_linear_5_116)"/>
</mask>
<g mask="url(#mask7_5_116)">
<rect x="943" y="79" width="100" height="10" fill="#D9D9D9"/>
</g>
<rect x="910" y="59" width="33" height="10" fill="#D9D9D9"/>
<mask id="mask8_5_116" style="mask-type:alpha" maskUnits="userSpaceOnUse" x="1043" y="79" width="80" height="10">
<rect x="1043" y="79" width="80" height="10" fill="url(#paint8_linear_5_116)"/>
</mask>
<g mask="url(#mask8_5_116)">
<rect x="1043" y="79" width="100" height="10" fill="#D9D9D9"/>
</g>
<rect x="1010" y="59" width="33" height="10" fill="#D9D9D9"/>
<path d="M139.756 44.1193C139.114 44.1193 138.567 43.9446 138.115 43.5952C137.664 43.2429 137.318 42.733 137.08 42.0653C136.841 41.3949 136.722 40.5852 136.722 39.6364C136.722 38.6932 136.841 37.8878 137.08 37.2202C137.321 36.5497 137.668 36.0384 138.119 35.6861C138.574 35.331 139.119 35.1534 139.756 35.1534C140.392 35.1534 140.936 35.331 141.388 35.6861C141.843 36.0384 142.189 36.5497 142.428 37.2202C142.669 37.8878 142.79 38.6932 142.79 39.6364C142.79 40.5852 142.671 41.3949 142.432 42.0653C142.193 42.733 141.848 43.2429 141.396 43.5952C140.945 43.9446 140.398 44.1193 139.756 44.1193ZM139.756 43.1818C140.392 43.1818 140.887 42.875 141.239 42.2614C141.591 41.6477 141.767 40.7727 141.767 39.6364C141.767 38.8807 141.686 38.2372 141.524 37.706C141.365 37.1747 141.135 36.7699 140.834 36.4915C140.536 36.2131 140.176 36.0739 139.756 36.0739C139.125 36.0739 138.632 36.3849 138.277 37.0071C137.922 37.6264 137.744 38.5028 137.744 39.6364C137.744 40.392 137.824 41.0341 137.983 41.5625C138.142 42.0909 138.371 42.4929 138.669 42.7685C138.97 43.044 139.333 43.1818 139.756 43.1818ZM147.188 35.1534C147.546 35.1562 147.904 35.2244 148.262 35.358C148.619 35.4915 148.946 35.7131 149.242 36.0227C149.537 36.3295 149.774 36.7486 149.953 37.2798C150.132 37.8111 150.222 38.4773 150.222 39.2784C150.222 40.054 150.148 40.7429 150 41.3452C149.855 41.9446 149.645 42.4503 149.369 42.8622C149.097 43.2741 148.764 43.5866 148.372 43.7997C147.983 44.0128 147.543 44.1193 147.051 44.1193C146.563 44.1193 146.127 44.0227 145.743 43.8295C145.362 43.6335 145.05 43.3622 144.806 43.0156C144.564 42.6662 144.409 42.2614 144.341 41.8011H145.381C145.475 42.2017 145.661 42.5327 145.939 42.794C146.22 43.0526 146.591 43.1818 147.051 43.1818C147.725 43.1818 148.256 42.8878 148.645 42.2997C149.037 41.7116 149.233 40.8807 149.233 39.8068H149.165C149.006 40.0455 148.817 40.2514 148.598 40.4247C148.379 40.598 148.137 40.7315 147.869 40.8253C147.602 40.919 147.318 40.9659 147.017 40.9659C146.517 40.9659 146.058 40.8423 145.641 40.5952C145.226 40.3452 144.894 40.0028 144.644 39.5682C144.396 39.1307 144.273 38.6307 144.273 38.0682C144.273 37.5341 144.392 37.0455 144.631 36.6023C144.872 36.1562 145.21 35.8011 145.645 35.5369C146.083 35.2727 146.597 35.1449 147.188 35.1534ZM147.188 36.0909C146.83 36.0909 146.507 36.1804 146.22 36.3594C145.936 36.5355 145.71 36.7741 145.543 37.0753C145.378 37.3736 145.296 37.7045 145.296 38.0682C145.296 38.4318 145.375 38.7628 145.534 39.0611C145.696 39.3565 145.916 39.5923 146.195 39.7685C146.476 39.9418 146.796 40.0284 147.154 40.0284C147.423 40.0284 147.675 39.9759 147.908 39.8707C148.141 39.7628 148.344 39.6165 148.517 39.4318C148.693 39.2443 148.831 39.0327 148.931 38.7969C149.03 38.5582 149.08 38.3097 149.08 38.0511C149.08 37.7102 148.997 37.3906 148.833 37.0923C148.671 36.794 148.446 36.5526 148.159 36.3679C147.875 36.1832 147.551 36.0909 147.188 36.0909Z" fill="black"/>
<path d="M71.049 69V60.2727H72.1058V64.6023H72.2081L76.1286 60.2727H77.5092L73.8445 64.2102L77.5092 69H76.2308L73.1967 64.9432L72.1058 66.1705V69H71.049ZM79.1509 69V62.4545H80.1566V69H79.1509ZM79.6623 61.3636C79.4663 61.3636 79.2972 61.2969 79.1552 61.1634C79.016 61.0298 78.9464 60.8693 78.9464 60.6818C78.9464 60.4943 79.016 60.3338 79.1552 60.2003C79.2972 60.0668 79.4663 60 79.6623 60C79.8583 60 80.0259 60.0668 80.1651 60.2003C80.3072 60.3338 80.3782 60.4943 80.3782 60.6818C80.3782 60.8693 80.3072 61.0298 80.1651 61.1634C80.0259 61.2969 79.8583 61.3636 79.6623 61.3636ZM83.0043 65.0625V69H81.9986V62.4545H82.9702V63.4773H83.0554C83.2088 63.1449 83.4418 62.8778 83.7543 62.6761C84.0668 62.4716 84.4702 62.3693 84.9645 62.3693C85.4077 62.3693 85.7955 62.4602 86.1278 62.642C86.4602 62.821 86.7188 63.0938 86.9034 63.4602C87.0881 63.8239 87.1804 64.2841 87.1804 64.8409V69H86.1747V64.9091C86.1747 64.3949 86.0412 63.9943 85.7741 63.7074C85.5071 63.4176 85.1406 63.2727 84.6747 63.2727C84.3537 63.2727 84.0668 63.3423 83.8139 63.4815C83.5639 63.6207 83.3665 63.8239 83.2216 64.0909C83.0767 64.358 83.0043 64.6818 83.0043 65.0625ZM91.4897 69.1364C90.9442 69.1364 90.4627 68.9986 90.0451 68.723C89.6275 68.4446 89.3008 68.0526 89.065 67.5469C88.8292 67.0384 88.7113 66.4375 88.7113 65.7443C88.7113 65.0568 88.8292 64.4602 89.065 63.9545C89.3008 63.4489 89.6289 63.0582 90.0494 62.7827C90.4698 62.5071 90.9556 62.3693 91.5067 62.3693C91.9329 62.3693 92.2695 62.4403 92.5167 62.5824C92.7667 62.7216 92.957 62.8807 93.0877 63.0597C93.2212 63.2358 93.3249 63.3807 93.3988 63.4943H93.484V60.2727H94.4897V69H93.5181V67.9943H93.3988C93.3249 68.1136 93.2198 68.2642 93.0835 68.446C92.9471 68.625 92.7525 68.7855 92.4996 68.9276C92.2468 69.0668 91.9102 69.1364 91.4897 69.1364ZM91.6261 68.233C92.0295 68.233 92.3704 68.1278 92.6488 67.9176C92.9272 67.7045 93.1388 67.4105 93.2837 67.0355C93.4286 66.6577 93.5011 66.2216 93.5011 65.7273C93.5011 65.2386 93.43 64.8111 93.288 64.4446C93.146 64.0753 92.9357 63.7884 92.6573 63.5838C92.3789 63.3764 92.0352 63.2727 91.6261 63.2727C91.1999 63.2727 90.8448 63.3821 90.5607 63.6009C90.2795 63.8168 90.0678 64.1108 89.9258 64.483C89.7866 64.8523 89.717 65.267 89.717 65.7273C89.717 66.1932 89.788 66.6165 89.93 66.9972C90.0749 67.375 90.288 67.6761 90.5692 67.9006C90.8533 68.1222 91.2056 68.233 91.6261 68.233ZM99.2156 69.1364C98.5849 69.1364 98.0408 68.9972 97.5835 68.7188C97.1289 68.4375 96.7781 68.0455 96.5309 67.5426C96.2866 67.0369 96.1644 66.4489 96.1644 65.7784C96.1644 65.108 96.2866 64.517 96.5309 64.0057C96.7781 63.4915 97.1218 63.0909 97.5621 62.804C98.0053 62.5142 98.5224 62.3693 99.1133 62.3693C99.4542 62.3693 99.7908 62.4261 100.123 62.5398C100.456 62.6534 100.758 62.8381 101.031 63.0938C101.304 63.3466 101.521 63.6818 101.683 64.0994C101.845 64.517 101.926 65.0312 101.926 65.642V66.0682H96.8803V65.1989H100.903C100.903 64.8295 100.829 64.5 100.681 64.2102C100.537 63.9205 100.329 63.6918 100.059 63.5241C99.7923 63.3565 99.4769 63.2727 99.1133 63.2727C98.7127 63.2727 98.3661 63.3722 98.0735 63.571C97.7837 63.767 97.5607 64.0227 97.4045 64.3381C97.2482 64.6534 97.1701 64.9915 97.1701 65.3523V65.9318C97.1701 66.4261 97.2553 66.8452 97.4258 67.1889C97.5991 67.5298 97.8391 67.7898 98.146 67.9688C98.4528 68.1449 98.8093 68.233 99.2156 68.233C99.4798 68.233 99.7184 68.196 99.9315 68.1222C100.147 68.0455 100.333 67.9318 100.49 67.7812C100.646 67.6278 100.767 67.4375 100.852 67.2102L101.824 67.483C101.721 67.8125 101.549 68.1023 101.308 68.3523C101.066 68.5994 100.768 68.7926 100.413 68.9318C100.058 69.0682 99.6587 69.1364 99.2156 69.1364ZM103.456 69V62.4545H104.427V63.4432H104.495C104.615 63.1193 104.831 62.8565 105.143 62.6548C105.456 62.4531 105.808 62.3523 106.2 62.3523C106.274 62.3523 106.366 62.3537 106.477 62.3565C106.588 62.3594 106.672 62.3636 106.728 62.3693V63.392C106.694 63.3835 106.616 63.3707 106.494 63.3537C106.375 63.3338 106.248 63.3239 106.115 63.3239C105.797 63.3239 105.512 63.3906 105.262 63.5241C105.015 63.6548 104.819 63.8366 104.674 64.0696C104.532 64.2997 104.461 64.5625 104.461 64.858V69H103.456Z" fill="black"/>
<path d="M38.7521 89V80.2727H44.0192V81.2102H39.8089V84.1591H43.7464V85.0966H39.8089V88.0625H44.0874V89H38.7521ZM45.7876 89V82.4545H46.7592V83.4432H46.8274C46.9467 83.1193 47.1626 82.8565 47.4751 82.6548C47.7876 82.4531 48.1399 82.3523 48.532 82.3523C48.6058 82.3523 48.6982 82.3537 48.8089 82.3565C48.9197 82.3594 49.0036 82.3636 49.0604 82.3693V83.392C49.0263 83.3835 48.9482 83.3707 48.826 83.3537C48.7067 83.3338 48.5803 83.3239 48.4467 83.3239C48.1286 83.3239 47.8445 83.3906 47.5945 83.5241C47.3473 83.6548 47.1513 83.8366 47.0064 84.0696C46.8643 84.2997 46.7933 84.5625 46.7933 84.858V89H45.7876ZM51.8409 89L49.8466 82.4545H50.9034L52.3182 87.4659H52.3864L53.7841 82.4545H54.858L56.2386 87.4489H56.3068L57.7216 82.4545H58.7784L56.7841 89H55.7955L54.3636 83.9716H54.2614L52.8295 89H51.8409ZM62.0341 89.1534C61.6193 89.1534 61.2429 89.0753 60.9048 88.919C60.5668 88.7599 60.2983 88.5312 60.0994 88.233C59.9006 87.9318 59.8011 87.5682 59.8011 87.142C59.8011 86.767 59.875 86.4631 60.0227 86.2301C60.1705 85.9943 60.3679 85.8097 60.6151 85.6761C60.8622 85.5426 61.1349 85.4432 61.4332 85.3778C61.7344 85.3097 62.0369 85.2557 62.3409 85.2159C62.7386 85.1648 63.0611 85.1264 63.3082 85.1009C63.5582 85.0724 63.7401 85.0256 63.8537 84.9602C63.9702 84.8949 64.0284 84.7812 64.0284 84.6193V84.5852C64.0284 84.1648 63.9134 83.8381 63.6832 83.6051C63.456 83.3722 63.1108 83.2557 62.6477 83.2557C62.1676 83.2557 61.7912 83.3608 61.5185 83.571C61.2457 83.7812 61.054 84.0057 60.9432 84.2443L59.9886 83.9034C60.1591 83.5057 60.3864 83.196 60.6705 82.9744C60.9574 82.75 61.2699 82.5937 61.608 82.5057C61.9489 82.4148 62.2841 82.3693 62.6136 82.3693C62.8239 82.3693 63.0653 82.3949 63.3381 82.446C63.6136 82.4943 63.8793 82.5952 64.1349 82.7486C64.3935 82.902 64.608 83.1335 64.7784 83.4432C64.9489 83.7528 65.0341 84.1676 65.0341 84.6875V89H64.0284V88.1136H63.9773C63.9091 88.2557 63.7955 88.4077 63.6364 88.5696C63.4773 88.7315 63.2656 88.8693 63.0014 88.983C62.7372 89.0966 62.4148 89.1534 62.0341 89.1534ZM62.1875 88.25C62.5852 88.25 62.9205 88.1719 63.1932 88.0156C63.4688 87.8594 63.6761 87.6577 63.8153 87.4105C63.9574 87.1634 64.0284 86.9034 64.0284 86.6307V85.7102C63.9858 85.7614 63.892 85.8082 63.7472 85.8509C63.6051 85.8906 63.4403 85.9261 63.2528 85.9574C63.0682 85.9858 62.8878 86.0114 62.7116 86.0341C62.5384 86.054 62.3977 86.071 62.2898 86.0852C62.0284 86.1193 61.7841 86.1747 61.5568 86.2514C61.3324 86.3253 61.1506 86.4375 61.0114 86.5881C60.875 86.7358 60.8068 86.9375 60.8068 87.1932C60.8068 87.5426 60.9361 87.8068 61.1946 87.9858C61.456 88.1619 61.7869 88.25 62.1875 88.25ZM69.5288 89.1364C68.9151 89.1364 68.3867 88.9915 67.9435 88.7017C67.5004 88.4119 67.1594 88.0128 66.9208 87.5043C66.6822 86.9957 66.5629 86.4148 66.5629 85.7614C66.5629 85.0966 66.685 84.5099 66.9293 84.0014C67.1765 83.4901 67.5202 83.0909 67.9606 82.804C68.4038 82.5142 68.9208 82.3693 69.5117 82.3693C69.9719 82.3693 70.3867 82.4545 70.756 82.625C71.1254 82.7955 71.4279 83.0341 71.6637 83.3409C71.8995 83.6477 72.0458 84.0057 72.1026 84.4148H71.0969C71.0202 84.1165 70.8498 83.8523 70.5856 83.6222C70.3242 83.3892 69.9719 83.2727 69.5288 83.2727C69.1367 83.2727 68.793 83.375 68.4975 83.5795C68.2049 83.7812 67.9762 84.0668 67.8114 84.4361C67.6495 84.8026 67.5685 85.233 67.5685 85.7273C67.5685 86.233 67.6481 86.6733 67.8072 87.0483C67.9691 87.4233 68.1964 87.7145 68.489 87.9219C68.7844 88.1293 69.131 88.233 69.5288 88.233C69.7901 88.233 70.0273 88.1875 70.2404 88.0966C70.4535 88.0057 70.6339 87.875 70.7816 87.7045C70.9293 87.5341 71.0344 87.3295 71.0969 87.0909H72.1026C72.0458 87.4773 71.9052 87.8253 71.6808 88.1349C71.4592 88.4418 71.1651 88.6861 70.7987 88.8679C70.435 89.0469 70.0117 89.1364 69.5288 89.1364ZM74.5785 85.0625V89H73.5728V80.2727H74.5785V83.4773H74.6637C74.8171 83.1392 75.0472 82.8707 75.354 82.6719C75.6637 82.4702 76.0756 82.3693 76.5898 82.3693C77.0359 82.3693 77.4265 82.4588 77.7617 82.6378C78.0969 82.8139 78.3569 83.0852 78.5415 83.4517C78.729 83.8153 78.8228 84.2784 78.8228 84.8409V89H77.8171V84.9091C77.8171 84.3892 77.6822 83.9872 77.4123 83.7031C77.1452 83.4162 76.7745 83.2727 76.3001 83.2727C75.9705 83.2727 75.6751 83.3423 75.4137 83.4815C75.1552 83.6207 74.9506 83.8239 74.8001 84.0909C74.6523 84.358 74.5785 84.6818 74.5785 85.0625ZM85.299 83.9205L84.3956 84.1761C84.3388 84.0256 84.255 83.8793 84.1442 83.7372C84.0362 83.5923 83.8885 83.473 83.701 83.3793C83.5135 83.2855 83.2734 83.2386 82.9808 83.2386C82.5803 83.2386 82.2464 83.331 81.9794 83.5156C81.7152 83.6974 81.5831 83.929 81.5831 84.2102C81.5831 84.4602 81.674 84.6577 81.8558 84.8026C82.0376 84.9474 82.3217 85.0682 82.7081 85.1648L83.6797 85.4034C84.2649 85.5455 84.701 85.7628 84.9879 86.0554C85.2749 86.3452 85.4183 86.7187 85.4183 87.1761C85.4183 87.5511 85.3104 87.8864 85.0945 88.1818C84.8814 88.4773 84.5831 88.7102 84.1996 88.8807C83.8161 89.0511 83.37 89.1364 82.8615 89.1364C82.1939 89.1364 81.6413 88.9915 81.2038 88.7017C80.7663 88.4119 80.4893 87.9886 80.3729 87.4318L81.3274 87.1932C81.4183 87.5455 81.5902 87.8097 81.843 87.9858C82.0987 88.1619 82.4325 88.25 82.8445 88.25C83.3132 88.25 83.6854 88.1506 83.9609 87.9517C84.2393 87.75 84.3786 87.5085 84.3786 87.2273C84.3786 87 84.299 86.8097 84.1399 86.6562C83.9808 86.5 83.7365 86.3835 83.407 86.3068L82.3161 86.0511C81.7166 85.9091 81.2763 85.6889 80.995 85.3906C80.7166 85.0895 80.5774 84.7131 80.5774 84.2614C80.5774 83.892 80.6811 83.5653 80.8885 83.2812C81.0987 82.9972 81.3842 82.7741 81.745 82.6122C82.1087 82.4503 82.5206 82.3693 82.9808 82.3693C83.6286 82.3693 84.1371 82.5114 84.5064 82.7955C84.8786 83.0795 85.1428 83.4545 85.299 83.9205ZM89.6765 89.1364C89.0458 89.1364 88.5018 88.9972 88.0444 88.7188C87.5898 88.4375 87.239 88.0455 86.9918 87.5426C86.7475 87.0369 86.6254 86.4489 86.6254 85.7784C86.6254 85.108 86.7475 84.517 86.9918 84.0057C87.239 83.4915 87.5827 83.0909 88.0231 82.804C88.4663 82.5142 88.9833 82.3693 89.5742 82.3693C89.9151 82.3693 90.2518 82.4261 90.5842 82.5398C90.9165 82.6534 91.2191 82.8381 91.4918 83.0938C91.7646 83.3466 91.9819 83.6818 92.1438 84.0994C92.3058 84.517 92.3867 85.0312 92.3867 85.642V86.0682H87.3413V85.1989H91.364C91.364 84.8295 91.2901 84.5 91.1424 84.2102C90.9975 83.9205 90.7901 83.6918 90.5202 83.5241C90.2532 83.3565 89.9379 83.2727 89.5742 83.2727C89.1737 83.2727 88.8271 83.3722 88.5344 83.571C88.2447 83.767 88.0217 84.0227 87.8654 84.3381C87.7092 84.6534 87.631 84.9915 87.631 85.3523V85.9318C87.631 86.4261 87.7163 86.8452 87.8867 87.1889C88.06 87.5298 88.3001 87.7898 88.6069 87.9688C88.9137 88.1449 89.2702 88.233 89.6765 88.233C89.9407 88.233 90.1793 88.196 90.3924 88.1222C90.6083 88.0455 90.7944 87.9318 90.9506 87.7812C91.1069 87.6278 91.2276 87.4375 91.3129 87.2102L92.2844 87.483C92.1822 87.8125 92.0103 88.1023 91.7688 88.3523C91.5273 88.5994 91.229 88.7926 90.8739 88.9318C90.5188 89.0682 90.1197 89.1364 89.6765 89.1364ZM94.9222 85.0625V89H93.9165V82.4545H94.8881V83.4773H94.9734C95.1268 83.1449 95.3597 82.8778 95.6722 82.6761C95.9847 82.4716 96.3881 82.3693 96.8825 82.3693C97.3256 82.3693 97.7134 82.4602 98.0458 82.642C98.3782 82.821 98.6367 83.0938 98.8214 83.4602C99.006 83.8239 99.0984 84.2841 99.0984 84.8409V89H98.0927V84.9091C98.0927 84.3949 97.9592 83.9943 97.6921 83.7074C97.4251 83.4176 97.0586 83.2727 96.5927 83.2727C96.2717 83.2727 95.9847 83.3423 95.7319 83.4815C95.4819 83.6207 95.2844 83.8239 95.1396 84.0909C94.9947 84.358 94.9222 84.6818 94.9222 85.0625ZM103.68 89.1364C103.05 89.1364 102.506 88.9972 102.048 88.7188C101.594 88.4375 101.243 88.0455 100.996 87.5426C100.751 87.0369 100.629 86.4489 100.629 85.7784C100.629 85.108 100.751 84.517 100.996 84.0057C101.243 83.4915 101.587 83.0909 102.027 82.804C102.47 82.5142 102.987 82.3693 103.578 82.3693C103.919 82.3693 104.256 82.4261 104.588 82.5398C104.92 82.6534 105.223 82.8381 105.496 83.0938C105.768 83.3466 105.986 83.6818 106.148 84.0994C106.31 84.517 106.391 85.0312 106.391 85.642V86.0682H101.345V85.1989H105.368C105.368 84.8295 105.294 84.5 105.146 84.2102C105.001 83.9205 104.794 83.6918 104.524 83.5241C104.257 83.3565 103.942 83.2727 103.578 83.2727C103.178 83.2727 102.831 83.3722 102.538 83.571C102.249 83.767 102.026 84.0227 101.869 84.3381C101.713 84.6534 101.635 84.9915 101.635 85.3523V85.9318C101.635 86.4261 101.72 86.8452 101.891 87.1889C102.064 87.5298 102.304 87.7898 102.611 87.9688C102.918 88.1449 103.274 88.233 103.68 88.233C103.945 88.233 104.183 88.196 104.396 88.1222C104.612 88.0455 104.798 87.9318 104.955 87.7812C105.111 87.6278 105.232 87.4375 105.317 87.2102L106.288 87.483C106.186 87.8125 106.014 88.1023 105.773 88.3523C105.531 88.5994 105.233 88.7926 104.878 88.9318C104.523 89.0682 104.124 89.1364 103.68 89.1364Z" fill="black"/>
<path opacity="0.5" d="M305.9 40.8068V40.2273L308.456 36.1818H308.877V37.0795H308.593L306.661 40.1364V40.1818H310.104V40.8068H305.9ZM308.638 42V40.6307V40.3608V36.1818H309.309V42H308.638ZM313.066 42.0795C312.638 42.0795 312.274 41.9631 311.973 41.7301C311.672 41.4953 311.441 41.1553 311.282 40.7102C311.123 40.2633 311.044 39.7235 311.044 39.0909C311.044 38.4621 311.123 37.9252 311.282 37.4801C311.443 37.0331 311.674 36.6922 311.975 36.4574C312.279 36.2206 312.642 36.1023 313.066 36.1023C313.491 36.1023 313.853 36.2206 314.154 36.4574C314.458 36.6922 314.689 37.0331 314.848 37.4801C315.009 37.9252 315.089 38.4621 315.089 39.0909C315.089 39.7235 315.01 40.2633 314.85 40.7102C314.691 41.1553 314.461 41.4953 314.16 41.7301C313.859 41.9631 313.494 42.0795 313.066 42.0795ZM313.066 41.4545C313.491 41.4545 313.82 41.25 314.055 40.8409C314.29 40.4318 314.407 39.8485 314.407 39.0909C314.407 38.5871 314.353 38.1581 314.245 37.804C314.139 37.4498 313.986 37.1799 313.785 36.9943C313.586 36.8087 313.347 36.7159 313.066 36.7159C312.646 36.7159 312.317 36.9233 312.081 37.3381C311.844 37.7509 311.725 38.3352 311.725 39.0909C311.725 39.5947 311.779 40.0227 311.885 40.375C311.991 40.7273 312.143 40.9953 312.342 41.179C312.543 41.3627 312.784 41.4545 313.066 41.4545Z" fill="black"/>
<path opacity="0.5" d="M405.9 40.8068V40.2273L408.456 36.1818H408.877V37.0795H408.593L406.661 40.1364V40.1818H410.104V40.8068H405.9ZM408.638 42V40.6307V40.3608V36.1818H409.309V42H408.638ZM413.066 42.0795C412.638 42.0795 412.274 41.9631 411.973 41.7301C411.672 41.4953 411.441 41.1553 411.282 40.7102C411.123 40.2633 411.044 39.7235 411.044 39.0909C411.044 38.4621 411.123 37.9252 411.282 37.4801C411.443 37.0331 411.674 36.6922 411.975 36.4574C412.279 36.2206 412.642 36.1023 413.066 36.1023C413.491 36.1023 413.853 36.2206 414.154 36.4574C414.458 36.6922 414.689 37.0331 414.848 37.4801C415.009 37.9252 415.089 38.4621 415.089 39.0909C415.089 39.7235 415.01 40.2633 414.85 40.7102C414.691 41.1553 414.461 41.4953 414.16 41.7301C413.859 41.9631 413.494 42.0795 413.066 42.0795ZM413.066 41.4545C413.491 41.4545 413.82 41.25 414.055 40.8409C414.29 40.4318 414.407 39.8485 414.407 39.0909C414.407 38.5871 414.353 38.1581 414.245 37.804C414.139 37.4498 413.986 37.1799 413.785 36.9943C413.586 36.8087 413.347 36.7159 413.066 36.7159C412.646 36.7159 412.317 36.9233 412.081 37.3381C411.844 37.7509 411.725 38.3352 411.725 39.0909C411.725 39.5947 411.779 40.0227 411.885 40.375C411.991 40.7273 412.143 40.9953 412.342 41.179C412.543 41.3627 412.784 41.4545 413.066 41.4545Z" fill="black"/>
<path opacity="0.5" d="M505.9 40.8068V40.2273L508.456 36.1818H508.877V37.0795H508.593L506.661 40.1364V40.1818H510.104V40.8068H505.9ZM508.638 42V40.6307V40.3608V36.1818H509.309V42H508.638ZM513.066 42.0795C512.638 42.0795 512.274 41.9631 511.973 41.7301C511.672 41.4953 511.441 41.1553 511.282 40.7102C511.123 40.2633 511.044 39.7235 511.044 39.0909C511.044 38.4621 511.123 37.9252 511.282 37.4801C511.443 37.0331 511.674 36.6922 511.975 36.4574C512.279 36.2206 512.642 36.1023 513.066 36.1023C513.491 36.1023 513.853 36.2206 514.154 36.4574C514.458 36.6922 514.689 37.0331 514.848 37.4801C515.009 37.9252 515.089 38.4621 515.089 39.0909C515.089 39.7235 515.01 40.2633 514.85 40.7102C514.691 41.1553 514.461 41.4953 514.16 41.7301C513.859 41.9631 513.494 42.0795 513.066 42.0795ZM513.066 41.4545C513.491 41.4545 513.82 41.25 514.055 40.8409C514.29 40.4318 514.407 39.8485 514.407 39.0909C514.407 38.5871 514.353 38.1581 514.245 37.804C514.139 37.4498 513.986 37.1799 513.785 36.9943C513.586 36.8087 513.347 36.7159 513.066 36.7159C512.646 36.7159 512.317 36.9233 512.081 37.3381C511.844 37.7509 511.725 38.3352 511.725 39.0909C511.725 39.5947 511.779 40.0227 511.885 40.375C511.991 40.7273 512.143 40.9953 512.342 41.179C512.543 41.3627 512.784 41.4545 513.066 41.4545Z" fill="black"/>
<path opacity="0.5" d="M604.9 40.8068V40.2273L607.456 36.1818H607.877V37.0795H607.593L605.661 40.1364V40.1818H609.104V40.8068H604.9ZM607.638 42V40.6307V40.3608V36.1818H608.309V42H607.638ZM612.066 42.0795C611.638 42.0795 611.274 41.9631 610.973 41.7301C610.672 41.4953 610.441 41.1553 610.282 40.7102C610.123 40.2633 610.044 39.7235 610.044 39.0909C610.044 38.4621 610.123 37.9252 610.282 37.4801C610.443 37.0331 610.674 36.6922 610.975 36.4574C611.279 36.2206 611.642 36.1023 612.066 36.1023C612.491 36.1023 612.853 36.2206 613.154 36.4574C613.458 36.6922 613.689 37.0331 613.848 37.4801C614.009 37.9252 614.089 38.4621 614.089 39.0909C614.089 39.7235 614.01 40.2633 613.85 40.7102C613.691 41.1553 613.461 41.4953 613.16 41.7301C612.859 41.9631 612.494 42.0795 612.066 42.0795ZM612.066 41.4545C612.491 41.4545 612.82 41.25 613.055 40.8409C613.29 40.4318 613.407 39.8485 613.407 39.0909C613.407 38.5871 613.353 38.1581 613.245 37.804C613.139 37.4498 612.986 37.1799 612.785 36.9943C612.586 36.8087 612.347 36.7159 612.066 36.7159C611.646 36.7159 611.317 36.9233 611.081 37.3381C610.844 37.7509 610.725 38.3352 610.725 39.0909C610.725 39.5947 610.779 40.0227 610.885 40.375C610.991 40.7273 611.143 40.9953 611.342 41.179C611.543 41.3627 611.784 41.4545 612.066 41.4545Z" fill="black"/>
<path opacity="0.5" d="M704.9 40.8068V40.2273L707.456 36.1818H707.877V37.0795H707.593L705.661 40.1364V40.1818H709.104V40.8068H704.9ZM707.638 42V40.6307V40.3608V36.1818H708.309V42H707.638ZM712.066 42.0795C711.638 42.0795 711.274 41.9631 710.973 41.7301C710.672 41.4953 710.441 41.1553 710.282 40.7102C710.123 40.2633 710.044 39.7235 710.044 39.0909C710.044 38.4621 710.123 37.9252 710.282 37.4801C710.443 37.0331 710.674 36.6922 710.975 36.4574C711.279 36.2206 711.642 36.1023 712.066 36.1023C712.491 36.1023 712.853 36.2206 713.154 36.4574C713.458 36.6922 713.689 37.0331 713.848 37.4801C714.009 37.9252 714.089 38.4621 714.089 39.0909C714.089 39.7235 714.01 40.2633 713.85 40.7102C713.691 41.1553 713.461 41.4953 713.16 41.7301C712.859 41.9631 712.494 42.0795 712.066 42.0795ZM712.066 41.4545C712.491 41.4545 712.82 41.25 713.055 40.8409C713.29 40.4318 713.407 39.8485 713.407 39.0909C713.407 38.5871 713.353 38.1581 713.245 37.804C713.139 37.4498 712.986 37.1799 712.785 36.9943C712.586 36.8087 712.347 36.7159 712.066 36.7159C711.646 36.7159 711.317 36.9233 711.081 37.3381C710.844 37.7509 710.725 38.3352 710.725 39.0909C710.725 39.5947 710.779 40.0227 710.885 40.375C710.991 40.7273 711.143 40.9953 711.342 41.179C711.543 41.3627 711.784 41.4545 712.066 41.4545Z" fill="black"/>
<path opacity="0.5" d="M804.9 40.8068V40.2273L807.456 36.1818H807.877V37.0795H807.593L805.661 40.1364V40.1818H809.104V40.8068H804.9ZM807.638 42V40.6307V40.3608V36.1818H808.309V42H807.638ZM812.066 42.0795C811.638 42.0795 811.274 41.9631 810.973 41.7301C810.672 41.4953 810.441 41.1553 810.282 40.7102C810.123 40.2633 810.044 39.7235 810.044 39.0909C810.044 38.4621 810.123 37.9252 810.282 37.4801C810.443 37.0331 810.674 36.6922 810.975 36.4574C811.279 36.2206 811.642 36.1023 812.066 36.1023C812.491 36.1023 812.853 36.2206 813.154 36.4574C813.458 36.6922 813.689 37.0331 813.848 37.4801C814.009 37.9252 814.089 38.4621 814.089 39.0909C814.089 39.7235 814.01 40.2633 813.85 40.7102C813.691 41.1553 813.461 41.4953 813.16 41.7301C812.859 41.9631 812.494 42.0795 812.066 42.0795ZM812.066 41.4545C812.491 41.4545 812.82 41.25 813.055 40.8409C813.29 40.4318 813.407 39.8485 813.407 39.0909C813.407 38.5871 813.353 38.1581 813.245 37.804C813.139 37.4498 812.986 37.1799 812.785 36.9943C812.586 36.8087 812.347 36.7159 812.066 36.7159C811.646 36.7159 811.317 36.9233 811.081 37.3381C810.844 37.7509 810.725 38.3352 810.725 39.0909C810.725 39.5947 810.779 40.0227 810.885 40.375C810.991 40.7273 811.143 40.9953 811.342 41.179C811.543 41.3627 811.784 41.4545 812.066 41.4545Z" fill="black"/>
<path opacity="0.5" d="M904.9 40.8068V40.2273L907.456 36.1818H907.877V37.0795H907.593L905.661 40.1364V40.1818H909.104V40.8068H904.9ZM907.638 42V40.6307V40.3608V36.1818H908.309V42H907.638ZM912.066 42.0795C911.638 42.0795 911.274 41.9631 910.973 41.7301C910.672 41.4953 910.441 41.1553 910.282 40.7102C910.123 40.2633 910.044 39.7235 910.044 39.0909C910.044 38.4621 910.123 37.9252 910.282 37.4801C910.443 37.0331 910.674 36.6922 910.975 36.4574C911.279 36.2206 911.642 36.1023 912.066 36.1023C912.491 36.1023 912.853 36.2206 913.154 36.4574C913.458 36.6922 913.689 37.0331 913.848 37.4801C914.009 37.9252 914.089 38.4621 914.089 39.0909C914.089 39.7235 914.01 40.2633 913.85 40.7102C913.691 41.1553 913.461 41.4953 913.16 41.7301C912.859 41.9631 912.494 42.0795 912.066 42.0795ZM912.066 41.4545C912.491 41.4545 912.82 41.25 913.055 40.8409C913.29 40.4318 913.407 39.8485 913.407 39.0909C913.407 38.5871 913.353 38.1581 913.245 37.804C913.139 37.4498 912.986 37.1799 912.785 36.9943C912.586 36.8087 912.347 36.7159 912.066 36.7159C911.646 36.7159 911.317 36.9233 911.081 37.3381C910.844 37.7509 910.725 38.3352 910.725 39.0909C910.725 39.5947 910.779 40.0227 910.885 40.375C910.991 40.7273 911.143 40.9953 911.342 41.179C911.543 41.3627 911.784 41.4545 912.066 41.4545Z" fill="black"/>
<path opacity="0.5" d="M1004.9 40.8068V40.2273L1007.46 36.1818H1007.88V37.0795H1007.59L1005.66 40.1364V40.1818H1009.1V40.8068H1004.9ZM1007.64 42V40.6307V40.3608V36.1818H1008.31V42H1007.64ZM1012.07 42.0795C1011.64 42.0795 1011.27 41.9631 1010.97 41.7301C1010.67 41.4953 1010.44 41.1553 1010.28 40.7102C1010.12 40.2633 1010.04 39.7235 1010.04 39.0909C1010.04 38.4621 1010.12 37.9252 1010.28 37.4801C1010.44 37.0331 1010.67 36.6922 1010.98 36.4574C1011.28 36.2206 1011.64 36.1023 1012.07 36.1023C1012.49 36.1023 1012.85 36.2206 1013.15 36.4574C1013.46 36.6922 1013.69 37.0331 1013.85 37.4801C1014.01 37.9252 1014.09 38.4621 1014.09 39.0909C1014.09 39.7235 1014.01 40.2633 1013.85 40.7102C1013.69 41.1553 1013.46 41.4953 1013.16 41.7301C1012.86 41.9631 1012.49 42.0795 1012.07 42.0795ZM1012.07 41.4545C1012.49 41.4545 1012.82 41.25 1013.06 40.8409C1013.29 40.4318 1013.41 39.8485 1013.41 39.0909C1013.41 38.5871 1013.35 38.1581 1013.25 37.804C1013.14 37.4498 1012.99 37.1799 1012.79 36.9943C1012.59 36.8087 1012.35 36.7159 1012.07 36.7159C1011.65 36.7159 1011.32 36.9233 1011.08 37.3381C1010.84 37.7509 1010.73 38.3352 1010.73 39.0909C1010.73 39.5947 1010.78 40.0227 1010.88 40.375C1010.99 40.7273 1011.14 40.9953 1011.34 41.179C1011.54 41.3627 1011.78 41.4545 1012.07 41.4545Z" fill="black"/>
<path opacity="0.5" d="M205.9 40.8068V40.2273L208.456 36.1818H208.877V37.0795H208.593L206.661 40.1364V40.1818H210.104V40.8068H205.9ZM208.638 42V40.6307V40.3608V36.1818H209.309V42H208.638ZM213.066 42.0795C212.638 42.0795 212.274 41.9631 211.973 41.7301C211.672 41.4953 211.441 41.1553 211.282 40.7102C211.123 40.2633 211.044 39.7235 211.044 39.0909C211.044 38.4621 211.123 37.9252 211.282 37.4801C211.443 37.0331 211.674 36.6922 211.975 36.4574C212.279 36.2206 212.642 36.1023 213.066 36.1023C213.491 36.1023 213.853 36.2206 214.154 36.4574C214.458 36.6922 214.689 37.0331 214.848 37.4801C215.009 37.9252 215.089 38.4621 215.089 39.0909C215.089 39.7235 215.01 40.2633 214.85 40.7102C214.691 41.1553 214.461 41.4953 214.16 41.7301C213.859 41.9631 213.494 42.0795 213.066 42.0795ZM213.066 41.4545C213.491 41.4545 213.82 41.25 214.055 40.8409C214.29 40.4318 214.407 39.8485 214.407 39.0909C214.407 38.5871 214.353 38.1581 214.245 37.804C214.139 37.4498 213.986 37.1799 213.785 36.9943C213.586 36.8087 213.347 36.7159 213.066 36.7159C212.646 36.7159 212.317 36.9233 212.081 37.3381C211.844 37.7509 211.725 38.3352 211.725 39.0909C211.725 39.5947 211.779 40.0227 211.885 40.375C211.991 40.7273 212.143 40.9953 212.342 41.179C212.543 41.3627 212.784 41.4545 213.066 41.4545Z" fill="black"/>
<path d="M240.433 35.2727V44H239.376V36.3807H239.325L237.194 37.7955V36.7216L239.376 35.2727H240.433ZM245.789 44.1193C245.147 44.1193 244.6 43.9446 244.148 43.5952C243.697 43.2429 243.352 42.733 243.113 42.0653C242.874 41.3949 242.755 40.5852 242.755 39.6364C242.755 38.6932 242.874 37.8878 243.113 37.2202C243.354 36.5497 243.701 36.0384 244.153 35.6861C244.607 35.331 245.153 35.1534 245.789 35.1534C246.425 35.1534 246.969 35.331 247.421 35.6861C247.876 36.0384 248.222 36.5497 248.461 37.2202C248.702 37.8878 248.823 38.6932 248.823 39.6364C248.823 40.5852 248.704 41.3949 248.465 42.0653C248.227 42.733 247.881 43.2429 247.43 43.5952C246.978 43.9446 246.431 44.1193 245.789 44.1193ZM245.789 43.1818C246.425 43.1818 246.92 42.875 247.272 42.2614C247.624 41.6477 247.8 40.7727 247.8 39.6364C247.8 38.8807 247.719 38.2372 247.558 37.706C247.398 37.1747 247.168 36.7699 246.867 36.4915C246.569 36.2131 246.21 36.0739 245.789 36.0739C245.158 36.0739 244.665 36.3849 244.31 37.0071C243.955 37.6264 243.778 38.5028 243.778 39.6364C243.778 40.392 243.857 41.0341 244.016 41.5625C244.175 42.0909 244.404 42.4929 244.702 42.7685C245.004 43.044 245.366 43.1818 245.789 43.1818Z" fill="black"/>
<path d="M341.393 35.2727V44H340.337V36.3807H340.286L338.155 37.7955V36.7216L340.337 35.2727H341.393ZM346.972 35.2727V44H345.915V36.3807H345.864L343.733 37.7955V36.7216L345.915 35.2727H346.972Z" fill="black"/>
<path d="M440.05 35.2727V44H438.993V36.3807H438.942L436.811 37.7955V36.7216L438.993 35.2727H440.05ZM442.56 44V43.233L445.44 40.0795C445.778 39.7102 446.057 39.3892 446.276 39.1165C446.494 38.8409 446.656 38.5824 446.761 38.3409C446.869 38.0966 446.923 37.8409 446.923 37.5739C446.923 37.267 446.849 37.0014 446.702 36.777C446.557 36.5526 446.358 36.3793 446.105 36.2571C445.852 36.1349 445.568 36.0739 445.253 36.0739C444.918 36.0739 444.625 36.1435 444.375 36.2827C444.128 36.419 443.936 36.6108 443.8 36.858C443.666 37.1051 443.599 37.3949 443.599 37.7273H442.594C442.594 37.2159 442.712 36.767 442.947 36.3807C443.183 35.9943 443.504 35.6932 443.911 35.4773C444.32 35.2614 444.778 35.1534 445.287 35.1534C445.798 35.1534 446.251 35.2614 446.646 35.4773C447.041 35.6932 447.351 35.9844 447.575 36.3509C447.8 36.7173 447.912 37.125 447.912 37.5739C447.912 37.8949 447.854 38.2088 447.737 38.5156C447.624 38.8196 447.425 39.1591 447.141 39.5341C446.859 39.9062 446.469 40.3608 445.969 40.8977L444.009 42.9943V43.0625H448.065V44H442.56Z" fill="black"/>
<path d="M540.362 35.2727V44H539.305V36.3807H539.254L537.124 37.7955V36.7216L539.305 35.2727H540.362ZM545.821 44.1193C545.259 44.1193 544.757 44.0227 544.317 43.8295C543.879 43.6364 543.531 43.3679 543.273 43.0241C543.017 42.6776 542.878 42.2756 542.855 41.8182H543.929C543.952 42.0994 544.048 42.3423 544.219 42.5469C544.389 42.7486 544.612 42.9048 544.888 43.0156C545.163 43.1264 545.469 43.1818 545.804 43.1818C546.179 43.1818 546.511 43.1165 546.801 42.9858C547.091 42.8551 547.318 42.6733 547.483 42.4403C547.648 42.2074 547.73 41.9375 547.73 41.6307C547.73 41.3097 547.651 41.027 547.491 40.7827C547.332 40.5355 547.099 40.3423 546.793 40.2031C546.486 40.0639 546.111 39.9943 545.668 39.9943H544.969V39.0568H545.668C546.014 39.0568 546.318 38.9943 546.58 38.8693C546.844 38.7443 547.05 38.5682 547.197 38.3409C547.348 38.1136 547.423 37.8466 547.423 37.5398C547.423 37.2443 547.358 36.9872 547.227 36.7685C547.097 36.5497 546.912 36.3793 546.673 36.2571C546.438 36.1349 546.159 36.0739 545.838 36.0739C545.537 36.0739 545.253 36.1293 544.986 36.2401C544.722 36.348 544.506 36.5057 544.338 36.7131C544.17 36.9176 544.08 37.1648 544.065 37.4545H543.043C543.06 36.9972 543.197 36.5966 543.456 36.2528C543.714 35.9062 544.053 35.6364 544.47 35.4432C544.891 35.25 545.352 35.1534 545.855 35.1534C546.395 35.1534 546.858 35.2628 547.244 35.4815C547.631 35.6974 547.928 35.983 548.135 36.3381C548.342 36.6932 548.446 37.0767 548.446 37.4886C548.446 37.9801 548.317 38.3991 548.058 38.7457C547.803 39.0923 547.455 39.3324 547.014 39.4659V39.5341C547.565 39.625 547.996 39.8594 548.305 40.2372C548.615 40.6122 548.77 41.0767 548.77 41.6307C548.77 42.1051 548.641 42.5312 548.382 42.9091C548.126 43.2841 547.777 43.5795 547.334 43.7955C546.891 44.0114 546.386 44.1193 545.821 44.1193Z" fill="black"/>
<path d="M641.333 35.2727V44H640.276V36.3807H640.225L638.094 37.7955V36.7216L640.276 35.2727H641.333ZM643.638 42.2102V41.3409L647.474 35.2727H648.104V36.6193H647.678L644.78 41.2045V41.2727H649.945V42.2102H643.638ZM647.746 44V41.946V41.5412V35.2727H648.752V44H647.746Z" fill="black"/>
<path d="M741.032 35.2727V44H739.975V36.3807H739.924L737.794 37.7955V36.7216L739.975 35.2727H741.032ZM746.269 44.1193C745.769 44.1193 745.319 44.0199 744.919 43.821C744.518 43.6222 744.197 43.3494 743.955 43.0028C743.714 42.6562 743.582 42.2614 743.559 41.8182H744.582C744.622 42.2131 744.801 42.5398 745.119 42.7983C745.44 43.054 745.823 43.1818 746.269 43.1818C746.627 43.1818 746.945 43.098 747.224 42.9304C747.505 42.7628 747.725 42.5327 747.884 42.2401C748.046 41.9446 748.127 41.6108 748.127 41.2386C748.127 40.858 748.044 40.5185 747.876 40.2202C747.711 39.919 747.484 39.6818 747.194 39.5085C746.904 39.3352 746.573 39.2472 746.201 39.2443C745.934 39.2415 745.66 39.2827 745.379 39.3679C745.097 39.4503 744.866 39.5568 744.684 39.6875L743.695 39.5682L744.224 35.2727H748.758V36.2102H745.11L744.803 38.7841H744.855C745.034 38.642 745.258 38.5241 745.528 38.4304C745.798 38.3366 746.079 38.2898 746.372 38.2898C746.906 38.2898 747.382 38.4176 747.799 38.6733C748.22 38.9261 748.549 39.2727 748.788 39.7131C749.029 40.1534 749.15 40.6562 749.15 41.2216C749.15 41.7784 749.025 42.2756 748.775 42.7131C748.528 43.1477 748.187 43.4915 747.752 43.7443C747.318 43.9943 746.823 44.1193 746.269 44.1193Z" fill="black"/>
<path d="M841.438 35.2727V44H840.382V36.3807H840.33L838.2 37.7955V36.7216L840.382 35.2727H841.438ZM846.846 44.1193C846.488 44.1136 846.13 44.0455 845.772 43.9148C845.414 43.7841 845.088 43.5639 844.792 43.2543C844.497 42.9418 844.259 42.5199 844.08 41.9886C843.901 41.4545 843.812 40.7841 843.812 39.9773C843.812 39.2045 843.884 38.5199 844.029 37.9233C844.174 37.3239 844.384 36.8196 844.66 36.4105C844.936 35.9986 845.268 35.6861 845.657 35.473C846.049 35.2599 846.491 35.1534 846.982 35.1534C847.471 35.1534 847.906 35.2514 848.286 35.4474C848.67 35.6406 848.982 35.9105 849.224 36.2571C849.465 36.6037 849.622 37.0028 849.693 37.4545H848.653C848.556 37.0625 848.369 36.7372 848.09 36.4787C847.812 36.2202 847.443 36.0909 846.982 36.0909C846.306 36.0909 845.774 36.3849 845.384 36.973C844.998 37.5611 844.803 38.3864 844.801 39.4489H844.869C845.028 39.2074 845.217 39.0014 845.436 38.831C845.657 38.6577 845.901 38.5241 846.169 38.4304C846.436 38.3366 846.718 38.2898 847.017 38.2898C847.517 38.2898 847.974 38.4148 848.389 38.6648C848.803 38.9119 849.136 39.2543 849.386 39.6918C849.636 40.1264 849.761 40.625 849.761 41.1875C849.761 41.7273 849.64 42.2216 849.399 42.6705C849.157 43.1165 848.818 43.4716 848.38 43.7358C847.945 43.9972 847.434 44.125 846.846 44.1193ZM846.846 43.1818C847.204 43.1818 847.525 43.0923 847.809 42.9134C848.096 42.7344 848.322 42.4943 848.487 42.1932C848.654 41.892 848.738 41.5568 848.738 41.1875C848.738 40.8267 848.657 40.4986 848.495 40.2031C848.336 39.9048 848.116 39.6676 847.835 39.4915C847.556 39.3153 847.238 39.2273 846.88 39.2273C846.61 39.2273 846.359 39.2812 846.126 39.3892C845.893 39.4943 845.688 39.6392 845.512 39.8239C845.339 40.0085 845.203 40.2202 845.103 40.4588C845.004 40.6946 844.954 40.9432 844.954 41.2045C844.954 41.5511 845.035 41.875 845.197 42.1761C845.362 42.4773 845.586 42.7202 845.87 42.9048C846.157 43.0895 846.482 43.1818 846.846 43.1818Z" fill="black"/>
<path d="M941.255 35.2727V44H940.198V36.3807H940.147L938.016 37.7955V36.7216L940.198 35.2727H941.255ZM944.037 44L947.941 36.2784V36.2102H943.441V35.2727H949.032V36.2614L945.145 44H944.037Z" fill="black"/>
<path d="M1039.99 35.2727V44H1038.93V36.3807H1038.88L1036.75 37.7955V36.7216L1038.93 35.2727H1039.99ZM1045.29 44.1193C1044.71 44.1193 1044.19 44.0156 1043.74 43.8082C1043.29 43.598 1042.95 43.3097 1042.7 42.9432C1042.45 42.5739 1042.32 42.1534 1042.32 41.6818C1042.32 41.3125 1042.39 40.9716 1042.54 40.6591C1042.69 40.3437 1042.89 40.081 1043.15 39.8707C1043.41 39.6577 1043.69 39.5227 1044.01 39.4659V39.4148C1043.59 39.3068 1043.26 39.0724 1043.02 38.7116C1042.77 38.348 1042.65 37.9347 1042.65 37.4716C1042.65 37.0284 1042.76 36.6321 1042.99 36.2827C1043.21 35.9332 1043.53 35.6577 1043.92 35.456C1044.32 35.2543 1044.78 35.1534 1045.29 35.1534C1045.8 35.1534 1046.25 35.2543 1046.65 35.456C1047.04 35.6577 1047.36 35.9332 1047.58 36.2827C1047.81 36.6321 1047.93 37.0284 1047.93 37.4716C1047.93 37.9347 1047.8 38.348 1047.55 38.7116C1047.31 39.0724 1046.98 39.3068 1046.57 39.4148V39.4659C1046.88 39.5227 1047.17 39.6577 1047.42 39.8707C1047.67 40.081 1047.88 40.3437 1048.03 40.6591C1048.18 40.9716 1048.25 41.3125 1048.26 41.6818C1048.25 42.1534 1048.13 42.5739 1047.87 42.9432C1047.62 43.3097 1047.28 43.598 1046.83 43.8082C1046.39 44.0156 1045.87 44.1193 1045.29 44.1193ZM1045.29 43.1818C1045.69 43.1818 1046.03 43.1179 1046.31 42.9901C1046.6 42.8622 1046.82 42.6818 1046.98 42.4489C1047.13 42.2159 1047.21 41.9432 1047.22 41.6307C1047.21 41.3011 1047.13 41.0099 1046.96 40.7571C1046.79 40.5043 1046.56 40.3054 1046.28 40.1605C1045.99 40.0156 1045.66 39.9432 1045.29 39.9432C1044.92 39.9432 1044.59 40.0156 1044.29 40.1605C1044 40.3054 1043.78 40.5043 1043.61 40.7571C1043.44 41.0099 1043.36 41.3011 1043.36 41.6307C1043.36 41.9432 1043.44 42.2159 1043.59 42.4489C1043.75 42.6818 1043.97 42.8622 1044.26 42.9901C1044.55 43.1179 1044.89 43.1818 1045.29 43.1818ZM1045.29 39.0398C1045.6 39.0398 1045.88 38.9773 1046.12 38.8523C1046.37 38.7273 1046.56 38.5526 1046.7 38.3281C1046.84 38.1037 1046.91 37.8409 1046.91 37.5398C1046.91 37.2443 1046.84 36.9872 1046.7 36.7685C1046.56 36.5469 1046.38 36.3764 1046.13 36.2571C1045.89 36.1349 1045.61 36.0739 1045.29 36.0739C1044.96 36.0739 1044.68 36.1349 1044.43 36.2571C1044.19 36.3764 1044 36.5469 1043.87 36.7685C1043.73 36.9872 1043.67 37.2443 1043.67 37.5398C1043.67 37.8409 1043.74 38.1037 1043.87 38.3281C1044.01 38.5526 1044.2 38.7273 1044.45 38.8523C1044.69 38.9773 1044.97 39.0398 1045.29 39.0398Z" fill="black"/>
<path d="M1140.44 35.2727V44H1139.38V36.3807H1139.33L1137.2 37.7955V36.7216L1139.38 35.2727H1140.44ZM1145.73 35.1534C1146.08 35.1562 1146.44 35.2244 1146.8 35.358C1147.16 35.4915 1147.49 35.7131 1147.78 36.0227C1148.08 36.3295 1148.31 36.7486 1148.49 37.2798C1148.67 37.8111 1148.76 38.4773 1148.76 39.2784C1148.76 40.054 1148.69 40.7429 1148.54 41.3452C1148.39 41.9446 1148.18 42.4503 1147.91 42.8622C1147.64 43.2741 1147.3 43.5866 1146.91 43.7997C1146.52 44.0128 1146.08 44.1193 1145.59 44.1193C1145.1 44.1193 1144.67 44.0227 1144.28 43.8295C1143.9 43.6335 1143.59 43.3622 1143.34 43.0156C1143.1 42.6662 1142.95 42.2614 1142.88 41.8011H1143.92C1144.01 42.2017 1144.2 42.5327 1144.48 42.794C1144.76 43.0526 1145.13 43.1818 1145.59 43.1818C1146.26 43.1818 1146.79 42.8878 1147.18 42.2997C1147.58 41.7116 1147.77 40.8807 1147.77 39.8068H1147.7C1147.54 40.0455 1147.36 40.2514 1147.14 40.4247C1146.92 40.598 1146.68 40.7315 1146.41 40.8253C1146.14 40.919 1145.86 40.9659 1145.56 40.9659C1145.06 40.9659 1144.6 40.8423 1144.18 40.5952C1143.77 40.3452 1143.43 40.0028 1143.18 39.5682C1142.94 39.1307 1142.81 38.6307 1142.81 38.0682C1142.81 37.5341 1142.93 37.0455 1143.17 36.6023C1143.41 36.1562 1143.75 35.8011 1144.18 35.5369C1144.62 35.2727 1145.14 35.1449 1145.73 35.1534ZM1145.73 36.0909C1145.37 36.0909 1145.05 36.1804 1144.76 36.3594C1144.48 36.5355 1144.25 36.7741 1144.08 37.0753C1143.92 37.3736 1143.83 37.7045 1143.83 38.0682C1143.83 38.4318 1143.91 38.7628 1144.07 39.0611C1144.24 39.3565 1144.46 39.5923 1144.73 39.7685C1145.02 39.9418 1145.33 40.0284 1145.69 40.0284C1145.96 40.0284 1146.21 39.9759 1146.45 39.8707C1146.68 39.7628 1146.88 39.6165 1147.06 39.4318C1147.23 39.2443 1147.37 39.0327 1147.47 38.7969C1147.57 38.5582 1147.62 38.3097 1147.62 38.0511C1147.62 37.7102 1147.54 37.3906 1147.37 37.0923C1147.21 36.794 1146.99 36.5526 1146.7 36.3679C1146.41 36.1832 1146.09 36.0909 1145.73 36.0909Z" fill="black"/>
<line x1="142.5" y1="49" x2="142.5" y2="99" stroke="black"/>
<line x1="242.5" y1="49" x2="242.5" y2="99" stroke="black"/>
<line x1="342.5" y1="49" x2="342.5" y2="99" stroke="black"/>
<line x1="342.5" y1="49" x2="342.5" y2="99" stroke="black"/>
<line x1="442.5" y1="49" x2="442.5" y2="99" stroke="black"/>
<line x1="542.5" y1="49" x2="542.5" y2="99" stroke="black"/>
<line x1="642.5" y1="49" x2="642.5" y2="99" stroke="black"/>
<line x1="742.5" y1="49" x2="742.5" y2="99" stroke="black"/>
<line x1="842.5" y1="49" x2="842.5" y2="99" stroke="black"/>
<line x1="942.5" y1="49" x2="942.5" y2="99" stroke="black"/>
<line x1="1042.5" y1="49" x2="1042.5" y2="99" stroke="black"/>
<line x1="1142.5" y1="49" x2="1142.5" y2="99" stroke="black"/>
<defs>
<linearGradient id="paint0_linear_5_116" x1="243" y1="89" x2="323" y2="89" gradientUnits="userSpaceOnUse">
<stop/>
<stop offset="0.630463"/>
<stop offset="1" stop-opacity="0"/>
</linearGradient>
<linearGradient id="paint1_linear_5_116" x1="343" y1="89" x2="423" y2="89" gradientUnits="userSpaceOnUse">
<stop/>
<stop offset="0.630463"/>
<stop offset="1" stop-opacity="0"/>
</linearGradient>
<linearGradient id="paint2_linear_5_116" x1="443" y1="89" x2="523" y2="89" gradientUnits="userSpaceOnUse">
<stop/>
<stop offset="0.630463"/>
<stop offset="1" stop-opacity="0"/>
</linearGradient>
<linearGradient id="paint3_linear_5_116" x1="543" y1="89" x2="623" y2="89" gradientUnits="userSpaceOnUse">
<stop/>
<stop offset="0.630463"/>
<stop offset="1" stop-opacity="0"/>
</linearGradient>
<linearGradient id="paint4_linear_5_116" x1="643" y1="89" x2="723" y2="89" gradientUnits="userSpaceOnUse">
<stop/>
<stop offset="0.630463"/>
<stop offset="1" stop-opacity="0"/>
</linearGradient>
<linearGradient id="paint5_linear_5_116" x1="743" y1="89" x2="823" y2="89" gradientUnits="userSpaceOnUse">
<stop/>
<stop offset="0.630463"/>
<stop offset="1" stop-opacity="0"/>
</linearGradient>
<linearGradient id="paint6_linear_5_116" x1="843" y1="89" x2="923" y2="89" gradientUnits="userSpaceOnUse">
<stop/>
<stop offset="0.630463"/>
<stop offset="1" stop-opacity="0"/>
</linearGradient>
<linearGradient id="paint7_linear_5_116" x1="943" y1="89" x2="1023" y2="89" gradientUnits="userSpaceOnUse">
<stop/>
<stop offset="0.630463"/>
<stop offset="1" stop-opacity="0"/>
</linearGradient>
<linearGradient id="paint8_linear_5_116" x1="1043" y1="89" x2="1123" y2="89" gradientUnits="userSpaceOnUse">
<stop/>
<stop offset="0.630463"/>
<stop offset="1" stop-opacity="0"/>
</linearGradient>
</defs>
</svg>
