<svg width="853" height="82" viewBox="0 0 853 82" fill="none" xmlns="http://www.w3.org/2000/svg">
<mask id="mask0_41_14" style="mask-type:alpha" maskUnits="userSpaceOnUse" x="27" y="45" width="80" height="10">
<rect x="27" y="45" width="80" height="10" fill="url(#paint0_linear_41_14)"/>
</mask>
<g mask="url(#mask0_41_14)">
<rect x="27" y="45" width="100" height="10" fill="#D9D9D9"/>
</g>
<mask id="mask1_41_14" style="mask-type:alpha" maskUnits="userSpaceOnUse" x="127" y="45" width="80" height="10">
<rect x="127" y="45" width="80" height="10" fill="url(#paint1_linear_41_14)"/>
</mask>
<g mask="url(#mask1_41_14)">
<rect x="127" y="45" width="100" height="10" fill="#D9D9D9"/>
</g>
<mask id="mask2_41_14" style="mask-type:alpha" maskUnits="userSpaceOnUse" x="227" y="45" width="80" height="10">
<rect x="227" y="45" width="80" height="10" fill="url(#paint2_linear_41_14)"/>
</mask>
<g mask="url(#mask2_41_14)">
<rect x="227" y="45" width="100" height="10" fill="#D9D9D9"/>
</g>
<mask id="mask3_41_14" style="mask-type:alpha" maskUnits="userSpaceOnUse" x="327" y="45" width="80" height="10">
<rect x="327" y="45" width="80" height="10" fill="url(#paint3_linear_41_14)"/>
</mask>
<g mask="url(#mask3_41_14)">
<rect x="327" y="45" width="100" height="10" fill="#D9D9D9"/>
</g>
<mask id="mask4_41_14" style="mask-type:alpha" maskUnits="userSpaceOnUse" x="427" y="45" width="80" height="10">
<rect x="427" y="45" width="80" height="10" fill="url(#paint4_linear_41_14)"/>
</mask>
<g mask="url(#mask4_41_14)">
<rect x="427" y="45" width="100" height="10" fill="#D9D9D9"/>
</g>
<mask id="mask5_41_14" style="mask-type:alpha" maskUnits="userSpaceOnUse" x="527" y="45" width="80" height="10">
<rect x="527" y="45" width="80" height="10" fill="url(#paint5_linear_41_14)"/>
</mask>
<g mask="url(#mask5_41_14)">
<rect x="527" y="45" width="100" height="10" fill="#D9D9D9"/>
</g>
<mask id="mask6_41_14" style="mask-type:alpha" maskUnits="userSpaceOnUse" x="627" y="45" width="80" height="10">
<rect x="627" y="45" width="80" height="10" fill="url(#paint6_linear_41_14)"/>
</mask>
<g mask="url(#mask6_41_14)">
<rect x="627" y="45" width="100" height="10" fill="#D9D9D9"/>
</g>
<mask id="mask7_41_14" style="mask-type:alpha" maskUnits="userSpaceOnUse" x="727" y="45" width="80" height="10">
<rect x="727" y="45" width="80" height="10" fill="url(#paint7_linear_41_14)"/>
</mask>
<g mask="url(#mask7_41_14)">
<rect x="727" y="45" width="100" height="10" fill="#D9D9D9"/>
</g>
<path opacity="0.5" d="M75.0213 30.0795C74.6463 30.0795 74.312 30.0152 74.0185 29.8864C73.7268 29.7576 73.4948 29.5786 73.3224 29.3494C73.152 29.1184 73.0592 28.8504 73.044 28.5455H73.7599C73.7751 28.733 73.8395 28.8949 73.9531 29.0312C74.0668 29.1657 74.2154 29.2699 74.3991 29.3438C74.5829 29.4176 74.7865 29.4545 75.0099 29.4545C75.2599 29.4545 75.4815 29.411 75.6747 29.3239C75.8679 29.2367 76.0194 29.1155 76.1293 28.9602C76.2391 28.8049 76.294 28.625 76.294 28.4205C76.294 28.2064 76.241 28.018 76.1349 27.8551C76.0289 27.6903 75.8736 27.5616 75.669 27.4688C75.4645 27.3759 75.2145 27.3295 74.919 27.3295H74.4531V26.7045H74.919C75.1501 26.7045 75.3527 26.6629 75.527 26.5795C75.7031 26.4962 75.8404 26.3788 75.9389 26.2273C76.0393 26.0758 76.0895 25.8977 76.0895 25.6932C76.0895 25.4962 76.0459 25.3248 75.9588 25.179C75.8717 25.0331 75.7486 24.9195 75.5895 24.8381C75.4323 24.7566 75.2467 24.7159 75.0327 24.7159C74.8319 24.7159 74.6425 24.7528 74.4645 24.8267C74.2884 24.8987 74.1444 25.0038 74.0327 25.142C73.9209 25.2784 73.8603 25.4432 73.8509 25.6364H73.169C73.1804 25.3314 73.2723 25.0644 73.4446 24.8352C73.617 24.6042 73.8423 24.4242 74.1207 24.2955C74.401 24.1667 74.7088 24.1023 75.044 24.1023C75.4039 24.1023 75.7126 24.1752 75.9702 24.321C76.2277 24.465 76.4257 24.6553 76.5639 24.892C76.7022 25.1288 76.7713 25.3845 76.7713 25.6591C76.7713 25.9867 76.6851 26.2661 76.5128 26.4972C76.3423 26.7282 76.1103 26.8883 75.8168 26.9773V27.0227C76.1842 27.0833 76.4711 27.2396 76.6776 27.4915C76.884 27.7415 76.9872 28.0511 76.9872 28.4205C76.9872 28.7367 76.901 29.0208 76.7287 29.2727C76.5582 29.5227 76.3253 29.7197 76.0298 29.8636C75.7344 30.0076 75.3982 30.0795 75.0213 30.0795ZM80.0469 30.0795C79.6188 30.0795 79.2543 29.9631 78.9531 29.7301C78.652 29.4953 78.4219 29.1553 78.2628 28.7102C78.1037 28.2633 78.0241 27.7235 78.0241 27.0909C78.0241 26.4621 78.1037 25.9252 78.2628 25.4801C78.4238 25.0331 78.6548 24.6922 78.956 24.4574C79.259 24.2206 79.6226 24.1023 80.0469 24.1023C80.4711 24.1023 80.8338 24.2206 81.1349 24.4574C81.438 24.6922 81.669 25.0331 81.8281 25.4801C81.9891 25.9252 82.0696 26.4621 82.0696 27.0909C82.0696 27.7235 81.9901 28.2633 81.831 28.7102C81.6719 29.1553 81.4418 29.4953 81.1406 29.7301C80.8395 29.9631 80.4749 30.0795 80.0469 30.0795ZM80.0469 29.4545C80.4711 29.4545 80.8007 29.25 81.0355 28.8409C81.2704 28.4318 81.3878 27.8485 81.3878 27.0909C81.3878 26.5871 81.3338 26.1581 81.2259 25.804C81.1198 25.4498 80.9664 25.1799 80.7656 24.9943C80.5668 24.8087 80.3272 24.7159 80.0469 24.7159C79.6264 24.7159 79.2978 24.9233 79.0611 25.3381C78.8243 25.7509 78.706 26.3352 78.706 27.0909C78.706 27.5947 78.759 28.0227 78.8651 28.375C78.9711 28.7273 79.1236 28.9953 79.3224 29.179C79.5232 29.3627 79.7647 29.4545 80.0469 29.4545Z" fill="black"/>
<path opacity="0.5" d="M174.021 30.0795C173.646 30.0795 173.312 30.0152 173.018 29.8864C172.727 29.7576 172.495 29.5786 172.322 29.3494C172.152 29.1184 172.059 28.8504 172.044 28.5455H172.76C172.775 28.733 172.839 28.8949 172.953 29.0312C173.067 29.1657 173.215 29.2699 173.399 29.3438C173.583 29.4176 173.786 29.4545 174.01 29.4545C174.26 29.4545 174.482 29.411 174.675 29.3239C174.868 29.2367 175.019 29.1155 175.129 28.9602C175.239 28.8049 175.294 28.625 175.294 28.4205C175.294 28.2064 175.241 28.018 175.135 27.8551C175.029 27.6903 174.874 27.5616 174.669 27.4688C174.464 27.3759 174.214 27.3295 173.919 27.3295H173.453V26.7045H173.919C174.15 26.7045 174.353 26.6629 174.527 26.5795C174.703 26.4962 174.84 26.3788 174.939 26.2273C175.039 26.0758 175.089 25.8977 175.089 25.6932C175.089 25.4962 175.046 25.3248 174.959 25.179C174.872 25.0331 174.749 24.9195 174.589 24.8381C174.432 24.7566 174.247 24.7159 174.033 24.7159C173.832 24.7159 173.643 24.7528 173.464 24.8267C173.288 24.8987 173.144 25.0038 173.033 25.142C172.921 25.2784 172.86 25.4432 172.851 25.6364H172.169C172.18 25.3314 172.272 25.0644 172.445 24.8352C172.617 24.6042 172.842 24.4242 173.121 24.2955C173.401 24.1667 173.709 24.1023 174.044 24.1023C174.404 24.1023 174.713 24.1752 174.97 24.321C175.228 24.465 175.426 24.6553 175.564 24.892C175.702 25.1288 175.771 25.3845 175.771 25.6591C175.771 25.9867 175.685 26.2661 175.513 26.4972C175.342 26.7282 175.11 26.8883 174.817 26.9773V27.0227C175.184 27.0833 175.471 27.2396 175.678 27.4915C175.884 27.7415 175.987 28.0511 175.987 28.4205C175.987 28.7367 175.901 29.0208 175.729 29.2727C175.558 29.5227 175.325 29.7197 175.03 29.8636C174.734 30.0076 174.398 30.0795 174.021 30.0795ZM179.047 30.0795C178.619 30.0795 178.254 29.9631 177.953 29.7301C177.652 29.4953 177.422 29.1553 177.263 28.7102C177.104 28.2633 177.024 27.7235 177.024 27.0909C177.024 26.4621 177.104 25.9252 177.263 25.4801C177.424 25.0331 177.655 24.6922 177.956 24.4574C178.259 24.2206 178.623 24.1023 179.047 24.1023C179.471 24.1023 179.834 24.2206 180.135 24.4574C180.438 24.6922 180.669 25.0331 180.828 25.4801C180.989 25.9252 181.07 26.4621 181.07 27.0909C181.07 27.7235 180.99 28.2633 180.831 28.7102C180.672 29.1553 180.442 29.4953 180.141 29.7301C179.839 29.9631 179.475 30.0795 179.047 30.0795ZM179.047 29.4545C179.471 29.4545 179.801 29.25 180.036 28.8409C180.27 28.4318 180.388 27.8485 180.388 27.0909C180.388 26.5871 180.334 26.1581 180.226 25.804C180.12 25.4498 179.966 25.1799 179.766 24.9943C179.567 24.8087 179.327 24.7159 179.047 24.7159C178.626 24.7159 178.298 24.9233 178.061 25.3381C177.824 25.7509 177.706 26.3352 177.706 27.0909C177.706 27.5947 177.759 28.0227 177.865 28.375C177.971 28.7273 178.124 28.9953 178.322 29.179C178.523 29.3627 178.765 29.4545 179.047 29.4545Z" fill="black"/>
<path opacity="0.5" d="M274.021 30.0795C273.646 30.0795 273.312 30.0152 273.018 29.8864C272.727 29.7576 272.495 29.5786 272.322 29.3494C272.152 29.1184 272.059 28.8504 272.044 28.5455H272.76C272.775 28.733 272.839 28.8949 272.953 29.0312C273.067 29.1657 273.215 29.2699 273.399 29.3438C273.583 29.4176 273.786 29.4545 274.01 29.4545C274.26 29.4545 274.482 29.411 274.675 29.3239C274.868 29.2367 275.019 29.1155 275.129 28.9602C275.239 28.8049 275.294 28.625 275.294 28.4205C275.294 28.2064 275.241 28.018 275.135 27.8551C275.029 27.6903 274.874 27.5616 274.669 27.4688C274.464 27.3759 274.214 27.3295 273.919 27.3295H273.453V26.7045H273.919C274.15 26.7045 274.353 26.6629 274.527 26.5795C274.703 26.4962 274.84 26.3788 274.939 26.2273C275.039 26.0758 275.089 25.8977 275.089 25.6932C275.089 25.4962 275.046 25.3248 274.959 25.179C274.872 25.0331 274.749 24.9195 274.589 24.8381C274.432 24.7566 274.247 24.7159 274.033 24.7159C273.832 24.7159 273.643 24.7528 273.464 24.8267C273.288 24.8987 273.144 25.0038 273.033 25.142C272.921 25.2784 272.86 25.4432 272.851 25.6364H272.169C272.18 25.3314 272.272 25.0644 272.445 24.8352C272.617 24.6042 272.842 24.4242 273.121 24.2955C273.401 24.1667 273.709 24.1023 274.044 24.1023C274.404 24.1023 274.713 24.1752 274.97 24.321C275.228 24.465 275.426 24.6553 275.564 24.892C275.702 25.1288 275.771 25.3845 275.771 25.6591C275.771 25.9867 275.685 26.2661 275.513 26.4972C275.342 26.7282 275.11 26.8883 274.817 26.9773V27.0227C275.184 27.0833 275.471 27.2396 275.678 27.4915C275.884 27.7415 275.987 28.0511 275.987 28.4205C275.987 28.7367 275.901 29.0208 275.729 29.2727C275.558 29.5227 275.325 29.7197 275.03 29.8636C274.734 30.0076 274.398 30.0795 274.021 30.0795ZM279.047 30.0795C278.619 30.0795 278.254 29.9631 277.953 29.7301C277.652 29.4953 277.422 29.1553 277.263 28.7102C277.104 28.2633 277.024 27.7235 277.024 27.0909C277.024 26.4621 277.104 25.9252 277.263 25.4801C277.424 25.0331 277.655 24.6922 277.956 24.4574C278.259 24.2206 278.623 24.1023 279.047 24.1023C279.471 24.1023 279.834 24.2206 280.135 24.4574C280.438 24.6922 280.669 25.0331 280.828 25.4801C280.989 25.9252 281.07 26.4621 281.07 27.0909C281.07 27.7235 280.99 28.2633 280.831 28.7102C280.672 29.1553 280.442 29.4953 280.141 29.7301C279.839 29.9631 279.475 30.0795 279.047 30.0795ZM279.047 29.4545C279.471 29.4545 279.801 29.25 280.036 28.8409C280.27 28.4318 280.388 27.8485 280.388 27.0909C280.388 26.5871 280.334 26.1581 280.226 25.804C280.12 25.4498 279.966 25.1799 279.766 24.9943C279.567 24.8087 279.327 24.7159 279.047 24.7159C278.626 24.7159 278.298 24.9233 278.061 25.3381C277.824 25.7509 277.706 26.3352 277.706 27.0909C277.706 27.5947 277.759 28.0227 277.865 28.375C277.971 28.7273 278.124 28.9953 278.322 29.179C278.523 29.3627 278.765 29.4545 279.047 29.4545Z" fill="black"/>
<path opacity="0.5" d="M375.021 30.0795C374.646 30.0795 374.312 30.0152 374.018 29.8864C373.727 29.7576 373.495 29.5786 373.322 29.3494C373.152 29.1184 373.059 28.8504 373.044 28.5455H373.76C373.775 28.733 373.839 28.8949 373.953 29.0312C374.067 29.1657 374.215 29.2699 374.399 29.3438C374.583 29.4176 374.786 29.4545 375.01 29.4545C375.26 29.4545 375.482 29.411 375.675 29.3239C375.868 29.2367 376.019 29.1155 376.129 28.9602C376.239 28.8049 376.294 28.625 376.294 28.4205C376.294 28.2064 376.241 28.018 376.135 27.8551C376.029 27.6903 375.874 27.5616 375.669 27.4688C375.464 27.3759 375.214 27.3295 374.919 27.3295H374.453V26.7045H374.919C375.15 26.7045 375.353 26.6629 375.527 26.5795C375.703 26.4962 375.84 26.3788 375.939 26.2273C376.039 26.0758 376.089 25.8977 376.089 25.6932C376.089 25.4962 376.046 25.3248 375.959 25.179C375.872 25.0331 375.749 24.9195 375.589 24.8381C375.432 24.7566 375.247 24.7159 375.033 24.7159C374.832 24.7159 374.643 24.7528 374.464 24.8267C374.288 24.8987 374.144 25.0038 374.033 25.142C373.921 25.2784 373.86 25.4432 373.851 25.6364H373.169C373.18 25.3314 373.272 25.0644 373.445 24.8352C373.617 24.6042 373.842 24.4242 374.121 24.2955C374.401 24.1667 374.709 24.1023 375.044 24.1023C375.404 24.1023 375.713 24.1752 375.97 24.321C376.228 24.465 376.426 24.6553 376.564 24.892C376.702 25.1288 376.771 25.3845 376.771 25.6591C376.771 25.9867 376.685 26.2661 376.513 26.4972C376.342 26.7282 376.11 26.8883 375.817 26.9773V27.0227C376.184 27.0833 376.471 27.2396 376.678 27.4915C376.884 27.7415 376.987 28.0511 376.987 28.4205C376.987 28.7367 376.901 29.0208 376.729 29.2727C376.558 29.5227 376.325 29.7197 376.03 29.8636C375.734 30.0076 375.398 30.0795 375.021 30.0795ZM380.047 30.0795C379.619 30.0795 379.254 29.9631 378.953 29.7301C378.652 29.4953 378.422 29.1553 378.263 28.7102C378.104 28.2633 378.024 27.7235 378.024 27.0909C378.024 26.4621 378.104 25.9252 378.263 25.4801C378.424 25.0331 378.655 24.6922 378.956 24.4574C379.259 24.2206 379.623 24.1023 380.047 24.1023C380.471 24.1023 380.834 24.2206 381.135 24.4574C381.438 24.6922 381.669 25.0331 381.828 25.4801C381.989 25.9252 382.07 26.4621 382.07 27.0909C382.07 27.7235 381.99 28.2633 381.831 28.7102C381.672 29.1553 381.442 29.4953 381.141 29.7301C380.839 29.9631 380.475 30.0795 380.047 30.0795ZM380.047 29.4545C380.471 29.4545 380.801 29.25 381.036 28.8409C381.27 28.4318 381.388 27.8485 381.388 27.0909C381.388 26.5871 381.334 26.1581 381.226 25.804C381.12 25.4498 380.966 25.1799 380.766 24.9943C380.567 24.8087 380.327 24.7159 380.047 24.7159C379.626 24.7159 379.298 24.9233 379.061 25.3381C378.824 25.7509 378.706 26.3352 378.706 27.0909C378.706 27.5947 378.759 28.0227 378.865 28.375C378.971 28.7273 379.124 28.9953 379.322 29.179C379.523 29.3627 379.765 29.4545 380.047 29.4545Z" fill="black"/>
<path opacity="0.5" d="M475.021 30.0795C474.646 30.0795 474.312 30.0152 474.018 29.8864C473.727 29.7576 473.495 29.5786 473.322 29.3494C473.152 29.1184 473.059 28.8504 473.044 28.5455H473.76C473.775 28.733 473.839 28.8949 473.953 29.0312C474.067 29.1657 474.215 29.2699 474.399 29.3438C474.583 29.4176 474.786 29.4545 475.01 29.4545C475.26 29.4545 475.482 29.411 475.675 29.3239C475.868 29.2367 476.019 29.1155 476.129 28.9602C476.239 28.8049 476.294 28.625 476.294 28.4205C476.294 28.2064 476.241 28.018 476.135 27.8551C476.029 27.6903 475.874 27.5616 475.669 27.4688C475.464 27.3759 475.214 27.3295 474.919 27.3295H474.453V26.7045H474.919C475.15 26.7045 475.353 26.6629 475.527 26.5795C475.703 26.4962 475.84 26.3788 475.939 26.2273C476.039 26.0758 476.089 25.8977 476.089 25.6932C476.089 25.4962 476.046 25.3248 475.959 25.179C475.872 25.0331 475.749 24.9195 475.589 24.8381C475.432 24.7566 475.247 24.7159 475.033 24.7159C474.832 24.7159 474.643 24.7528 474.464 24.8267C474.288 24.8987 474.144 25.0038 474.033 25.142C473.921 25.2784 473.86 25.4432 473.851 25.6364H473.169C473.18 25.3314 473.272 25.0644 473.445 24.8352C473.617 24.6042 473.842 24.4242 474.121 24.2955C474.401 24.1667 474.709 24.1023 475.044 24.1023C475.404 24.1023 475.713 24.1752 475.97 24.321C476.228 24.465 476.426 24.6553 476.564 24.892C476.702 25.1288 476.771 25.3845 476.771 25.6591C476.771 25.9867 476.685 26.2661 476.513 26.4972C476.342 26.7282 476.11 26.8883 475.817 26.9773V27.0227C476.184 27.0833 476.471 27.2396 476.678 27.4915C476.884 27.7415 476.987 28.0511 476.987 28.4205C476.987 28.7367 476.901 29.0208 476.729 29.2727C476.558 29.5227 476.325 29.7197 476.03 29.8636C475.734 30.0076 475.398 30.0795 475.021 30.0795ZM480.047 30.0795C479.619 30.0795 479.254 29.9631 478.953 29.7301C478.652 29.4953 478.422 29.1553 478.263 28.7102C478.104 28.2633 478.024 27.7235 478.024 27.0909C478.024 26.4621 478.104 25.9252 478.263 25.4801C478.424 25.0331 478.655 24.6922 478.956 24.4574C479.259 24.2206 479.623 24.1023 480.047 24.1023C480.471 24.1023 480.834 24.2206 481.135 24.4574C481.438 24.6922 481.669 25.0331 481.828 25.4801C481.989 25.9252 482.07 26.4621 482.07 27.0909C482.07 27.7235 481.99 28.2633 481.831 28.7102C481.672 29.1553 481.442 29.4953 481.141 29.7301C480.839 29.9631 480.475 30.0795 480.047 30.0795ZM480.047 29.4545C480.471 29.4545 480.801 29.25 481.036 28.8409C481.27 28.4318 481.388 27.8485 481.388 27.0909C481.388 26.5871 481.334 26.1581 481.226 25.804C481.12 25.4498 480.966 25.1799 480.766 24.9943C480.567 24.8087 480.327 24.7159 480.047 24.7159C479.626 24.7159 479.298 24.9233 479.061 25.3381C478.824 25.7509 478.706 26.3352 478.706 27.0909C478.706 27.5947 478.759 28.0227 478.865 28.375C478.971 28.7273 479.124 28.9953 479.322 29.179C479.523 29.3627 479.765 29.4545 480.047 29.4545Z" fill="black"/>
<path opacity="0.5" d="M575.021 30.0795C574.646 30.0795 574.312 30.0152 574.018 29.8864C573.727 29.7576 573.495 29.5786 573.322 29.3494C573.152 29.1184 573.059 28.8504 573.044 28.5455H573.76C573.775 28.733 573.839 28.8949 573.953 29.0312C574.067 29.1657 574.215 29.2699 574.399 29.3438C574.583 29.4176 574.786 29.4545 575.01 29.4545C575.26 29.4545 575.482 29.411 575.675 29.3239C575.868 29.2367 576.019 29.1155 576.129 28.9602C576.239 28.8049 576.294 28.625 576.294 28.4205C576.294 28.2064 576.241 28.018 576.135 27.8551C576.029 27.6903 575.874 27.5616 575.669 27.4688C575.464 27.3759 575.214 27.3295 574.919 27.3295H574.453V26.7045H574.919C575.15 26.7045 575.353 26.6629 575.527 26.5795C575.703 26.4962 575.84 26.3788 575.939 26.2273C576.039 26.0758 576.089 25.8977 576.089 25.6932C576.089 25.4962 576.046 25.3248 575.959 25.179C575.872 25.0331 575.749 24.9195 575.589 24.8381C575.432 24.7566 575.247 24.7159 575.033 24.7159C574.832 24.7159 574.643 24.7528 574.464 24.8267C574.288 24.8987 574.144 25.0038 574.033 25.142C573.921 25.2784 573.86 25.4432 573.851 25.6364H573.169C573.18 25.3314 573.272 25.0644 573.445 24.8352C573.617 24.6042 573.842 24.4242 574.121 24.2955C574.401 24.1667 574.709 24.1023 575.044 24.1023C575.404 24.1023 575.713 24.1752 575.97 24.321C576.228 24.465 576.426 24.6553 576.564 24.892C576.702 25.1288 576.771 25.3845 576.771 25.6591C576.771 25.9867 576.685 26.2661 576.513 26.4972C576.342 26.7282 576.11 26.8883 575.817 26.9773V27.0227C576.184 27.0833 576.471 27.2396 576.678 27.4915C576.884 27.7415 576.987 28.0511 576.987 28.4205C576.987 28.7367 576.901 29.0208 576.729 29.2727C576.558 29.5227 576.325 29.7197 576.03 29.8636C575.734 30.0076 575.398 30.0795 575.021 30.0795ZM580.047 30.0795C579.619 30.0795 579.254 29.9631 578.953 29.7301C578.652 29.4953 578.422 29.1553 578.263 28.7102C578.104 28.2633 578.024 27.7235 578.024 27.0909C578.024 26.4621 578.104 25.9252 578.263 25.4801C578.424 25.0331 578.655 24.6922 578.956 24.4574C579.259 24.2206 579.623 24.1023 580.047 24.1023C580.471 24.1023 580.834 24.2206 581.135 24.4574C581.438 24.6922 581.669 25.0331 581.828 25.4801C581.989 25.9252 582.07 26.4621 582.07 27.0909C582.07 27.7235 581.99 28.2633 581.831 28.7102C581.672 29.1553 581.442 29.4953 581.141 29.7301C580.839 29.9631 580.475 30.0795 580.047 30.0795ZM580.047 29.4545C580.471 29.4545 580.801 29.25 581.036 28.8409C581.27 28.4318 581.388 27.8485 581.388 27.0909C581.388 26.5871 581.334 26.1581 581.226 25.804C581.12 25.4498 580.966 25.1799 580.766 24.9943C580.567 24.8087 580.327 24.7159 580.047 24.7159C579.626 24.7159 579.298 24.9233 579.061 25.3381C578.824 25.7509 578.706 26.3352 578.706 27.0909C578.706 27.5947 578.759 28.0227 578.865 28.375C578.971 28.7273 579.124 28.9953 579.322 29.179C579.523 29.3627 579.765 29.4545 580.047 29.4545Z" fill="black"/>
<path opacity="0.5" d="M675.021 30.0795C674.646 30.0795 674.312 30.0152 674.018 29.8864C673.727 29.7576 673.495 29.5786 673.322 29.3494C673.152 29.1184 673.059 28.8504 673.044 28.5455H673.76C673.775 28.733 673.839 28.8949 673.953 29.0312C674.067 29.1657 674.215 29.2699 674.399 29.3438C674.583 29.4176 674.786 29.4545 675.01 29.4545C675.26 29.4545 675.482 29.411 675.675 29.3239C675.868 29.2367 676.019 29.1155 676.129 28.9602C676.239 28.8049 676.294 28.625 676.294 28.4205C676.294 28.2064 676.241 28.018 676.135 27.8551C676.029 27.6903 675.874 27.5616 675.669 27.4688C675.464 27.3759 675.214 27.3295 674.919 27.3295H674.453V26.7045H674.919C675.15 26.7045 675.353 26.6629 675.527 26.5795C675.703 26.4962 675.84 26.3788 675.939 26.2273C676.039 26.0758 676.089 25.8977 676.089 25.6932C676.089 25.4962 676.046 25.3248 675.959 25.179C675.872 25.0331 675.749 24.9195 675.589 24.8381C675.432 24.7566 675.247 24.7159 675.033 24.7159C674.832 24.7159 674.643 24.7528 674.464 24.8267C674.288 24.8987 674.144 25.0038 674.033 25.142C673.921 25.2784 673.86 25.4432 673.851 25.6364H673.169C673.18 25.3314 673.272 25.0644 673.445 24.8352C673.617 24.6042 673.842 24.4242 674.121 24.2955C674.401 24.1667 674.709 24.1023 675.044 24.1023C675.404 24.1023 675.713 24.1752 675.97 24.321C676.228 24.465 676.426 24.6553 676.564 24.892C676.702 25.1288 676.771 25.3845 676.771 25.6591C676.771 25.9867 676.685 26.2661 676.513 26.4972C676.342 26.7282 676.11 26.8883 675.817 26.9773V27.0227C676.184 27.0833 676.471 27.2396 676.678 27.4915C676.884 27.7415 676.987 28.0511 676.987 28.4205C676.987 28.7367 676.901 29.0208 676.729 29.2727C676.558 29.5227 676.325 29.7197 676.03 29.8636C675.734 30.0076 675.398 30.0795 675.021 30.0795ZM680.047 30.0795C679.619 30.0795 679.254 29.9631 678.953 29.7301C678.652 29.4953 678.422 29.1553 678.263 28.7102C678.104 28.2633 678.024 27.7235 678.024 27.0909C678.024 26.4621 678.104 25.9252 678.263 25.4801C678.424 25.0331 678.655 24.6922 678.956 24.4574C679.259 24.2206 679.623 24.1023 680.047 24.1023C680.471 24.1023 680.834 24.2206 681.135 24.4574C681.438 24.6922 681.669 25.0331 681.828 25.4801C681.989 25.9252 682.07 26.4621 682.07 27.0909C682.07 27.7235 681.99 28.2633 681.831 28.7102C681.672 29.1553 681.442 29.4953 681.141 29.7301C680.839 29.9631 680.475 30.0795 680.047 30.0795ZM680.047 29.4545C680.471 29.4545 680.801 29.25 681.036 28.8409C681.27 28.4318 681.388 27.8485 681.388 27.0909C681.388 26.5871 681.334 26.1581 681.226 25.804C681.12 25.4498 680.966 25.1799 680.766 24.9943C680.567 24.8087 680.327 24.7159 680.047 24.7159C679.626 24.7159 679.298 24.9233 679.061 25.3381C678.824 25.7509 678.706 26.3352 678.706 27.0909C678.706 27.5947 678.759 28.0227 678.865 28.375C678.971 28.7273 679.124 28.9953 679.322 29.179C679.523 29.3627 679.765 29.4545 680.047 29.4545Z" fill="black"/>
<path opacity="0.5" d="M774.021 30.0795C773.646 30.0795 773.312 30.0152 773.018 29.8864C772.727 29.7576 772.495 29.5786 772.322 29.3494C772.152 29.1184 772.059 28.8504 772.044 28.5455H772.76C772.775 28.733 772.839 28.8949 772.953 29.0312C773.067 29.1657 773.215 29.2699 773.399 29.3438C773.583 29.4176 773.786 29.4545 774.01 29.4545C774.26 29.4545 774.482 29.411 774.675 29.3239C774.868 29.2367 775.019 29.1155 775.129 28.9602C775.239 28.8049 775.294 28.625 775.294 28.4205C775.294 28.2064 775.241 28.018 775.135 27.8551C775.029 27.6903 774.874 27.5616 774.669 27.4688C774.464 27.3759 774.214 27.3295 773.919 27.3295H773.453V26.7045H773.919C774.15 26.7045 774.353 26.6629 774.527 26.5795C774.703 26.4962 774.84 26.3788 774.939 26.2273C775.039 26.0758 775.089 25.8977 775.089 25.6932C775.089 25.4962 775.046 25.3248 774.959 25.179C774.872 25.0331 774.749 24.9195 774.589 24.8381C774.432 24.7566 774.247 24.7159 774.033 24.7159C773.832 24.7159 773.643 24.7528 773.464 24.8267C773.288 24.8987 773.144 25.0038 773.033 25.142C772.921 25.2784 772.86 25.4432 772.851 25.6364H772.169C772.18 25.3314 772.272 25.0644 772.445 24.8352C772.617 24.6042 772.842 24.4242 773.121 24.2955C773.401 24.1667 773.709 24.1023 774.044 24.1023C774.404 24.1023 774.713 24.1752 774.97 24.321C775.228 24.465 775.426 24.6553 775.564 24.892C775.702 25.1288 775.771 25.3845 775.771 25.6591C775.771 25.9867 775.685 26.2661 775.513 26.4972C775.342 26.7282 775.11 26.8883 774.817 26.9773V27.0227C775.184 27.0833 775.471 27.2396 775.678 27.4915C775.884 27.7415 775.987 28.0511 775.987 28.4205C775.987 28.7367 775.901 29.0208 775.729 29.2727C775.558 29.5227 775.325 29.7197 775.03 29.8636C774.734 30.0076 774.398 30.0795 774.021 30.0795ZM779.047 30.0795C778.619 30.0795 778.254 29.9631 777.953 29.7301C777.652 29.4953 777.422 29.1553 777.263 28.7102C777.104 28.2633 777.024 27.7235 777.024 27.0909C777.024 26.4621 777.104 25.9252 777.263 25.4801C777.424 25.0331 777.655 24.6922 777.956 24.4574C778.259 24.2206 778.623 24.1023 779.047 24.1023C779.471 24.1023 779.834 24.2206 780.135 24.4574C780.438 24.6922 780.669 25.0331 780.828 25.4801C780.989 25.9252 781.07 26.4621 781.07 27.0909C781.07 27.7235 780.99 28.2633 780.831 28.7102C780.672 29.1553 780.442 29.4953 780.141 29.7301C779.839 29.9631 779.475 30.0795 779.047 30.0795ZM779.047 29.4545C779.471 29.4545 779.801 29.25 780.036 28.8409C780.27 28.4318 780.388 27.8485 780.388 27.0909C780.388 26.5871 780.334 26.1581 780.226 25.804C780.12 25.4498 779.966 25.1799 779.766 24.9943C779.567 24.8087 779.327 24.7159 779.047 24.7159C778.626 24.7159 778.298 24.9233 778.061 25.3381C777.824 25.7509 777.706 26.3352 777.706 27.0909C777.706 27.5947 777.759 28.0227 777.865 28.375C777.971 28.7273 778.124 28.9953 778.322 29.179C778.523 29.3627 778.765 29.4545 779.047 29.4545Z" fill="black"/>
<path d="M24.4325 23.2727V32H23.3757V24.3807H23.3246L21.1939 25.7955V24.7216L23.3757 23.2727H24.4325ZM29.7891 32.1193C29.147 32.1193 28.6001 31.9446 28.1484 31.5952C27.6967 31.2429 27.3516 30.733 27.1129 30.0653C26.8743 29.3949 26.755 28.5852 26.755 27.6364C26.755 26.6932 26.8743 25.8878 27.1129 25.2202C27.3544 24.5497 27.701 24.0384 28.1527 23.6861C28.6072 23.331 29.1527 23.1534 29.7891 23.1534C30.4254 23.1534 30.9695 23.331 31.4212 23.6861C31.8757 24.0384 32.2223 24.5497 32.4609 25.2202C32.7024 25.8878 32.8232 26.6932 32.8232 27.6364C32.8232 28.5852 32.7038 29.3949 32.4652 30.0653C32.2266 30.733 31.8814 31.2429 31.4297 31.5952C30.978 31.9446 30.4311 32.1193 29.7891 32.1193ZM29.7891 31.1818C30.4254 31.1818 30.9197 30.875 31.272 30.2614C31.6243 29.6477 31.8004 28.7727 31.8004 27.6364C31.8004 26.8807 31.7195 26.2372 31.5575 25.706C31.3984 25.1747 31.1683 24.7699 30.8672 24.4915C30.5689 24.2131 30.2095 24.0739 29.7891 24.0739C29.1584 24.0739 28.6655 24.3849 28.3104 25.0071C27.9553 25.6264 27.7777 26.5028 27.7777 27.6364C27.7777 28.392 27.8572 29.0341 28.0163 29.5625C28.1754 30.0909 28.4041 30.4929 28.7024 30.7685C29.0036 31.044 29.3658 31.1818 29.7891 31.1818Z" fill="black"/>
<path d="M125.393 23.2727V32H124.337V24.3807H124.286L122.155 25.7955V24.7216L124.337 23.2727H125.393ZM130.972 23.2727V32H129.915V24.3807H129.864L127.733 25.7955V24.7216L129.915 23.2727H130.972Z" fill="black"/>
<path d="M224.05 23.2727V32H222.993V24.3807H222.942L220.811 25.7955V24.7216L222.993 23.2727H224.05ZM226.56 32V31.233L229.44 28.0795C229.778 27.7102 230.057 27.3892 230.276 27.1165C230.494 26.8409 230.656 26.5824 230.761 26.3409C230.869 26.0966 230.923 25.8409 230.923 25.5739C230.923 25.267 230.849 25.0014 230.702 24.777C230.557 24.5526 230.358 24.3793 230.105 24.2571C229.852 24.1349 229.568 24.0739 229.253 24.0739C228.918 24.0739 228.625 24.1435 228.375 24.2827C228.128 24.419 227.936 24.6108 227.8 24.858C227.666 25.1051 227.599 25.3949 227.599 25.7273H226.594C226.594 25.2159 226.712 24.767 226.947 24.3807C227.183 23.9943 227.504 23.6932 227.911 23.4773C228.32 23.2614 228.778 23.1534 229.287 23.1534C229.798 23.1534 230.251 23.2614 230.646 23.4773C231.041 23.6932 231.351 23.9844 231.575 24.3509C231.8 24.7173 231.912 25.125 231.912 25.5739C231.912 25.8949 231.854 26.2088 231.737 26.5156C231.624 26.8196 231.425 27.1591 231.141 27.5341C230.859 27.9062 230.469 28.3608 229.969 28.8977L228.009 30.9943V31.0625H232.065V32H226.56Z" fill="black"/>
<path d="M324.362 23.2727V32H323.305V24.3807H323.254L321.124 25.7955V24.7216L323.305 23.2727H324.362ZM329.821 32.1193C329.259 32.1193 328.757 32.0227 328.317 31.8295C327.879 31.6364 327.531 31.3679 327.273 31.0241C327.017 30.6776 326.878 30.2756 326.855 29.8182H327.929C327.952 30.0994 328.048 30.3423 328.219 30.5469C328.389 30.7486 328.612 30.9048 328.888 31.0156C329.163 31.1264 329.469 31.1818 329.804 31.1818C330.179 31.1818 330.511 31.1165 330.801 30.9858C331.091 30.8551 331.318 30.6733 331.483 30.4403C331.648 30.2074 331.73 29.9375 331.73 29.6307C331.73 29.3097 331.651 29.027 331.491 28.7827C331.332 28.5355 331.099 28.3423 330.793 28.2031C330.486 28.0639 330.111 27.9943 329.668 27.9943H328.969V27.0568H329.668C330.014 27.0568 330.318 26.9943 330.58 26.8693C330.844 26.7443 331.05 26.5682 331.197 26.3409C331.348 26.1136 331.423 25.8466 331.423 25.5398C331.423 25.2443 331.358 24.9872 331.227 24.7685C331.097 24.5497 330.912 24.3793 330.673 24.2571C330.438 24.1349 330.159 24.0739 329.838 24.0739C329.537 24.0739 329.253 24.1293 328.986 24.2401C328.722 24.348 328.506 24.5057 328.338 24.7131C328.17 24.9176 328.08 25.1648 328.065 25.4545H327.043C327.06 24.9972 327.197 24.5966 327.456 24.2528C327.714 23.9062 328.053 23.6364 328.47 23.4432C328.891 23.25 329.352 23.1534 329.855 23.1534C330.395 23.1534 330.858 23.2628 331.244 23.4815C331.631 23.6974 331.928 23.983 332.135 24.3381C332.342 24.6932 332.446 25.0767 332.446 25.4886C332.446 25.9801 332.317 26.3991 332.058 26.7457C331.803 27.0923 331.455 27.3324 331.014 27.4659V27.5341C331.565 27.625 331.996 27.8594 332.305 28.2372C332.615 28.6122 332.77 29.0767 332.77 29.6307C332.77 30.1051 332.641 30.5312 332.382 30.9091C332.126 31.2841 331.777 31.5795 331.334 31.7955C330.891 32.0114 330.386 32.1193 329.821 32.1193Z" fill="black"/>
<path d="M425.333 23.2727V32H424.276V24.3807H424.225L422.094 25.7955V24.7216L424.276 23.2727H425.333ZM427.638 30.2102V29.3409L431.474 23.2727H432.104V24.6193H431.678L428.78 29.2045V29.2727H433.945V30.2102H427.638ZM431.746 32V29.946V29.5412V23.2727H432.752V32H431.746Z" fill="black"/>
<path d="M525.032 23.2727V32H523.975V24.3807H523.924L521.794 25.7955V24.7216L523.975 23.2727H525.032ZM530.269 32.1193C529.769 32.1193 529.319 32.0199 528.919 31.821C528.518 31.6222 528.197 31.3494 527.955 31.0028C527.714 30.6562 527.582 30.2614 527.559 29.8182H528.582C528.622 30.2131 528.801 30.5398 529.119 30.7983C529.44 31.054 529.823 31.1818 530.269 31.1818C530.627 31.1818 530.945 31.098 531.224 30.9304C531.505 30.7628 531.725 30.5327 531.884 30.2401C532.046 29.9446 532.127 29.6108 532.127 29.2386C532.127 28.858 532.044 28.5185 531.876 28.2202C531.711 27.919 531.484 27.6818 531.194 27.5085C530.904 27.3352 530.573 27.2472 530.201 27.2443C529.934 27.2415 529.66 27.2827 529.379 27.3679C529.097 27.4503 528.866 27.5568 528.684 27.6875L527.695 27.5682L528.224 23.2727H532.758V24.2102H529.11L528.803 26.7841H528.855C529.034 26.642 529.258 26.5241 529.528 26.4304C529.798 26.3366 530.079 26.2898 530.372 26.2898C530.906 26.2898 531.382 26.4176 531.799 26.6733C532.22 26.9261 532.549 27.2727 532.788 27.7131C533.029 28.1534 533.15 28.6562 533.15 29.2216C533.15 29.7784 533.025 30.2756 532.775 30.7131C532.528 31.1477 532.187 31.4915 531.752 31.7443C531.318 31.9943 530.823 32.1193 530.269 32.1193Z" fill="black"/>
<path d="M625.438 23.2727V32H624.382V24.3807H624.33L622.2 25.7955V24.7216L624.382 23.2727H625.438ZM630.846 32.1193C630.488 32.1136 630.13 32.0455 629.772 31.9148C629.414 31.7841 629.088 31.5639 628.792 31.2543C628.497 30.9418 628.259 30.5199 628.08 29.9886C627.901 29.4545 627.812 28.7841 627.812 27.9773C627.812 27.2045 627.884 26.5199 628.029 25.9233C628.174 25.3239 628.384 24.8196 628.66 24.4105C628.936 23.9986 629.268 23.6861 629.657 23.473C630.049 23.2599 630.491 23.1534 630.982 23.1534C631.471 23.1534 631.906 23.2514 632.286 23.4474C632.67 23.6406 632.982 23.9105 633.224 24.2571C633.465 24.6037 633.622 25.0028 633.693 25.4545H632.653C632.556 25.0625 632.369 24.7372 632.09 24.4787C631.812 24.2202 631.443 24.0909 630.982 24.0909C630.306 24.0909 629.774 24.3849 629.384 24.973C628.998 25.5611 628.803 26.3864 628.801 27.4489H628.869C629.028 27.2074 629.217 27.0014 629.436 26.831C629.657 26.6577 629.901 26.5241 630.169 26.4304C630.436 26.3366 630.718 26.2898 631.017 26.2898C631.517 26.2898 631.974 26.4148 632.389 26.6648C632.803 26.9119 633.136 27.2543 633.386 27.6918C633.636 28.1264 633.761 28.625 633.761 29.1875C633.761 29.7273 633.64 30.2216 633.399 30.6705C633.157 31.1165 632.818 31.4716 632.38 31.7358C631.945 31.9972 631.434 32.125 630.846 32.1193ZM630.846 31.1818C631.204 31.1818 631.525 31.0923 631.809 30.9134C632.096 30.7344 632.322 30.4943 632.487 30.1932C632.654 29.892 632.738 29.5568 632.738 29.1875C632.738 28.8267 632.657 28.4986 632.495 28.2031C632.336 27.9048 632.116 27.6676 631.835 27.4915C631.556 27.3153 631.238 27.2273 630.88 27.2273C630.61 27.2273 630.359 27.2812 630.126 27.3892C629.893 27.4943 629.688 27.6392 629.512 27.8239C629.339 28.0085 629.203 28.2202 629.103 28.4588C629.004 28.6946 628.954 28.9432 628.954 29.2045C628.954 29.5511 629.035 29.875 629.197 30.1761C629.362 30.4773 629.586 30.7202 629.87 30.9048C630.157 31.0895 630.482 31.1818 630.846 31.1818Z" fill="black"/>
<path d="M725.255 23.2727V32H724.198V24.3807H724.147L722.016 25.7955V24.7216L724.198 23.2727H725.255ZM728.037 32L731.941 24.2784V24.2102H727.441V23.2727H733.032V24.2614L729.145 32H728.037Z" fill="black"/>
<path d="M823.985 23.2727V32H822.928V24.3807H822.877L820.747 25.7955V24.7216L822.928 23.2727H823.985ZM829.291 32.1193C828.705 32.1193 828.188 32.0156 827.74 31.8082C827.294 31.598 826.945 31.3097 826.695 30.9432C826.445 30.5739 826.322 30.1534 826.325 29.6818C826.322 29.3125 826.394 28.9716 826.542 28.6591C826.69 28.3437 826.892 28.081 827.147 27.8707C827.406 27.6577 827.694 27.5227 828.012 27.4659V27.4148C827.595 27.3068 827.262 27.0724 827.015 26.7116C826.768 26.348 826.646 25.9347 826.649 25.4716C826.646 25.0284 826.758 24.6321 826.985 24.2827C827.213 23.9332 827.525 23.6577 827.923 23.456C828.323 23.2543 828.779 23.1534 829.291 23.1534C829.796 23.1534 830.248 23.2543 830.646 23.456C831.044 23.6577 831.356 23.9332 831.583 24.2827C831.813 24.6321 831.93 25.0284 831.933 25.4716C831.93 25.9347 831.803 26.348 831.553 26.7116C831.306 27.0724 830.978 27.3068 830.569 27.4148V27.4659C830.884 27.5227 831.169 27.6577 831.421 27.8707C831.674 28.081 831.876 28.3437 832.026 28.6591C832.177 28.9716 832.254 29.3125 832.257 29.6818C832.254 30.1534 832.126 30.5739 831.873 30.9432C831.623 31.3097 831.275 31.598 830.829 31.8082C830.386 32.0156 829.873 32.1193 829.291 32.1193ZM829.291 31.1818C829.686 31.1818 830.026 31.1179 830.313 30.9901C830.6 30.8622 830.822 30.6818 830.978 30.4489C831.134 30.2159 831.214 29.9432 831.217 29.6307C831.214 29.3011 831.129 29.0099 830.961 28.7571C830.794 28.5043 830.565 28.3054 830.275 28.1605C829.988 28.0156 829.66 27.9432 829.291 27.9432C828.919 27.9432 828.586 28.0156 828.294 28.1605C828.004 28.3054 827.775 28.5043 827.607 28.7571C827.443 29.0099 827.362 29.3011 827.365 29.6307C827.362 29.9432 827.437 30.2159 827.59 30.4489C827.747 30.6818 827.97 30.8622 828.259 30.9901C828.549 31.1179 828.893 31.1818 829.291 31.1818ZM829.291 27.0398C829.603 27.0398 829.88 26.9773 830.122 26.8523C830.366 26.7273 830.558 26.5526 830.697 26.3281C830.836 26.1037 830.907 25.8409 830.91 25.5398C830.907 25.2443 830.838 24.9872 830.701 24.7685C830.565 24.5469 830.376 24.3764 830.134 24.2571C829.893 24.1349 829.612 24.0739 829.291 24.0739C828.964 24.0739 828.678 24.1349 828.434 24.2571C828.19 24.3764 828.001 24.5469 827.867 24.7685C827.734 24.9872 827.669 25.2443 827.671 25.5398C827.669 25.8409 827.735 26.1037 827.872 26.3281C828.011 26.5526 828.203 26.7273 828.447 26.8523C828.691 26.9773 828.972 27.0398 829.291 27.0398Z" fill="black"/>
<line x1="26.5" y1="37" x2="26.5" y2="62" stroke="black"/>
<line x1="126.5" y1="37" x2="126.5" y2="62" stroke="black"/>
<line x1="226.5" y1="37" x2="226.5" y2="62" stroke="black"/>
<line x1="326.5" y1="37" x2="326.5" y2="62" stroke="black"/>
<line x1="426.5" y1="37" x2="426.5" y2="62" stroke="black"/>
<line x1="526.5" y1="37" x2="526.5" y2="62" stroke="black"/>
<line x1="626.5" y1="37" x2="626.5" y2="62" stroke="black"/>
<line x1="726.5" y1="37" x2="726.5" y2="62" stroke="black"/>
<line x1="826.5" y1="37" x2="826.5" y2="62" stroke="black"/>
<defs>
<linearGradient id="paint0_linear_41_14" x1="27" y1="55" x2="107" y2="55" gradientUnits="userSpaceOnUse">
<stop/>
<stop offset="0.630463"/>
<stop offset="1" stop-opacity="0"/>
</linearGradient>
<linearGradient id="paint1_linear_41_14" x1="127" y1="55" x2="207" y2="55" gradientUnits="userSpaceOnUse">
<stop/>
<stop offset="0.630463"/>
<stop offset="1" stop-opacity="0"/>
</linearGradient>
<linearGradient id="paint2_linear_41_14" x1="227" y1="55" x2="307" y2="55" gradientUnits="userSpaceOnUse">
<stop/>
<stop offset="0.630463"/>
<stop offset="1" stop-opacity="0"/>
</linearGradient>
<linearGradient id="paint3_linear_41_14" x1="327" y1="55" x2="407" y2="55" gradientUnits="userSpaceOnUse">
<stop/>
<stop offset="0.630463"/>
<stop offset="1" stop-opacity="0"/>
</linearGradient>
<linearGradient id="paint4_linear_41_14" x1="427" y1="55" x2="507" y2="55" gradientUnits="userSpaceOnUse">
<stop/>
<stop offset="0.630463"/>
<stop offset="1" stop-opacity="0"/>
</linearGradient>
<linearGradient id="paint5_linear_41_14" x1="527" y1="55" x2="607" y2="55" gradientUnits="userSpaceOnUse">
<stop/>
<stop offset="0.630463"/>
<stop offset="1" stop-opacity="0"/>
</linearGradient>
<linearGradient id="paint6_linear_41_14" x1="627" y1="55" x2="707" y2="55" gradientUnits="userSpaceOnUse">
<stop/>
<stop offset="0.630463"/>
<stop offset="1" stop-opacity="0"/>
</linearGradient>
<linearGradient id="paint7_linear_41_14" x1="727" y1="55" x2="807" y2="55" gradientUnits="userSpaceOnUse">
<stop/>
<stop offset="0.630463"/>
<stop offset="1" stop-opacity="0"/>
</linearGradient>
</defs>
</svg>
