<?xml version="1.0" encoding="UTF-8"?>
<svg id="Layer_2" data-name="Layer 2" xmlns="http://www.w3.org/2000/svg" viewBox="0 0 450 308.24">
  <defs>
    <style>
      .cls-1 {
        stroke-width: 0px;
      }
    </style>
  </defs>
  <g id="Ebene_1" data-name="Ebene 1">
    <g>
      <g>
        <path class="cls-1" d="m324.5,36.77l20.77,20.77c8.41,8.41,8.41,22.05,0,30.46l-20.77,20.77c-8.41,8.41-8.41,22.05,0,30.46h0c8.41,8.41,22.05,8.41,30.46,0l36-36,15.23-15.23c8.41-8.41,8.41-22.05,0-30.46l-15.23-15.23-36-36c-8.41-8.41-22.05-8.41-30.46,0h0c-8.41,8.41-8.41,22.05,0,30.46Z"/>
        <path class="cls-1" d="m306.5,90.77l-10.38-10.38c-4.21-4.21-4.21-11.02,0-15.23l10.38-10.38c4.21-4.21,4.21-11.02,0-15.23h0c-4.21-4.21-11.02-4.21-15.23,0l-18,18-7.62,7.62c-4.21,4.21-4.21,11.02,0,15.23l7.62,7.62,18,18c4.21,4.21,11.02,4.21,15.23,0h0c4.21-4.21,4.21-11.02,0-15.23Z"/>
      </g>
      <g>
        <path class="cls-1" d="m56.5,287c-1.93-1.9-2.9-5.06-2.9-9.47v-51.09h6.52v51.09c0,2.3.47,3.96,1.4,4.98.94,1.03,2.46,1.54,4.57,1.54h3.08v5.8h-3.08c-4.47,0-7.67-.95-9.6-2.85Z"/>
        <path class="cls-1" d="m80.23,287c-1.93-1.9-2.9-5.06-2.9-9.47v-51.09h6.52v51.09c0,2.3.47,3.96,1.4,4.98.94,1.03,2.46,1.54,4.57,1.54h3.08v5.8h-3.08c-4.47,0-7.67-.95-9.6-2.85Z"/>
        <path class="cls-1" d="m104.42,286.09c-3.08-2.99-4.62-6.96-4.62-11.91v-12.95c0-5.19,1.54-9.38,4.62-12.55,3.08-3.17,7.16-4.76,12.23-4.76h7.43c4.83,0,8.73,1.54,11.69,4.62,2.96,3.08,4.44,7.16,4.44,12.23v7.97h-33.88v5.44c0,3.14.95,5.69,2.85,7.65,1.9,1.96,4.39,2.94,7.47,2.94h6.88c3.02,0,5.46-.83,7.34-2.49,1.87-1.66,2.81-3.88,2.81-6.66h6.34c0,4.47-1.51,8.08-4.53,10.82-3.02,2.75-7.01,4.12-11.96,4.12h-6.88c-5.07,0-9.15-1.49-12.23-4.48Zm29.26-22.96v-2.35c0-3.32-.88-5.99-2.63-8.02-1.75-2.02-4.08-3.03-6.98-3.03h-7.43c-3.08,0-5.57,1.06-7.47,3.17-1.9,2.11-2.85,4.89-2.85,8.33v1.9h27.36Z"/>
        <path class="cls-1" d="m153.42,286.68c-2.78-2.6-4.17-6.01-4.17-10.24h6.34c0,2.54.82,4.59,2.45,6.16,1.63,1.57,3.77,2.36,6.43,2.36h7.88c2.6,0,4.71-.53,6.34-1.59,1.63-1.06,2.45-2.43,2.45-4.12v-3.08c0-1.15-.45-2.16-1.36-3.03-.91-.88-2.08-1.46-3.53-1.77l-15.67-2.72c-3.14-.54-5.66-1.74-7.56-3.58-1.9-1.84-2.85-4-2.85-6.48v-2.99c0-3.5,1.33-6.33,3.99-8.47,2.66-2.14,6.16-3.22,10.51-3.22h7.79c4.23,0,7.64,1.19,10.24,3.58,2.6,2.39,3.9,5.54,3.9,9.47h-6.34c-.06-2.23-.8-4.03-2.22-5.39-1.42-1.36-3.28-2.04-5.57-2.04h-7.79c-2.42,0-4.35.56-5.8,1.68-1.45,1.12-2.17,2.58-2.17,4.39v2.63c0,1.15.5,2.17,1.49,3.08,1,.91,2.28,1.48,3.85,1.72l15.58,2.72c3.02.54,5.45,1.72,7.29,3.53,1.84,1.81,2.76,3.99,2.76,6.52v3.62c0,3.32-1.4,6.01-4.21,8.06-2.81,2.05-6.51,3.08-11.1,3.08h-7.88c-4.59,0-8.27-1.3-11.05-3.89Z"/>
        <path class="cls-1" d="m204.51,288.4c-2.42-1.45-4.29-3.47-5.62-6.07-1.33-2.6-1.99-5.62-1.99-9.06v-10.87c0-3.62.69-6.84,2.08-9.65,1.39-2.81,3.35-4.98,5.89-6.52,2.54-1.54,5.44-2.31,8.7-2.31h6.7c2.05,0,4.03.48,5.93,1.45,1.9.97,3.43,2.3,4.57,3.99v-22.92h6.52v63.41h-6.34v-6.7c-1.39,2.24-3.2,4.03-5.44,5.39-2.24,1.36-4.41,2.04-6.52,2.04h-6.25c-3.08,0-5.83-.72-8.24-2.17Zm14.31-3.62c1.93,0,3.8-.62,5.62-1.86,1.81-1.24,3.29-2.85,4.44-4.85,1.15-1.99,1.78-4.04,1.9-6.16v-11.42c-.42-3.2-1.62-5.8-3.58-7.79-1.96-1.99-4.33-2.99-7.11-2.99h-6.34c-3.08,0-5.57,1.16-7.47,3.49-1.9,2.33-2.85,5.39-2.85,9.2v10.87c0,3.38.89,6.15,2.67,8.29,1.78,2.14,4.06,3.22,6.84,3.22h5.89Z"/>
        <path class="cls-1" d="m252.43,236.5c-.91-.91-1.36-2.08-1.36-3.53s.45-2.63,1.36-3.53c.9-.91,2.08-1.36,3.53-1.36s2.63.45,3.53,1.36,1.36,2.08,1.36,3.53-.45,2.63-1.36,3.53c-.91.91-2.08,1.36-3.53,1.36s-2.63-.45-3.53-1.36Zm.27,8.15h6.52v45.2h-6.52v-45.2Z"/>
        <path class="cls-1" d="m279.43,305.02c-2.6-2.14-4.05-4.97-4.35-8.47h6.52c.24,1.81,1.07,3.28,2.49,4.39,1.42,1.12,3.15,1.68,5.21,1.68h7.52c3.14,0,5.57-1.04,7.29-3.13,1.72-2.08,2.58-5,2.58-8.74v-6.98c-1.33,1.81-3.07,3.28-5.21,4.39-2.14,1.12-4.21,1.68-6.21,1.68h-6.61c-3.08,0-5.83-.72-8.24-2.17-2.42-1.45-4.29-3.47-5.62-6.07-1.33-2.59-1.99-5.62-1.99-9.06v-10.6c0-5.37,1.55-9.72,4.67-13.04,3.11-3.32,7.2-4.98,12.28-4.98h6.34c1.93,0,3.93.54,5.98,1.63,2.05,1.09,3.65,2.48,4.8,4.17v-5.07h6.34v46.11c0,5.49-1.45,9.78-4.35,12.86-2.9,3.08-6.92,4.62-12.05,4.62h-7.52c-3.99,0-7.28-1.07-9.87-3.22Zm15.85-20.97c3.02,0,5.6-1.19,7.75-3.58,2.14-2.39,3.37-5.42,3.67-9.1v-11.14c-.24-3.08-1.37-5.6-3.4-7.56-2.02-1.96-4.43-2.94-7.2-2.94h-6.16c-3.2,0-5.77,1.12-7.7,3.35-1.93,2.24-2.9,5.19-2.9,8.88v10.6c0,3.38.89,6.15,2.67,8.29,1.78,2.14,4.06,3.22,6.84,3.22h6.43Z"/>
        <path class="cls-1" d="m328.34,236.5c-.91-.91-1.36-2.08-1.36-3.53s.45-2.63,1.36-3.53c.9-.91,2.08-1.36,3.53-1.36s2.63.45,3.53,1.36,1.36,2.08,1.36,3.53-.45,2.63-1.36,3.53c-.91.91-2.08,1.36-3.53,1.36s-2.63-.45-3.53-1.36Zm.27,8.15h6.52v45.2h-6.52v-45.2Z"/>
        <path class="cls-1" d="m358.01,286.77c-2.08-2.05-3.13-5.44-3.13-10.15v-26.18h-7.97v-5.8h7.97v-13.68h6.52v13.68h11.78v5.8h-11.78v26.18c0,2.66.53,4.56,1.58,5.71,1.06,1.15,2.82,1.72,5.3,1.72h4.89v5.8h-4.89c-4.77,0-8.2-1.03-10.28-3.08Z"/>
        <path class="cls-1" d="m437.32,287c-1.93-1.9-2.9-5.06-2.9-9.47v-51.09h6.52v51.09c0,2.3.47,3.96,1.4,4.98.94,1.03,2.46,1.54,4.58,1.54h3.08v5.8h-3.08c-4.47,0-7.67-.95-9.6-2.85Z"/>
        <path class="cls-1" d="m7.61,288.4c-2.42-1.45-4.29-3.47-5.62-6.07-1.33-2.6-1.99-5.62-1.99-9.06v-10.87c0-3.62.69-6.84,2.08-9.65,1.39-2.81,3.35-4.98,5.89-6.52,2.54-1.54,5.44-2.31,8.7-2.31h6.7c2.05,0,4.03.48,5.93,1.45,1.9.97,3.43,2.3,4.57,3.99v-4.67h6.52v45.16h-6.34v-6.7c-1.39,2.24-3.2,4.03-5.44,5.39-2.24,1.36-4.41,2.04-6.52,2.04h-6.25c-3.08,0-5.83-.72-8.24-2.17Zm14.31-3.62c1.93,0,3.8-.62,5.62-1.86,1.81-1.24,3.29-2.85,4.44-4.85,1.15-1.99,1.78-4.04,1.9-6.16v-11.42c-.42-3.2-1.62-5.8-3.58-7.79-1.96-1.99-4.33-2.99-7.11-2.99h-6.34c-3.08,0-5.57,1.16-7.47,3.49-1.9,2.33-2.85,5.39-2.85,9.2v10.87c0,3.38.89,6.15,2.67,8.29,1.78,2.14,4.06,3.22,6.84,3.22h5.89Z"/>
        <path class="cls-1" d="m389.33,288.38c-2.42-1.45-4.29-3.47-5.62-6.07-1.33-2.6-1.99-5.62-1.99-9.06v-10.87c0-3.62.69-6.84,2.08-9.65,1.39-2.81,3.35-4.98,5.89-6.52,2.54-1.54,5.44-2.31,8.7-2.31h6.7c2.05,0,4.03.48,5.93,1.45,1.9.97,3.43,2.3,4.57,3.99v-4.67h6.52v45.16h-6.34v-6.7c-1.39,2.24-3.2,4.03-5.44,5.39-2.24,1.36-4.41,2.04-6.52,2.04h-6.25c-3.08,0-5.83-.72-8.24-2.17Zm14.31-3.62c1.93,0,3.8-.62,5.62-1.86,1.81-1.24,3.29-2.85,4.44-4.85,1.15-1.99,1.78-4.04,1.9-6.16v-11.42c-.42-3.2-1.62-5.8-3.58-7.79-1.96-1.99-4.33-2.99-7.11-2.99h-6.34c-3.08,0-5.57,1.16-7.47,3.49-1.9,2.33-2.85,5.39-2.85,9.2v10.87c0,3.38.89,6.15,2.67,8.29,1.78,2.14,4.06,3.22,6.84,3.22h5.89Z"/>
      </g>
    </g>
  </g>
</svg>