<?xml version="1.0" encoding="UTF-8"?>
<!-- Generator: Adobe Illustrator 14.0.0, SVG Export Plug-In . SVG Version: 6.00 Build 43363)  -->
<!DOCTYPE svg PUBLIC "-//W3C//DTD SVG 1.1//EN" "http://www.w3.org/Graphics/SVG/1.1/DTD/svg11.dtd">
<svg version="1.1" id="Ebene_1" xmlns="http://www.w3.org/2000/svg" xmlns:xlink="http://www.w3.org/1999/xlink" x="0px" y="0px" width="1024px" height="277px" viewBox="0 0 1024 277" enable-background="new 0 0 1024 277" xml:space="preserve">
<rect x="44.476" fill="#A53656" width="3.347" height="94.991"/>
<g>
	<path fill="#A53656" d="M934.699,79.439h43.821v17.052c10.749-16.296,22.876-23.576,41.94-23.576h3.465v44.735   c-9.348,0-20.45,3.122-28.073,9.017c-13.166,10.745-13.513,24.966-13.166,40.912v104h-47.987V79.439z"/>
</g>
<g>
	<path fill="#A53656" d="M636.661,79.439h43.704v17.052c10.741-16.296,22.868-23.576,41.94-23.576h3.465v44.735   c-9.363,0-20.451,3.122-28.081,9.017c-13.166,10.745-13.513,24.966-13.166,40.912v104h-47.862V79.439z"/>
	<path fill="#A53656" d="M615.982,79.364l-0.055,117.366c-1.354,28.286-18.773,54.398-43.295,67.352   c-14.024,7.615-30.168,12.679-46.972,12.852c-5.521,0.063-11.127-0.149-16.738-1.307c-33.853-6.3-64.186-29.656-71.21-64.745   c-1.346-6.221-2.086-12.694-2.232-19.458V79.407l48.146-0.016l0.13,110.418c0.421,9.149,2.177,18.111,7.808,25.262   c10.788,14.095,30.79,19.607,48.649,14.095c10.623-3.103,20.442-10.536,24.506-21.316c2.331-5.283,3.252-11.3,3.441-17.19   l-0.055-111.268L615.982,79.364z"/>
	<path fill-rule="evenodd" clip-rule="evenodd" fill="#A53656" d="M154.783,150.043c8.745,17.544,6.808,42.381-5.209,57.721   c-13.076,18.024-35.841,27.309-58.87,21.891c-21.691-4.929-39.117-23.749-42.582-45.712c-3.744-23.427,7.071-45.318,25.962-57.264   c17.021-11.548,43.988-11.284,60.871,0.602C143.302,132.884,150.311,140.893,154.783,150.043 M46.653,0.055l-0.075,91.471   l0.205,0.138c19.462-15.32,44.484-20.568,70.588-18.344c39.794,4.264,73.352,34.841,84.499,72.737   c9.272,33.294,2.256,70.344-19.789,95.275c-17.789,20.183-43.271,33.049-70.832,35.49c-41.782,2.213-79.998-18.143-98.881-53.948   c-9.115-16.474-12.308-33.428-12.316-55.65L0.004,62.847L-0.074,0.04L46.653,0.055z"/>
</g>
<g>
	<path fill-rule="evenodd" clip-rule="evenodd" fill="#A53656" d="M372.213,154.752c-7.627-22.884-28.77-36.763-52.343-36.763   c-22.875,0-46.444,14.572-53.378,36.763H372.213z M267.186,195.668c6.934,22.19,27.384,36.751,50.606,36.751   c17.328,0,33.963-6.592,42.979-16.64h50.953c-11.789,34.325-51.646,61.154-92.2,61.154c-55.807,0-101.212-44.515-101.212-100.338   c0-18.931,4.918-36.743,13.596-52.09c17.399-30.754,49.921-51.59,88.31-51.59c54.76,0,98.44,47.153,98.44,100.909   c0,7.275-1.386,14.56-2.426,21.844H267.186z"/>
	<path fill-rule="evenodd" clip-rule="evenodd" fill="#A53656" d="M874.883,153.901c-7.622-22.88-28.773-36.751-52.334-36.751   c-22.884,0-46.444,14.564-53.39,36.751H874.883z M769.852,195.486c6.946,22.199,27.389,36.751,50.618,36.751   c17.324,0,33.955-6.583,42.972-16.639h50.957c-11.789,34.325-51.366,61.335-91.913,61.335   c-55.814,0-101.503-44.696-101.503-100.511c0-56.871,44.365-103.685,101.913-103.685c54.76,0,98.433,47.165,98.433,100.905   c0,7.284-1.387,14.561-2.426,21.844H769.852z"/>
</g>
</svg>