<?xml version="1.0" encoding="UTF-8" standalone="no"?>
<!DOCTYPE svg PUBLIC "-//W3C//DTD SVG 1.1//EN" "http://www.w3.org/Graphics/SVG/1.1/DTD/svg11.dtd">
<svg width="100%" height="100%" viewBox="0 0 1909 763" version="1.1" xmlns="http://www.w3.org/2000/svg" xmlns:xlink="http://www.w3.org/1999/xlink" xml:space="preserve" xmlns:serif="http://www.serif.com/" style="fill-rule:evenodd;clip-rule:evenodd;stroke-linejoin:round;stroke-miterlimit:2;">
    <g transform="matrix(1,0,0,1,-285.691,-1372.6)">
        <g transform="matrix(1,0,0,1,46.8371,284.964)">
            <g>
                <g transform="matrix(2.4403,0,0,2.4403,350.583,1772.02)">
                    <path d="M0,16.324L-14.049,-10.015L-16.445,-10.015L-30.692,16.324L0,16.324ZM8.223,31.91L2.866,21.882L-33.598,21.882L-38.969,31.91L-45.785,31.91L-20.221,-15.586L-10.606,-15.586L14.904,31.91L8.223,31.91Z" style="fill:rgb(99,100,102);fill-rule:nonzero;"/>
                </g>
                <g transform="matrix(2.4403,0,0,2.4403,424.627,1747.55)">
                    <path d="M0,36.38L23.916,36.38C28.632,36.38 31.964,36.233 33.894,35.963C35.837,35.701 37.256,35.192 38.152,34.427C39.331,33.393 39.908,31.372 39.908,28.318C39.908,25.076 39.263,22.976 37.965,21.988C37.055,21.304 36.008,20.888 34.844,20.753C33.652,20.606 30.024,20.498 23.916,20.404L0,20.404L0,36.38ZM0,14.833L23.916,14.833C27.933,14.833 30.665,14.753 32.138,14.605C33.612,14.457 34.763,14.142 35.582,13.658C37.28,12.625 38.126,10.551 38.126,7.43C38.126,4.429 37.535,2.463 36.37,1.509C35.636,0.912 34.682,0.536 33.558,0.388C32.447,0.254 29.222,0.133 23.916,0.013L0,0.013L0,14.833ZM-6.011,41.938L-6.011,-5.558L23.916,-5.558C29.379,-5.451 32.796,-5.344 34.162,-5.236C38.435,-4.86 41.377,-3.108 43.012,0.013C43.858,1.617 44.27,3.812 44.27,6.61C44.27,9.705 43.871,12.008 43.039,13.511C42.237,15.008 40.777,16.176 38.686,16.954C41.377,17.431 43.267,18.531 44.392,20.243C45.489,21.962 46.053,24.707 46.053,28.439C46.053,33.164 45.224,36.446 43.576,38.246C42.613,39.3 41.391,40.065 39.921,40.548C38.461,41.045 36.277,41.387 33.37,41.628C30.88,41.83 27.735,41.938 23.916,41.938L-6.011,41.938Z" style="fill:rgb(99,100,102);fill-rule:nonzero;"/>
                </g>
                <g transform="matrix(2.4403,0,0,2.4403,564.431,1770.35)">
                    <path d="M0,17.733L5.836,17.733C5.836,18.27 5.85,18.626 5.863,18.787C5.917,21.452 6.091,23.224 6.413,24.129C6.722,25.056 7.43,25.741 8.515,26.224C10.189,26.996 15.667,27.385 24.932,27.385C31.641,27.385 36.474,27.037 39.394,26.332C42.273,25.661 43.72,23.304 43.72,19.27C43.72,17.237 43.492,15.7 43.035,14.652C42.569,13.619 41.777,12.914 40.652,12.484C39.528,12.068 37.96,11.827 35.927,11.746C33.903,11.678 27.329,11.652 16.213,11.652C12.465,11.652 9.464,11.29 7.215,10.538C4.98,9.82 3.238,8.665 2.034,7.06C0.601,5.155 -0.107,2.268 -0.107,-1.605C-0.107,-5.901 1.017,-9.008 3.292,-10.942C4.39,-11.874 5.622,-12.599 6.96,-13.096C8.299,-13.579 10.189,-13.962 12.612,-14.271C16.603,-14.781 21.331,-15.036 26.822,-15.036C31.896,-15.036 35.833,-14.754 38.605,-14.217C41.377,-13.673 43.532,-12.747 45.072,-11.418C46.358,-10.325 47.227,-9.048 47.697,-7.592C48.18,-6.128 48.445,-3.88 48.486,-0.839L42.461,-0.839L42.461,-1.565C42.461,-3.88 42.22,-5.451 41.736,-6.223C41.042,-7.471 39.501,-8.344 37.132,-8.888C34.763,-9.412 31.238,-9.679 26.554,-9.679C20.714,-9.679 16.333,-9.452 13.417,-8.982C10.498,-8.526 8.527,-7.753 7.484,-6.693C6.521,-5.665 6.037,-3.974 6.037,-1.605C6.037,0.523 6.279,2.041 6.759,2.946C7.242,3.845 8.192,4.544 9.599,5.006C11.649,5.691 15.599,6.067 21.438,6.107C23.406,6.134 28.305,6.162 36.128,6.174C39.367,6.202 41.844,6.537 43.572,7.168C45.301,7.779 46.72,8.866 47.818,10.39C49.184,12.35 49.865,15.135 49.865,18.747C49.865,22.203 49.305,24.935 48.18,26.916C46.841,29.245 44.347,30.801 40.706,31.594C37.051,32.366 30.517,32.769 21.062,32.769C16.069,32.769 12.383,32.607 10.014,32.298C7.645,31.99 5.769,31.42 4.376,30.574C2.705,29.581 1.55,28.311 0.909,26.754C0.265,25.231 -0.041,22.928 -0.041,19.861C-0.041,19.727 -0.027,19.002 0,17.733" style="fill:rgb(99,100,102);fill-rule:nonzero;"/>
                </g>
                <g transform="matrix(2.4403,0,0,2.4403,816.927,1772.02)">
                    <path d="M0,16.324L-14.046,-10.015L-16.442,-10.015L-30.679,16.324L0,16.324ZM8.223,31.91L2.879,21.882L-33.584,21.882L-38.968,31.91L-45.784,31.91L-20.221,-15.586L-10.605,-15.586L14.905,31.91L8.223,31.91Z" style="fill:rgb(99,100,102);fill-rule:nonzero;"/>
                </g>
                <g transform="matrix(2.4403,0,0,2.4403,873.167,1850.21)">
                    <path d="M0,-47.63L6.014,-47.63L6.014,-24.292C6.014,-17.392 6.082,-13.243 6.212,-11.82C6.387,-10.015 6.883,-8.705 7.699,-7.901C8.518,-7.081 9.871,-6.545 11.757,-6.296C14.891,-5.906 19.405,-5.692 25.269,-5.692C33.33,-5.692 38.887,-5.96 41.915,-6.464C43.721,-6.759 45.006,-7.35 45.744,-8.223C46.479,-9.089 46.896,-10.511 47.002,-12.491C47.124,-14.277 47.204,-18.197 47.245,-24.292L47.245,-47.63L53.255,-47.63L53.255,-24.292C53.202,-17.955 53.094,-13.579 52.923,-11.169C52.534,-7.027 51.087,-4.148 48.597,-2.53C47.056,-1.564 45.181,-0.94 42.985,-0.698C40.791,-0.443 35.354,-0.201 26.702,0C19.096,-0.121 14.556,-0.215 13.055,-0.295C11.555,-0.376 9.924,-0.617 8.128,-1C5.155,-1.685 2.987,-3.443 1.595,-6.296C0.923,-7.672 0.523,-9.344 0.363,-11.29C0.188,-13.217 0.08,-17.552 0,-24.292L0,-47.63Z" style="fill:rgb(99,100,102);fill-rule:nonzero;"/>
                </g>
                <g transform="matrix(2.4403,0,0,2.4403,1095.38,1792.54)">
                    <path d="M0,-0.577L29.567,-0.577C29.527,6.774 29.299,11.559 28.883,13.767C28.416,16.203 27.705,18.036 26.701,19.258C25.711,20.486 24.184,21.452 22.15,22.191C19.378,23.124 13.122,23.594 3.416,23.594C-5.732,23.594 -12.187,23.285 -15.975,22.674C-19.285,22.11 -21.681,20.608 -23.141,18.144C-24.798,15.371 -25.618,9.257 -25.618,-0.228C-25.618,-6.812 -25.161,-11.961 -24.265,-15.652C-23.406,-19.137 -21.372,-21.452 -18.13,-22.54C-14.918,-23.634 -8.585,-24.171 0.869,-24.171C3.977,-24.171 7.457,-24.091 11.33,-23.916C15.2,-23.727 17.824,-23.553 19.244,-23.324C22.124,-22.909 24.466,-21.734 26.271,-19.821C27.359,-18.639 28.107,-17.264 28.551,-15.72C28.99,-14.156 29.232,-11.974 29.272,-9.148L23.073,-9.148C23.006,-12.827 22.523,-15.142 21.613,-16.096C21.023,-16.7 20.194,-17.156 19.109,-17.411C18.025,-17.7 16.311,-17.929 13.955,-18.116C10.713,-18.345 6.695,-18.465 1.903,-18.465C-4.42,-18.465 -8.971,-18.291 -11.757,-17.941C-14.515,-17.593 -16.365,-16.968 -17.261,-16.069C-18.09,-15.223 -18.68,-13.726 -19.002,-11.558C-19.325,-9.39 -19.482,-5.92 -19.482,-1.127C-19.482,5.987 -19.204,10.659 -18.653,12.881C-18.291,14.21 -17.744,15.184 -17.006,15.841C-16.257,16.472 -15.119,16.915 -13.632,17.17C-10.686,17.647 -4.232,17.902 5.732,17.902C11.236,17.902 15.294,17.66 17.918,17.197C20.301,16.794 21.815,15.882 22.469,14.479C23.1,13.069 23.476,9.895 23.526,4.981L0,4.981L0,-0.577Z" style="fill:rgb(99,100,102);fill-rule:nonzero;"/>
                </g>
                <g transform="matrix(2.4403,0,0,2.4403,1190.04,1849.89)">
                    <path d="M0,-47.496L51.238,-47.496L51.238,-41.925L28.675,-41.925L28.675,0L22.657,0L22.657,-41.925L0,-41.925L0,-47.496Z" style="fill:rgb(99,100,102);fill-rule:nonzero;"/>
                </g>
                <g transform="matrix(2.4403,0,0,2.4403,1339.78,1733.98)">
                    <path d="M0,47.496L0,0L44.192,0L44.192,5.571L6.014,5.571L6.014,20.069L42.589,20.069L42.589,25.654L6.014,25.654L6.014,41.938L44.233,41.938L44.233,47.496L0,47.496Z" style="fill:rgb(99,100,102);fill-rule:nonzero;"/>
                </g>
                <g transform="matrix(2.4403,0,0,2.4403,1586.77,1773.66)">
                    <path d="M0,14.98L5.853,14.98C5.705,19.31 5.464,22.283 5.128,23.901C4.39,27.425 2.168,29.593 -1.584,30.412C-4.618,31.049 -10.028,31.372 -17.814,31.372C-27.896,31.372 -34.709,31.009 -38.246,30.264C-41.637,29.54 -43.885,27.68 -45.06,24.68C-46.214,21.679 -46.791,16.203 -46.791,8.235C-46.791,0.656 -46.361,-4.847 -45.489,-8.291C-44.436,-12.352 -41.717,-14.721 -37.32,-15.385C-33.092,-16.043 -26.89,-16.392 -18.721,-16.392C-10.928,-16.392 -5.356,-15.977 -1.993,-15.171C-0.295,-14.789 1.135,-14.009 2.369,-12.855C3.578,-11.707 4.363,-10.392 4.686,-8.882C5.034,-7.458 5.209,-4.686 5.249,-0.565L-0.322,-0.565C-0.336,-1.384 -0.362,-1.927 -0.362,-2.196C-0.362,-4.471 -0.564,-6.096 -0.993,-7.049C-1.409,-8.023 -2.235,-8.748 -3.43,-9.257C-5.665,-10.217 -10.848,-10.687 -19.029,-10.687C-24.949,-10.687 -29.393,-10.526 -32.366,-10.191C-35.341,-9.855 -37.28,-9.325 -38.179,-8.573C-39.038,-7.834 -39.676,-6.297 -40.093,-3.982C-40.495,-1.666 -40.697,1.576 -40.697,5.704C-40.697,7.644 -40.615,10.162 -40.469,13.255C-40.307,16.336 -40.159,18.451 -40.012,19.619C-39.771,21.451 -39.2,22.773 -38.327,23.606C-37.455,24.425 -36.092,24.935 -34.226,25.103C-30.803,25.479 -25.937,25.68 -19.593,25.68C-17.653,25.68 -15.123,25.613 -11.975,25.465C-8.84,25.344 -6.847,25.223 -5.974,25.103C-4.316,24.881 -3.067,24.532 -2.249,24.062C-1.437,23.579 -0.859,22.854 -0.55,21.921C-0.269,21.075 -0.081,18.773 0,14.98" style="fill:rgb(99,100,102);fill-rule:nonzero;"/>
                </g>
                <g transform="matrix(2.4403,0,0,2.4403,1629.48,1849.89)">
                    <path d="M0,-47.496L6.015,-47.496L6.015,-27.427L47.543,-27.427L47.543,-47.496L53.552,-47.496L53.552,0L47.543,0L47.543,-21.842L6.015,-21.842L6.015,0L0,0L0,-47.496Z" style="fill:rgb(99,100,102);fill-rule:nonzero;"/>
                </g>
                <g transform="matrix(2.4403,0,0,2.4403,1793.16,1849.89)">
                    <path d="M0,-47.496L10.008,-47.496L49.537,-5.853L50.899,-5.853L50.899,-47.496L56.927,-47.496L56.927,0L46.751,0L7.344,-41.55L6.028,-41.55L6.028,0L0,0L0,-47.496Z" style="fill:rgb(99,100,102);fill-rule:nonzero;"/>
                </g>
                <g transform="matrix(2.4403,0,0,2.4403,166.088,1699.86)">
                    <rect x="737.203" y="13.985" width="6.027" height="47.496" style="fill:rgb(99,100,102);"/>
                </g>
                <g transform="matrix(2.4403,0,0,2.4403,2012.74,1849.89)">
                    <path d="M0,-47.496L6.007,-47.496L6.007,-27.077L13.84,-27.077L43.078,-47.496L53.604,-47.496L20.082,-24.332L55.342,0L44.71,0L13.84,-21.506L6.007,-21.506L6.007,0L0,0L0,-47.496Z" style="fill:rgb(99,100,102);fill-rule:nonzero;"/>
                </g>
            </g>
            <g>
                <g transform="matrix(2.4403,0,0,2.4403,250.058,1632)">
                    <path d="M0,-223.008L182.681,-223.008L182.681,-165.524L67.257,-165.524L67.257,-141.508L169.712,-141.508L169.712,-87.112L66.505,-87.112L66.505,-56.611L188.427,-56.611L188.427,0L0,0L0,-223.008Z" style="fill:rgb(191,17,27);"/>
                </g>
                <g transform="matrix(2.4403,0,0,2.4403,915.15,1632)">
                    <path d="M0,-223.062L90.615,-223.062L90.615,-165.524L6.711,-165.511C0.537,-165.511 -3.397,-159.671 -3.599,-153.482C-3.813,-147.039 0.309,-140.662 6.711,-140.662L55.953,-140.662C92.709,-140.662 118.726,-107.127 118.793,-70.385C118.887,-34.192 94.643,0 58.504,0L-67.217,0L-67.217,-56.41L40.81,-56.41C48.73,-56.41 53.778,-64.223 53.698,-72.144C53.63,-79.393 49.898,-87.031 42.622,-87.031L-5.155,-87.031C-41.12,-87.031 -67.687,-118.565 -67.942,-154.516C-68.157,-192.145 -37.589,-223.062 0,-223.062" style="fill:rgb(191,17,27);"/>
                </g>
                <g transform="matrix(2.4403,0,0,2.4403,1177.75,1632)">
                    <path d="M0,-223.008L185.251,-223.008L185.251,-165.524L126.829,-165.524L126.829,0L59.474,0L59.474,-165.322L0,-165.322L0,-223.008Z" style="fill:rgb(191,17,27);"/>
                </g>
                <g transform="matrix(2.4403,0,0,2.4403,1755.65,1631.8)">
                    <path d="M0,-222.994L62.813,-222.994L158.517,0L93.528,0L77.701,-37.185L-7.356,-37.185L-22.123,0L-87.487,0L0,-222.994ZM33.266,-139.145L13.237,-88.441L54.611,-88.441L33.266,-139.145Z" style="fill:rgb(191,17,27);"/>
                </g>
            </g>
        </g>
    </g>
</svg>