<?xml version="1.0" encoding="UTF-8" standalone="no"?>
<svg xmlns:svg="http://www.w3.org/2000/svg" xmlns="http://www.w3.org/2000/svg" version="1.0" width="308.45001" height="74.225998"><g transform="translate(-244.77322,-447.24907)"><path d="M 300.44887,498.87482 L 297.07383,498.87482 C 295.72381,502.24986 295.0488,504.94989 293.02378,507.64992 C 289.64874,513.04998 286.94871,514.4 280.19863,514.4 L 274.79856,514.4 C 270.07351,514.4 268.72349,513.72499 268.72349,508.99994 L 268.72349,484.02464 L 280.19863,484.02464 C 285.59869,484.02464 286.2737,485.37465 286.94871,492.79974 L 290.32375,492.79974 L 290.32375,471.19949 L 286.94871,471.19949 C 286.2737,478.62457 285.59869,479.97459 280.19863,479.97459 L 268.72349,479.97459 L 268.72349,452.29926 L 281.54864,452.29926 C 290.32375,452.29926 293.02378,455.6743 295.72381,467.14944 L 299.09885,467.14944 L 296.39882,448.24921 L 245.77322,448.24921 L 245.77322,452.29926 C 253.87331,452.29926 254.54832,453.64928 254.54832,459.72435 L 254.54832,506.97491 C 254.54832,513.72499 253.87331,514.4 245.77322,514.4 L 245.77322,518.45005 L 297.07383,518.45005 L 300.44887,498.87482 z " style="fill:#263f6a"/><path d="M 327.44919,520.47507 C 328.1242,517.77504 329.47422,514.4 331.49924,510.34995 C 331.49924,508.99994 332.17425,508.32493 332.17425,507.64992 L 344.9994,476.59955 C 347.02442,472.5495 348.37444,471.87449 353.0995,471.19949 L 353.0995,468.49945 C 347.69943,468.49945 346.34942,469.17446 344.32439,469.17446 C 342.29937,469.17446 340.94935,468.49945 336.2243,468.49945 L 336.2243,471.19949 C 340.27434,471.87449 341.62436,471.87449 341.62436,473.89952 C 341.62436,474.57453 341.62436,474.57453 340.27434,476.59955 L 330.82423,501.57485 L 322.04913,476.59955 L 321.37412,475.24953 C 321.37412,474.57453 321.37412,473.89952 321.37412,473.89952 C 321.37412,471.87449 322.04913,471.87449 326.77418,471.19949 L 326.77418,468.49945 C 318.67409,469.17446 316.64906,469.17446 313.27402,469.17446 C 309.89898,469.17446 307.87396,469.17446 299.77386,468.49945 L 299.77386,471.19949 C 303.82391,471.87449 305.17393,472.5495 306.52394,475.92454 L 320.69911,508.99994 C 323.39914,515.07501 324.07415,517.77504 324.74916,520.47507 L 327.44919,520.47507 z " style="fill:#263f6a"/><path d="M 372.67473,467.14944 C 359.17457,467.14944 349.04945,478.62457 349.04945,494.14976 C 349.04945,508.99994 358.49956,519.80006 371.99972,519.80006 C 384.82487,519.80006 394.95,508.32493 394.95,493.47475 C 394.95,477.94957 385.49988,467.14944 372.67473,467.14944 z M 371.99972,470.52448 C 378.7498,470.52448 381.44983,477.27456 381.44983,494.14976 C 381.44983,510.34995 378.7498,517.10003 371.99972,517.10003 C 365.24964,517.10003 362.54961,509.67494 362.54961,493.47475 C 362.54961,477.94957 365.92465,470.52448 371.99972,470.52448 z " style="fill:#263f6a"/><path d="M 397.65003,448.24921 L 397.65003,452.29926 C 405.07512,452.29926 406.42513,453.64928 406.42513,459.72435 L 406.42513,506.97491 C 406.42513,513.72499 405.07512,514.4 397.65003,514.4 L 397.65003,518.45005 L 426.00037,518.45005 C 433.42545,518.45005 438.82552,517.77504 442.87557,515.75002 C 449.62565,513.04998 454.3507,506.2999 454.3507,498.19981 C 454.3507,488.74969 448.27563,481.99961 438.82552,480.6496 C 446.92562,477.94957 450.97566,473.22451 450.97566,465.79942 C 450.97566,459.72435 448.27563,454.32428 443.55057,451.62425 C 440.17553,449.59923 435.45048,448.24921 428.7004,448.24921 L 397.65003,448.24921 z M 419.92529,479.97459 L 419.92529,452.29926 L 426.67537,452.29926 C 434.10046,452.29926 437.4755,456.34931 437.4755,465.79942 C 437.4755,475.92454 434.10046,479.97459 425.32536,479.97459 L 419.92529,479.97459 z M 419.92529,484.02464 L 427.35038,484.02464 C 432.75045,484.02464 435.45048,484.69965 437.4755,486.72467 C 439.50053,489.4247 440.85054,493.47475 440.85054,498.87482 C 440.85054,508.99994 436.80049,514.4 428.7004,514.4 L 424.65035,514.4 C 420.6003,514.4 419.92529,513.72499 419.92529,509.67494 L 419.92529,484.02464 z " style="fill:#263f6a"/><path d="M 474.60094,467.14944 C 468.52587,468.49945 460.42578,469.84947 454.3507,470.52448 L 454.3507,473.22451 C 461.10078,473.22451 461.77579,473.89952 461.77579,480.6496 L 461.77579,502.24986 C 461.77579,506.97491 462.4508,510.34995 464.47582,513.04998 C 467.17586,517.10003 471.90091,519.12506 477.97599,519.12506 C 484.72607,519.12506 489.45112,516.42502 492.82616,511.02496 C 493.50117,514.4 493.50117,517.10003 494.17618,520.47507 C 498.90123,518.45005 504.97631,517.10003 512.4014,516.42502 L 512.4014,513.72499 L 511.05138,513.72499 C 504.97631,513.04998 504.3013,513.04998 504.3013,508.32493 L 504.3013,467.14944 C 498.22623,468.49945 490.12613,469.84947 483.37605,470.52448 L 483.37605,473.22451 C 490.80114,473.22451 490.80114,473.89952 490.80114,480.6496 L 490.80114,502.92486 C 490.80114,505.6249 490.80114,507.64992 490.12613,508.99994 C 488.77611,512.37498 486.07608,513.72499 482.70104,513.72499 C 480.00101,513.72499 477.97599,513.04998 476.62597,511.02496 C 475.27595,508.99994 474.60094,507.64992 474.60094,502.92486 L 474.60094,467.14944 z " style="fill:#263f6a"/><path d="M 516.45144,520.47507 L 518.47647,520.47507 L 521.1765,514.4 C 525.22655,518.45005 529.2766,519.80006 534.67666,519.80006 C 544.80178,519.80006 552.22687,513.04998 552.22687,504.27488 C 552.22687,496.84979 549.52684,493.47475 534.67666,486.04966 C 528.60159,483.34963 527.25157,481.99961 527.25157,478.62457 C 527.25157,474.57453 531.30162,471.87449 536.02668,471.87449 C 542.10175,471.87449 545.47679,475.24953 546.82681,484.02464 L 550.20185,484.02464 L 550.20185,466.47443 L 548.17682,466.47443 L 545.47679,471.87449 C 541.42674,468.49945 538.72671,467.82444 533.32664,467.82444 C 523.20152,467.82444 516.45144,473.89952 516.45144,481.99961 C 516.45144,484.69965 517.12645,488.07469 519.15148,490.09971 C 520.50149,491.44973 524.55154,494.82477 529.9516,497.5248 C 539.40172,502.92486 540.75173,504.27488 540.75173,507.64992 C 540.75173,512.37498 536.70169,515.75002 531.97663,515.75002 C 525.22655,515.75002 520.50149,511.02496 519.15148,501.57485 L 516.45144,501.57485 L 516.45144,520.47507 z " style="fill:#263f6a"/></g></svg>