<?xml version="1.0" encoding="UTF-8" standalone="no"?>
<!-- Created with Inkscape (http://www.inkscape.org/) -->
<svg xmlns:dc="http://purl.org/dc/elements/1.1/" xmlns:cc="http://creativecommons.org/ns#" xmlns:rdf="http://www.w3.org/1999/02/22-rdf-syntax-ns#" xmlns:svg="http://www.w3.org/2000/svg" xmlns="http://www.w3.org/2000/svg" xmlns:sodipodi="http://sodipodi.sourceforge.net/DTD/sodipodi-0.dtd" xmlns:inkscape="http://www.inkscape.org/namespaces/inkscape" width="2397.1428" height="500" id="svg4700" version="1.1" inkscape:version="0.48.4 r9939" sodipodi:docname="Neues Dokument 5">
  <defs id="defs4702">
    <clipPath clipPathUnits="userSpaceOnUse" id="clipPath924">
      <path inkscape:connector-curvature="0" d="m 383.121,388.361 42.239,0 0,-9.02 -42.239,0 0,9.02" id="path926"/>
    </clipPath>
  </defs>
  <sodipodi:namedview id="base" pagecolor="#ffffff" bordercolor="#666666" borderopacity="1.0" inkscape:pageopacity="0.0" inkscape:pageshadow="2" inkscape:zoom="0.35" inkscape:cx="224.92254" inkscape:cy="171.21077" inkscape:document-units="px" inkscape:current-layer="layer1" showgrid="false" fit-margin-top="0" fit-margin-left="0" fit-margin-right="0" fit-margin-bottom="0" inkscape:window-width="1680" inkscape:window-height="990" inkscape:window-x="-4" inkscape:window-y="-4" inkscape:window-maximized="1"/>
  <metadata id="metadata4705">
    <rdf:RDF>
      <cc:Work rdf:about="">
        <dc:format>image/svg+xml</dc:format>
        <dc:type rdf:resource="http://purl.org/dc/dcmitype/StillImage"/>
        <dc:title/>
      </cc:Work>
    </rdf:RDF>
  </metadata>
  <g inkscape:label="Ebene 1" inkscape:groupmode="layer" id="layer1" transform="translate(-125.07746,24.998482)">
    <g id="g916" transform="matrix(56.85453,0,0,-56.85453,231.15319,224.97309)">
      <path inkscape:connector-curvature="0" d="M 0,0 C 0,1.399 1.134,2.533 2.533,2.533 3.932,2.533 5.066,1.399 5.066,0 5.066,-1.399 3.932,-2.533 2.533,-2.533 1.134,-2.533 0,-1.399 0,0" style="fill:#ec520d;fill-opacity:1;fill-rule:nonzero;stroke:none" id="path918"/>
    </g>
    <g transform="matrix(56.85453,0,0,-56.85453,-21660.285,22046.652)" id="g920">
      <g id="g922" clip-path="url(#clipPath924)">
        <g id="g928" transform="translate(384.639,384.654)">
          <path inkscape:connector-curvature="0" d="m 0,0 c -0.17,-0.613 -0.144,-1.275 0.076,-1.876 -0.344,0.089 -0.668,0.267 -0.937,0.536 -0.801,0.801 -0.801,2.099 0,2.899 l 0.057,0.058 c 0.093,0.093 0.177,0.082 0.226,0.033 0.047,-0.047 0.063,-0.07 0.057,-0.176 0,0 -0.004,-0.822 0.521,-1.474" style="fill:#ec520d;fill-opacity:1;fill-rule:nonzero;stroke:none" id="path930"/>
        </g>
      </g>
    </g>
    <g id="g932" transform="matrix(56.85453,0,0,-56.85453,289.42908,72.944079)">
      <path inkscape:connector-curvature="0" d="m 0,0 c -0.554,-0.313 -1.003,-0.8 -1.273,-1.38 -0.18,0.305 -0.284,0.661 -0.284,1.041 0,1.133 0.918,2.051 2.051,2.051 l 0.081,0 C 0.706,1.712 0.758,1.644 0.758,1.575 0.758,1.509 0.753,1.481 0.673,1.411 0.673,1.411 0.09,0.832 0,0" style="fill:#ec520d;fill-opacity:1;fill-rule:nonzero;stroke:none" id="path934"/>
    </g>
    <g id="g936" transform="matrix(56.85453,0,0,-56.85453,424.74286,57.991338)">
      <path inkscape:connector-curvature="0" d="m 0,0 c -0.61,0.181 -1.272,0.166 -1.877,-0.043 0.095,0.342 0.279,0.663 0.552,0.927 0.815,0.787 2.113,0.764 2.899,-0.05 L 1.63,0.776 C 1.722,0.681 1.709,0.597 1.66,0.549 1.612,0.503 1.589,0.487 1.482,0.496 1.482,0.496 0.661,0.513 0,0" style="fill:#ec520d;fill-opacity:1;fill-rule:nonzero;stroke:none" id="path938"/>
    </g>
    <g id="g940" transform="matrix(56.85453,0,0,-56.85453,528.16125,142.02233)">
      <path inkscape:connector-curvature="0" d="m 0,0 c -0.304,0.559 -0.782,1.017 -1.357,1.297 0.308,0.175 0.666,0.272 1.046,0.265 1.132,-0.02 2.034,-0.953 2.014,-2.086 L 1.701,-0.604 C 1.699,-0.736 1.631,-0.787 1.562,-0.785 1.495,-0.784 1.468,-0.779 1.399,-0.698 1.399,-0.698 0.831,-0.105 0,0" style="fill:#ec520d;fill-opacity:1;fill-rule:nonzero;stroke:none" id="path942"/>
    </g>
    <g id="g944" transform="matrix(56.85453,0,0,-56.85453,542.20432,273.86799)">
      <path inkscape:connector-curvature="0" d="M 0,0 C 0.18,0.61 0.166,1.272 -0.043,1.877 0.299,1.782 0.62,1.598 0.884,1.325 1.671,0.51 1.648,-0.788 0.834,-1.574 L 0.776,-1.63 C 0.681,-1.722 0.597,-1.709 0.549,-1.66 0.503,-1.612 0.487,-1.589 0.495,-1.483 0.495,-1.483 0.513,-0.661 0,0" style="fill:#ec520d;fill-opacity:1;fill-rule:nonzero;stroke:none" id="path946"/>
    </g>
    <g id="g948" transform="matrix(56.85453,0,0,-56.85453,459.48098,377.17267)">
      <path inkscape:connector-curvature="0" d="M 0,0 C 0.559,0.304 1.017,0.782 1.297,1.357 1.472,1.049 1.569,0.691 1.562,0.311 1.542,-0.821 0.609,-1.723 -0.523,-1.703 l -0.081,0.002 c -0.132,0.002 -0.182,0.07 -0.181,0.139 0.001,0.067 0.006,0.094 0.087,0.163 0,0 0.593,0.568 0.698,1.399" style="fill:#ec520d;fill-opacity:1;fill-rule:nonzero;stroke:none" id="path950"/>
    </g>
    <g id="g952" transform="matrix(56.85453,0,0,-56.85453,327.06678,392.0117)">
      <path inkscape:connector-curvature="0" d="M 0,0 C 0.61,-0.181 1.272,-0.166 1.877,0.043 1.782,-0.299 1.598,-0.62 1.325,-0.884 0.51,-1.671 -0.788,-1.648 -1.574,-0.834 l -0.056,0.058 c -0.092,0.095 -0.079,0.179 -0.03,0.227 0.048,0.046 0.071,0.062 0.177,0.053 0,0 0.822,-0.017 1.483,0.496" style="fill:#ec520d;fill-opacity:1;fill-rule:nonzero;stroke:none" id="path954"/>
    </g>
    <g id="g956" transform="matrix(56.85453,0,0,-56.85453,222.79558,309.34521)">
      <path inkscape:connector-curvature="0" d="m 0,0 c 0.313,-0.554 0.8,-1.003 1.38,-1.273 -0.306,-0.18 -0.661,-0.284 -1.041,-0.284 -1.133,0 -2.051,0.918 -2.051,2.051 l 0,0.081 c 0,0.131 0.068,0.183 0.137,0.183 0.066,0 0.094,-0.005 0.164,-0.085 0,0 0.579,-0.583 1.411,-0.673" style="fill:#ec520d;fill-opacity:1;fill-rule:nonzero;stroke:none" id="path958"/>
    </g>
    <g id="g964" transform="matrix(56.85453,0,0,-56.85453,950.02186,167.49316)">
      <path inkscape:connector-curvature="0" d="m 0,0 c -0.249,1.019 -0.969,1.375 -1.346,1.503 -0.157,0.05 -0.414,0.128 -0.805,0.128 -1.055,0 -1.917,-0.562 -2.273,-1.56 -0.178,-0.491 -0.185,-0.94 -0.185,-1.125 0,-0.691 0.15,-1.339 0.627,-1.874 0.449,-0.498 0.94,-0.612 1.19,-0.648 0.121,-0.021 0.306,-0.028 0.441,-0.028 0.47,0 0.941,0.085 1.29,0.413 0.185,0.178 0.235,0.327 0.263,0.434 0.007,-0.285 0.093,-0.463 0.143,-0.748 l 0.676,0 0,2.778 -2.172,0 0,-0.919 1.232,0 c -0.014,-0.099 -0.028,-0.156 -0.043,-0.206 -0.057,-0.157 -0.249,-0.591 -0.741,-0.762 -0.071,-0.022 -0.227,-0.064 -0.427,-0.064 -0.598,0 -0.919,0.299 -1.061,0.498 -0.15,0.207 -0.314,0.584 -0.314,1.19 0,0.84 0.307,1.246 0.634,1.46 0.299,0.192 0.613,0.207 0.734,0.207 0.499,0 0.919,-0.228 1.047,-0.734 L 0,0" style="fill:#151616;fill-opacity:1;fill-rule:evenodd;stroke:none" id="path966"/>
    </g>
    <g id="g968" transform="matrix(56.85453,0,0,-56.85453,1054.6911,80.846859)">
      <path inkscape:connector-curvature="0" d="m 0,0 -1.681,-5.029 1.211,0 0.313,1.019 1.696,0 0.306,-1.019 1.232,0 L 1.418,0 0,0 z m 0.107,-3.106 0.584,2.073 0.577,-2.073 -1.161,0" style="fill:#151616;fill-opacity:1;fill-rule:evenodd;stroke:none" id="path970"/>
    </g>
    <g id="g972" transform="matrix(56.85453,0,0,-56.85453,1240.4917,80.846859)">
      <path inkscape:connector-curvature="0" d="m 0,0 0,-5.029 1.111,0 0,2.016 0.314,0 c 0.562,0 0.833,0.007 1.068,-0.193 0.164,-0.135 0.249,-0.313 0.278,-0.733 l 0.021,-0.406 c 0.015,-0.164 0.007,-0.485 0.136,-0.627 0.021,-0.029 0.064,-0.05 0.071,-0.057 l 1.125,0 c -0.064,0.064 -0.092,0.1 -0.114,0.142 -0.092,0.178 -0.106,0.52 -0.114,0.527 -0.014,0.236 -0.028,0.841 -0.078,1.076 -0.107,0.549 -0.477,0.663 -0.698,0.72 0.114,0.028 0.285,0.078 0.499,0.27 0.092,0.086 0.149,0.164 0.178,0.207 0.192,0.278 0.206,0.648 0.206,0.748 0,0.149 -0.021,0.506 -0.292,0.833 C 3.284,0.021 2.621,0.007 2.016,0 L 0,0 z m 1.111,-2.123 0,1.168 0.933,0 c 0.285,0 0.435,-0.007 0.563,-0.071 0.114,-0.05 0.278,-0.192 0.278,-0.498 0,-0.079 -0.021,-0.421 -0.328,-0.549 C 2.408,-2.137 2.265,-2.13 1.945,-2.123 l -0.834,0" style="fill:#151616;fill-opacity:1;fill-rule:evenodd;stroke:none" id="path974"/>
    </g>
    <g id="g976" transform="matrix(56.85453,0,0,-56.85453,1500.7717,80.846859)">
      <path inkscape:connector-curvature="0" d="m 0,0 0,-5.029 1.432,0 c 0.684,0 0.99,0.014 1.318,0.107 1.04,0.299 1.36,1.225 1.453,1.56 0.085,0.292 0.121,0.577 0.121,0.89 0,1.154 -0.513,1.76 -0.905,2.052 C 2.871,-0.021 2.23,0 1.581,0 L 0,0 z m 1.125,-4.06 0,3.091 0.578,0 c 0.413,0 0.633,-0.028 0.819,-0.114 0.071,-0.035 0.206,-0.114 0.335,-0.27 0.263,-0.335 0.334,-0.763 0.334,-1.162 0,-0.099 0.007,-0.79 -0.356,-1.196 C 2.572,-4.01 2.18,-4.039 2.066,-4.053 1.881,-4.06 1.695,-4.06 1.51,-4.06 l -0.385,0" style="fill:#151616;fill-opacity:1;fill-rule:evenodd;stroke:none" id="path978"/>
    </g>
    <g id="g980" transform="matrix(56.85453,0,0,-56.85453,1769.4662,80.846859)">
      <path inkscape:connector-curvature="0" d="m 0,0 0,-5.029 3.79,0 0,0.961 -2.672,0 0,1.233 2.301,0 0,0.897 -2.301,0 0,0.983 2.622,0 L 3.74,0 0,0" style="fill:#151616;fill-opacity:1;fill-rule:evenodd;stroke:none" id="path982"/>
    </g>
    <g id="g984" transform="matrix(56.85453,0,0,-56.85453,2009.9609,80.846859)">
      <path inkscape:connector-curvature="0" d="m 0,0 0,-5.029 1.033,0 0,1.852 c 0,0.605 -0.007,1.197 -0.029,1.795 0.079,-0.235 0.122,-0.306 0.236,-0.527 0.106,-0.228 0.228,-0.449 0.349,-0.67 l 1.367,-2.45 1.154,0 0,5.029 -1.04,0 0,-2.187 c 0,-0.221 -0.007,-0.442 0,-0.662 0.007,-0.264 0.022,-0.52 0.043,-0.777 -0.05,0.114 -0.1,0.235 -0.157,0.356 -0.149,0.314 -0.32,0.613 -0.484,0.912 L 1.161,0 0,0" style="fill:#151616;fill-opacity:1;fill-rule:evenodd;stroke:none" id="path986"/>
    </g>
    <g id="g988" transform="matrix(56.85453,0,0,-56.85453,2347.2788,80.846859)">
      <path inkscape:connector-curvature="0" d="m 0,0 -1.681,-5.029 1.211,0 0.313,1.019 1.696,0 0.306,-1.019 1.232,0 L 1.417,0 0,0 z m 0.107,-3.106 0.584,2.073 0.577,-2.073 -1.161,0" style="fill:#151616;fill-opacity:1;fill-rule:evenodd;stroke:none" id="path990"/>
    </g>
  </g>
</svg>