<?xml version="1.0" encoding="UTF-8"?>
<!-- Generator: Adobe Illustrator 16.0.3, SVG Export Plug-In . SVG Version: 6.00 Build 0)  -->
<!DOCTYPE svg PUBLIC "-//W3C//DTD SVG 1.1//EN" "http://www.w3.org/Graphics/SVG/1.1/DTD/svg11.dtd">
<svg version="1.1" id="Goldochsen_Logo" xmlns="http://www.w3.org/2000/svg" xmlns:xlink="http://www.w3.org/1999/xlink" x="0px" y="0px" width="709px" height="576px" viewBox="0 0 709 576" enable-background="new 0 0 709 576" xml:space="preserve">
<path fill="#FFFFFF" d="M653.95,290c0,137.905-134.063,249.7-299.449,249.7C189.117,539.7,55.049,427.905,55.049,290  c0-137.906,134.068-249.7,299.451-249.7C519.886,40.3,653.95,152.094,653.95,290z"/>
<linearGradient id="SVGID_1_" gradientUnits="userSpaceOnUse" x1="43.9497" y1="290" x2="665.0493" y2="290">
	<stop offset="0.05" style="stop-color:#D29E46"/>
	<stop offset="0.21" style="stop-color:#FAE8B7"/>
	<stop offset="0.2517" style="stop-color:#ECCE8F"/>
	<stop offset="0.2991" style="stop-color:#DEB467"/>
	<stop offset="0.3368" style="stop-color:#D5A44F"/>
	<stop offset="0.36" style="stop-color:#D29E46"/>
	<stop offset="0.3893" style="stop-color:#D3A14A"/>
	<stop offset="0.4196" style="stop-color:#D8A957"/>
	<stop offset="0.4505" style="stop-color:#DFB66B"/>
	<stop offset="0.4817" style="stop-color:#E9C988"/>
	<stop offset="0.5128" style="stop-color:#F7E2AD"/>
	<stop offset="0.52" style="stop-color:#FAE8B7"/>
	<stop offset="0.5276" style="stop-color:#F7E2AD"/>
	<stop offset="0.5607" style="stop-color:#E9C988"/>
	<stop offset="0.5939" style="stop-color:#DFB66B"/>
	<stop offset="0.6266" style="stop-color:#D8A957"/>
	<stop offset="0.6589" style="stop-color:#D3A14A"/>
	<stop offset="0.69" style="stop-color:#D29E46"/>
	<stop offset="0.78" style="stop-color:#FAE8B7"/>
	<stop offset="0.95" style="stop-color:#D29E46"/>
</linearGradient>
<path fill="url(#SVGID_1_)" stroke="#1A1917" stroke-width="1.5" stroke-miterlimit="10" d="M665.049,290  c0,144.424-139.033,261.5-310.549,261.5C182.989,551.5,43.95,434.424,43.95,290c0-144.423,139.039-261.5,310.551-261.5  C526.016,28.5,665.049,145.577,665.049,290z M354.5,52.8C196.188,52.8,67.85,158.998,67.85,290  c0,131.003,128.338,237.2,286.651,237.2c158.315,0,286.649-106.197,286.649-237.2C641.15,158.998,512.816,52.8,354.5,52.8z"/>
<linearGradient id="SVGID_2_" gradientUnits="userSpaceOnUse" x1="145.3999" y1="290" x2="563.6001" y2="290">
	<stop offset="0.2" style="stop-color:#D29E46"/>
	<stop offset="0.3229" style="stop-color:#D39F48"/>
	<stop offset="0.3751" style="stop-color:#D5A44F"/>
	<stop offset="0.4139" style="stop-color:#DAAC5C"/>
	<stop offset="0.446" style="stop-color:#E0B86D"/>
	<stop offset="0.4741" style="stop-color:#E8C784"/>
	<stop offset="0.4989" style="stop-color:#F2D9A0"/>
	<stop offset="0.515" style="stop-color:#FAE8B7"/>
	<stop offset="0.5296" style="stop-color:#F2D9A0"/>
	<stop offset="0.552" style="stop-color:#E8C784"/>
	<stop offset="0.5774" style="stop-color:#E0B86D"/>
	<stop offset="0.6065" style="stop-color:#DAAC5C"/>
	<stop offset="0.6416" style="stop-color:#D5A44F"/>
	<stop offset="0.6888" style="stop-color:#D39F48"/>
	<stop offset="0.8" style="stop-color:#D29E46"/>
</linearGradient>
<path fill="url(#SVGID_2_)" stroke="#1A1917" stroke-width="1.5" stroke-miterlimit="10" d="M563.6,290  c0,89.691-93.617,162.4-209.1,162.4C239.017,452.4,145.4,379.691,145.4,290S239.017,127.6,354.5,127.6  C469.983,127.6,563.6,200.309,563.6,290z M354.5,149.3c-104.797,0-189.75,62.994-189.75,140.7c0,77.707,84.954,140.7,189.75,140.7  c104.796,0,189.749-62.994,189.749-140.7C544.25,212.294,459.296,149.3,354.5,149.3z"/>
<linearGradient id="SVGID_3_" gradientUnits="userSpaceOnUse" x1="200.1504" y1="392.8745" x2="508.1519" y2="392.8745">
	<stop offset="0" style="stop-color:#D29E46"/>
	<stop offset="0.0321" style="stop-color:#D4A350"/>
	<stop offset="0.0866" style="stop-color:#DBB16B"/>
	<stop offset="0.1566" style="stop-color:#E6C896"/>
	<stop offset="0.2" style="stop-color:#EDD8B5"/>
	<stop offset="0.3703" style="stop-color:#D29E46"/>
	<stop offset="0.3935" style="stop-color:#D5A451"/>
	<stop offset="0.4348" style="stop-color:#DCB470"/>
	<stop offset="0.4891" style="stop-color:#E8CDA0"/>
	<stop offset="0.51" style="stop-color:#EDD8B5"/>
	<stop offset="0.5366" style="stop-color:#E6C998"/>
	<stop offset="0.5743" style="stop-color:#DDB674"/>
	<stop offset="0.6098" style="stop-color:#D7A95B"/>
	<stop offset="0.6419" style="stop-color:#D3A14B"/>
	<stop offset="0.6676" style="stop-color:#D29E46"/>
	<stop offset="0.77" style="stop-color:#EDD8B5"/>
	<stop offset="0.8317" style="stop-color:#E4C48F"/>
	<stop offset="0.9053" style="stop-color:#DAAF67"/>
	<stop offset="0.964" style="stop-color:#D4A34F"/>
	<stop offset="1" style="stop-color:#D29E46"/>
</linearGradient>
<path fill="url(#SVGID_3_)" d="M200.15,360.75c32,38.399,89.2,64.249,154.4,64.249c64.701,0,121.5-26.35,153.602-64.249H200.15z"/>
<path fill="#1A1917" d="M302.45,373.8c1.3,0.801,1.9,0.301,1.8,2.9c-0.2,1.8-0.1,3.1-0.2,4.2c-0.2,3-2-3.5-6.5-2.601  c-2.7,0.4-6.2,3.801,3.2,9c7.5,4.301,4.7,21.9-8.6,18.5c-3.2-1.1-3.9-0.899-3.9-2.5c-0.3-2.5,0-2.8-0.4-5  c-0.3-3.3,0.6-2.399,1.9-0.8c2.7,3.101,5.3,4,7.2,2.3c2.1-1.8,1-6-4.4-8.199c-6.1-2.4-7.3-19.5,5.1-19.2  C299.25,372.601,300.851,373.101,302.45,373.8z M323.75,374.4v3.7c0.4,3-0.3,0.399-3.1-0.301c-3.7-0.8-5.4-0.699-5.3,1.9  c0,4-0.7,5.4,0.6,5.7c2.3,0.399,2.9,0.3,4.4,0c1.3-0.101,1.8-2.2,1.7,1.2c0.1,2.3,0.1,1.399-0.1,3.399c0,2.7-0.1,1.8-1.4,1.3  c-1.3-0.399-2.5-0.699-4.5-0.3c-1.3,0-1.1,0.4-1,1.7c-0.1,1.9-0.1,3.5-0.1,5.2c0,1.899-0.8,2.3,1.3,2.5c3,0.399,3.8,0.1,6.4-0.8  c1.5-0.301,2.5-2.101,2,0.6c-0.4,1.9-0.6,2.4-0.9,4.1c-0.1,0.9,0.4,1.301-1.5,1.4c-5,0.2-7.6,0.3-12.7,0.2c-2.9,0.1-1.2-0.8-1.3-3.5  c0.4-10.9,0.4-15,0.6-25.601c0.2-3.699-2.1-4.5,2.2-4.399c3.9,0.3,5.9-0.2,10.1,0C323.351,372.5,323.65,371.601,323.75,374.4z   M333.55,376.4c-0.1,9.8-0.3,16.1-0.1,26c-0.101,1.2,1.3,3.7-0.4,3.399c-2.1,0-3.4,0-6.1,0c-1.7,0.101-0.2-0.6-0.1-3.5  c0.1-8.899,0.1-16.5,0.2-25.8c0.1-2.899-1.5-3.8,0.6-3.899c1.8-0.101,4.2,0,5.5-0.2C335.151,372.4,333.35,373.2,333.55,376.4z   M341.35,405.8c-0.399-0.199,0.5-0.899,0.4-2.6c-0.1-8.4,0-12.5-0.1-20.5c0-3.7,0.1-5-0.9-4.9c-2.1-0.1-3.7,0.601-5.7,1.7  c0.5-2.3,0.5-4.899,0.8-7.1c4.601,0,12.3,0.3,16.9,0.1c0.6,0,1.1,0.2,1,1.3c-0.2,1.801-0.5,3.101-0.7,4.9c-0.3,1.8-0.8,0.2-2.2-0.3  c-0.8-0.4-1.399-0.4-2.399-0.3c-1,0.1-0.7,1.3-0.801,3.699c0,7.601-0.1,13,0,20.7c-0.1,2.8,1.2,3,0.301,3.2  C345.85,405.9,344.05,405.7,341.35,405.8z M367.45,405.601c1.4-0.101-0.199-0.4-0.1-2.601c0-7.6,0.199-29.3,0.199-30.3  c0-1.1-6,4.1-7.5,5.9c-0.898,1.199,1.301,0.399,1.301,2.3c0,1.8,0,19.6-0.201,21.899c-0.1,2.301-1.6,2.7,0.602,2.7  C363.651,405.601,365.651,405.7,367.45,405.601z M372.151,374.2c-0.301,4.5-0.701,10.6-1,14.2c-0.201,3.399,0.1,2.6,1.799,2.1  c2.201-0.7,8.1-2.2,8.301,4.4c0.299,8.399-5.801,5.3-7.801,4.2c-2.6-1.5-3.4-1.7-3,0c0.4,2,0.301,2.699,1,5.199  c0.4,1.301,1.301,1.801,5.6,2.101c10.5,0.8,12.201-11.5,10.701-15.2c-2.5-5.9-7.4-7.2-8.6-7.2c-0.801,0-1.201-0.1-1.102-1.2  c0.102-1.5,0-2.5,0.102-3.699c0.199-1.2,0.5-1.5,1.199-1.5c2.301,0.1,3.6,0.899,4.801,1.8c1.199,0.8,2.6,2.6,2.299-0.4  c-0.1-1.6-0.199-2.399-0.4-4c-0.302-1.95-1.207-2.014-1.787-2.013c-1.422,0.003-9.391-0.08-10.313-0.087  C372.591,372.659,372.185,373.847,372.151,374.2z M395.55,383.7c0-3.4,1.5-6.2,3.4-6.2s3.4,2.8,3.4,6.2s-1.5,5.8-3.4,5.8  S395.55,387.101,395.55,383.7z M408.751,383.9c-0.5-6.7-4.5-12.2-9.801-12.2c-5.299,0-9.699,5.4-9.6,12.2c0,8.1,2.5,11.8,9.6,11.7  c1.5,0,1.301-0.101,2-0.301c-0.199,2.4-1.9,4.9-3.9,5.7c-1.898,0.8-3.199,0.9-4.398,0.3c-0.701-0.3-1.102,2.2-1.602,4.4  c0.801,0.5,3.9,0.9,5.701,0.4c6.1-1.601,9.199-5.9,10.5-9.9C409.151,390.4,409.05,388.601,408.751,383.9z M410.95,372.5  c1.5,0.101,12.301,0,13.401,0c1.799,0,2.199,0,1.6,1.9c-1.5,5.7-6,23.1-7,27.8c-0.699,3.1,0,3.4-1,3.4c-1.1,0-2.699,0-5.1,0.1  c-2,0.2-2.201,0.1-1.5-1.8c0.799-2.3,4.401-15.8,5.7-20.7c1.102-4.2,2.5-5.3-1.5-5.5c-1.6,0-3.799,0.3-4.899,1  c-1.5,0.9-1.9,1.2-1.602-0.2c0.4-2.3,0.4-3.2,0.5-4.899C409.751,372.5,410.95,372.5,410.95,372.5z"/>
<line fill="none" stroke="#1A1917" stroke-width="1.5076" stroke-linecap="round" stroke-miterlimit="10" x1="204.5" y1="360.75" x2="504.5" y2="360.75"/>
<path fill="#1A1917" d="M472.152,217.2c6.6,16.1-7.9,27.4-15.801,39.4c-0.199,0-0.199,0.199-0.4,0.199  c0-6.899,0.201-13.699-0.799-20.6c-1.301-5.8-1.5-12-0.9-18c-0.201-2.1-1.1-4.1-2.6-5.6c1.898-3.601,7.5-2.301,11.1-2.301  C466.851,211,469.851,214,472.152,217.2 M434.152,300.8l-2.201,8.101l-5.6-11.5L434.152,300.8z M478.851,360.9  c0-3.601,1.9-10.5-1.1-13.7c-0.201-3.4,3-4.9,4.299-7.7c0.201-5.399-2.199-10.1-3.699-15c-1.301-9-4.9-17.3-3-27  c-0.4-2.399-1.699-4.5-3.6-5.8c-2.201-1.5-4.9-1.3-6.9-2.8c-3.199-3.4-7.1-7.101-8.301-11.601c11.801-21.199,42.201-40.3,27-68.1  c-8.299-13.7-23.799-17.1-38.799-15c-10.5,1.1-20.1,4.1-30.4,5.6c-13.301-1.699-28.7,0.2-41.401-0.6c-10.9-1.7-22.299-3-33.2-2.8  c-7.3,0.7-13.7-2.101-20.6-2.8c-10.7-0.7-22.7-2.801-31.7,3c-3.8,2.8-9.4,2.6-13.9,4.1c-3-0.2-5.4-2.2-7.7-3.6  c-3.7,1.1-7.1,0.199-10.3-0.9c-3.9,1.7-10.3,0.6-11.3,6.2c-3.2,0.899-3.4,4.5-5.1,6.399c-1.3,1.5-1.1,3.601-1.9,5.101  c-5.6,2.399-10.5,6.8-14.1,12c-3-0.2-3.9,3.899-6.6,2.8c-2.8-1.9-6-3-9.4-3c-3.9,3-0.8,7.9-1.1,11.8c-4.7,4.9-7.7,6.7,4.3,15.8  c0.4,0.7-0.2,1.301-0.2,1.7c-2.8,3.9-6.6,7.5-6.2,12c3.9,2.2,8.8,0.9,13.1,1.3c8.1,3,9.4,11.801,13.9,17.801c2.2,4.5,3.4,10.5,9,12  c3.2-2.601,8.6,0.399,11.1-3.2c1.7-1.7,3.2-3.5,4.7-5.101c1.7,2.801,5.1,2.5,7.5,4.101c2.8,0.6,5.8,1.1,8.8,1.3  c2.8,8.6,10.9,14.2,18.6,17.1c1.9,2.801,2.1,6.2,2.1,9.7c-3,6.2-6.6,12.2-9.8,18.2c-4.5,4.9-6.9,13.5-7.1,20.1h24.6  c-2.6-0.699,0.6-5.8-0.2-8.199c-1.5-1.9,0-3.9,1.1-5.601c1-0.6,2.8-0.2,3.8-1.1c3-2.601,0.9-7.3,2.8-10.5c1.3-4.7,4-8.601,6.2-12.9  c0.2-6.399,3.7-11.3,6.2-16.899c1.3-0.601,2.8,0.199,4.1,0.899c6.4,7.101,7.3,18.2,16.9,22.101c2.601,3.399,3.7,7.5,6.601,10.899  c1.3,4.5-2.601,7.7-3.7,11.601c-0.4,2.399-0.601,7.5-0.4,9.699l20.799,0.2c0,0,1-4.3,1-5.6c0-4.101-1.699-9.2,1.301-12.4  c1.301-1.5,2.801-3.899,1.301-5.8c-5.201-5.1-7.5-11.4-11.102-17.1c-0.199-6.7-5.399-11.2-5.599-18c0.2-1.7-0.7-3.5-0.5-5.101  c4.3-1.3,9.4-0.399,13.701-1.5c3-0.399,6.398-2.8,9.398-1.1c1.701,1.3,3.701,2.1,5.4,3.399c0.701,2.301,1.701,4.9,4.301,6.2  c4.5,0.601,6.799-4.5,10.299-6.7c0.4-0.199,0.602,0.4,1.102,0.4c2.1,5.1,5.199,9.4,8.6,13.7c-3.4,10.3-15.701,16.5-19.701,26.399  c0,3.9,0,7.301,1.301,10.7c-0.6,3.2-1.801,9.3-0.699,12.5l12.898-0.2c-2.6-4.3,7.102-4.8,8-10.399c0-2.601-3.398-4.101-2.1-6.601  c6.6-6.6,10.702-16.1,19.301-21.199c3.4-2.101,6.6-4.5,10.1-6.4c1.5,1.7,2.199,4.5,3.699,6.7c1.9,2.1,3.4,6.399,7.102,5.8  c2.398-0.2,1.1-5.6,3.898-2.8c0.9,0.7,1.701,2.2,3,1.3c5.801-1.9-4.898-20.8,5.102-7.9c0.898,3.2,2.799,6,3.398,9.4  c1.701,4.1-0.199,9.4,1.5,13.3c0.602,6-4.699,12.8-3.699,19.3L478.851,360.9z"/>
<linearGradient id="SVGID_4_" gradientUnits="userSpaceOnUse" x1="277.5195" y1="276.8506" x2="483.2466" y2="276.8506">
	<stop offset="0" style="stop-color:#D29E46"/>
	<stop offset="0.1206" style="stop-color:#D3A049"/>
	<stop offset="0.1932" style="stop-color:#D6A551"/>
	<stop offset="0.253" style="stop-color:#DBAF5F"/>
	<stop offset="0.3059" style="stop-color:#E2BC73"/>
	<stop offset="0.3542" style="stop-color:#EBCD8E"/>
	<stop offset="0.3986" style="stop-color:#F7E2AE"/>
	<stop offset="0.41" style="stop-color:#FAE8B7"/>
	<stop offset="0.43" style="stop-color:#FAE8B7"/>
	<stop offset="0.4458" style="stop-color:#F7E2AE"/>
	<stop offset="0.5075" style="stop-color:#EBCD8E"/>
	<stop offset="0.5747" style="stop-color:#E2BC73"/>
	<stop offset="0.6483" style="stop-color:#DBAF5F"/>
	<stop offset="0.7314" style="stop-color:#D6A551"/>
	<stop offset="0.8323" style="stop-color:#D3A049"/>
	<stop offset="1" style="stop-color:#D29E46"/>
</linearGradient>
<path fill="url(#SVGID_4_)" d="M451.652,199c-7.4-0.1-14.201,1.4-21,3c-7.5,1.7-15,3.4-23.102,2.8  c-5.898-0.199-11.799,0-17.699,0.301c-5.1,0.199-10.301,0.5-15.5,0.399c-3.4-1.5-7.701-0.6-11.6-1.5  c-8.8-0.8-18.601-1.899-27.701-1.3c-7.3-0.8-14.5-1.9-21.6-3c-7.1-0.2-14.4-1.3-20.8,1.5c-2.3,1.7-4.7,3.9-7.7,4.7  c-2.2-0.4-4.1-1.3-6.2-0.2c-3.4,1.5,1.3,3.1,1.5,5.8c2.8,0.4,3.4,2.8,4.3,4.3c2.3-0.399,2.6,3.2,4.5,4.301  c2.8-2.101,4.9-7.301,9.2-6.4c0.9,1.5-0.4,2.8-1,4.1c-1.9,3.801-2.4,8.2-4.9,11.801c-0.7,5.8,5.6,11.199,0.2,16.1  c-0.9,1.5-0.4,3.5,1.3,4.1c1.1,1.9-0.6,3.5-1.9,4.7c-2.2,3-3.9,6.4-3.5,10.101c3,4.5,2.8,9.6,4.5,14.6c1.3,4.9,9.9,5.8,7.5,12  c-0.6,6.8,0.6,13.9-1.3,20.6c-0.6,3.4,0.2,7.301-0.2,10.7c-3,7.3-4.9,15-10.7,21.2c-1.9,3-4.9,6.2-4.1,9.8c2.6,0.4,6.2,1,8.6-0.399  c1.1-2.4-1.9-2.801-2.6-4.301c0-1.899,2.6-0.699,3.4-1.899c0.9-1.7,0.9-3.601,0.6-5.8c0.6-1.101,1.7-0.9,2.7-0.8  c1,0.199,1.9,0.3,2.5-0.7c1.3-6,3.9-11.4,7.3-16.5c2.6-11.4,10.4-18.9,11.6-31c1-1.8-4-7.4-9.4-9.2c-2.2-0.7-4.6-0.4-6.5-0.2  c-1.8,0.2-3.2,0.4-3.8-0.1c0.2-5.101,7.7-7.9,12.2-7.5c5.5,0.2,6.8,6.399,10,9.6c5.7,4.2,3.1-8.7,3.2-9.2c1.2-5.6,8-13.1,11.1-12.8  c1.7,1.3,4.601,9.9,12.8,10.5c5.801,0.7,18.5,0.9,23.801-1.5c5.799-4,14.6-1.7,20.1-6.8c2.4-1.9,2.199-5.4,3-8.1  C396.95,248.5,401.45,241,402.45,231.7c-0.4-2.6-2.799-4.5-3-7.1c0.201-1.7,2.1-1.5,3.4-1.7c3.5,0.899,4.699,4.5,6.4,7.1  c1.1,2,4.299,1.7,4.299,4.5c-2.399,3-5.5,4.5-8.299,7.101c-0.801,2.6-2.4,4.899-3.201,7.3c-0.898,2.8-2.199,5.6-1.299,8.3  c9.199,12.601,19.7,24.8,31.7,36c8.1,7.101,19.5,8.101,26.301,17.4c1.5,7.5,5.1,13.899,7.699,20.8c-0.4,5.1-0.4,10.5-0.4,15.899  c-1.1,2.301-3,4.9-2.199,7.301c2.4,0,4.699,0.399,7.301,0.199c2.1,0.4,1.898-2.1,1.699-3.6c-2.801-1.7-2.6-5.2-1.301-7.9  c0.701-2.5,5.102-3.899,4.102-7.3c-3.9-9-4.701-19.3-6.701-29.1c-1.1-2.4,0.201-5.2-0.6-7.7c-1.1-2.8-4.5-1.9-6.6-3.6  c-6.201-6.4-12.201-13.301-15.701-21.2c2.602-12,4.102-25.9,2.201-38.4c-2.201-5.6-1.5-11.399-0.701-17.6  c-1.1-2.601-3.799-3.4-5.799-5.101c-0.6-1-0.801-2.8,0.699-3.8c6.6-5.8,17.5-6,25.301-2.399c6.6,3.6,11.799,10.5,10.9,18.6  c-1.9,17.2-16.5,28.9-25,43.3c-0.201,1.3-1.102,3,0,3.9c6.398-7.5,12.398-15.4,18.398-23.2c7.701-9.8,15.602-23.3,8.301-36  c-5.5-8.7-14.5-14.4-24.9-14.4C454.351,198.7,452.951,198.8,451.652,199"/>
<path fill="#D29E46" d="M392.751,273.601c1.214-1.992,2.403-4.301,4.475-5.187c1.505-0.644,3.209,0.339,3.785,1.398  c0.414,0.761-0.097,1.337-0.754,1.82C397.857,273.394,396.091,272.784,392.751,273.601z M328.45,291.3  c-0.944-0.314-2.113-0.399-3.1-0.399c-0.665-0.054-1.174,0.186-1.651,0.753c-1.01,1.202-1.204,2.943-1.349,4.447  c1.903,0.132,3.392-0.729,4.891-1.798C328.212,293.611,329.876,292.373,328.45,291.3z M263.95,220.8  c-0.609-0.813-1.483-1.529-2.567-1.942c-1.236-0.471-2.583-0.419-3.861-0.157c-0.633,0.13-1.538,0.387-2.507,0.91  c-1.392,0.751-2.721,0.506-3.983-1.039c-2.034-2.491-3.673-3.507-5.524-2.839c-11.01,3.973-15.291,9.004-17.576,12.57  c-0.437,0.682,0.072,1.158,0.343,1.498c0.806,1.011,2.069,1.699,3.375,1.699c2.243,0,4.745-1.599,6.495-2.95  c3.049-2.354,5.352-5.503,7.696-8.519c0.534-0.687,1.021-1.631,2.009-1.631c0.962,0,1.246,1.254,1.509,1.967  c0.33,0.897,0.661,1.934,1.46,2.529c0.807,0.602,1.352,0.188,2.252-0.129c2.029-0.717,4.037-1.58,6.219-1.66  c1.068-0.04,1.886,0.451,2.56,1.293c0.672,0.84,0.553,1.928,0.259,2.892c-0.695,2.281-2.206,4.235-2.704,6.589  c-0.242,1.143-0.132,2.268-0.055,3.418c1.803-1.781,2.96-3.741,3.784-6.117c0.493-1.421,0.84-2.899,1.012-4.394  C264.307,223.398,264.341,222.081,263.95,220.8z M214.05,247.3c1.381-0.991-0.229-2.633-0.7-3.6c-0.191-0.478-0.4-0.976-0.4-1.5  c-0.002-0.188,0.028-0.371,0.091-0.548c0.166-0.443,0.402-0.129,0.724,0.014c1.066,0.475,2.165,0.898,3.31,1.138  c0.929,0.195,1.854,0.196,2.797,0.196c0.298,0,0.149-1.188,0.103-1.337c-0.315-1.026-1.324-0.759-1.925-1.363  c-0.291-0.434,0.8-1.128,1.143-1.317c0.768-0.422,1.727-0.849,2.621-0.771c1.096,0.096,2.14,0.609,3.208,0.854  c1.033,0.237,2.134,0.156,2.919-0.638c0.339-0.344,0.58-0.78,0.749-1.229c0.516,0,1.019,0.012,1.509,0.192  c0.396,0.146,0.767,0.346,1.044,0.671c0.165,0.193,0.283,0.575,0.507,0.687c0.939,0.467,1.994,0.698,3.041,0.641  c2.243-0.122,4.184-1.355,6.159-2.291c-0.428-0.465,0.708-1.127,1.029-1.459c0.591-0.609,1.139-1.26,1.636-1.948  c0.96-1.329,1.727-2.794,2.274-4.34c0.892-2.519,1.06-5.108,1.06-7.753c-1.432,1.431-2.533,2.975-3.644,4.669  c-0.676,1.032-1.28,2.095-2.208,2.93c-0.393,0.354-0.934,0.586-1.298,0.95c-0.343,0.343-0.663,0.698-1.047,0.997  c-2.101,1.635-4.975,1.895-7.442,2.677c-0.663,0.21-1.317,0.454-1.943,0.757c-0.414,0.2-0.969,0.708-1.417,0.719  c-0.894,0-0.981-1.914-1.397-2.533c-0.955-1.42-3.571-1.502-4.574-0.07c-0.35,0.499-0.655,2.417-1.472,2.18  c-0.512-0.148-0.935-0.56-1.337-0.889c-0.484-0.397-0.974-0.566-1.52-0.837c-0.624-0.311-1.947,1.166-2.27,1.608  c-0.783,1.071-1.177,2.387-2.13,3.342c-0.909,0.748-2.203,1.004-3.108,1.839c-0.874,0.806-1.728,2.114-1.252,3.344  C209.682,245.332,211.129,249.057,214.05,247.3z M252.342,225.907c-1.396,0.999-2.505,2.331-3.212,3.896  c-1.264,2.8-1.229,5.896-1.479,8.897c2.753-1.338,4.604-3.387,6.115-6.058c0.804-1.419,1.484-2.904,2.275-4.33  c0.534-0.962,2.415-2.941,1.01-3.813C256.123,223.925,253.175,224.984,252.342,225.907z M209.851,234.2  c0.241,0.482,0.422,1.082,1.004,1.258c0.607,0.184,1.298-0.36,1.695-0.758c0.765-0.574,1.357-1.543,0.571-2.33  c-1.218-1.218-2.94-1.906-4.471-2.67C208.999,231.209,209.293,232.751,209.851,234.2C210.05,234.601,209.351,232.9,209.851,234.2z   M256.05,241.2c-0.194-0.876-0.523-1.778-1.2-2.4c-0.633-0.582-1.597,0.124-2.121,0.526c-0.651,0.5-3.747,4.244-4.425,2.448  c-0.557-1.475-1.692-2.44-2.754-0.975c-0.522,0.786-0.753,1.831-1.063,2.713c-0.222,0.631-0.508,1.818-1.336,1.892  c-1.791,0.159-3.101-1.256-4.396-2.27c-1.498-1.173-3.214-1.922-5.117-1.283c-0.636,0.214-1.106,0.657-1.69,0.979  c-0.849,0.467-1.783,0.781-2.744,0.907c-1.843,0.241-3.49-0.325-5.154-1.037c-0.178,0.713-0.313,1.456-0.782,2.048  c-0.744,0.939-2.021,1.23-3.118,1.545c-1.985,0.569-4.101,1.794-4.101,4.157c0,0.511,0.297,1.15,0.42,1.651  c0.164,0.669,0.318,1.339,0.476,2.009c0.351,1.485,0.718,2.97,1.229,4.41c0.771,2.171,1.903,4.287,3.722,5.757  c0.903,0.73,1.946,1.271,3.053,1.617c0.734,1.484,1.487,2.959,2.256,4.426c1.498,2.856,3.057,5.68,4.662,8.478  c1.617,2.817,3.279,5.608,4.977,8.376c0.436,0.71,0.727,2.32,1.755,2.507c1.63,0.295,0.654-1.434,1.145-2.2  c0.547-0.854,2.511-0.913,3.192-0.519c1.122,0.649,1.505,2.13,2.589,2.847c2.308,1.525,4.705-1.458,5.329-3.409  c0.347-1.083,0.616-2.387,0.164-3.455c-0.521-1.231-1.149-2.425-2.153-3.335c-0.336-0.305-0.508-0.304-0.549-0.774  c-0.029-0.332-0.081-0.661-0.147-0.987c-0.134-0.661-0.324-1.31-0.462-1.97c-0.12-0.572-0.487-3.099,0.673-2.866  c0.945,0.189,1.297,1.423,2.068,1.887c0.548,0.182,1.014,0.284,1.563,0.025c0.485-0.229,0.771-0.691,1.237-0.925  c0.595-0.628,0.616-1.942,0.822-2.82c0.36-1.538,0.744-3.07,1.019-4.626c0.202-1.145,0.546-2.474,0.227-3.616  c-0.439-1.571-0.598-3.203-0.647-4.828c-0.09-2.956,0.148-5.939-0.24-8.88c-0.163-1.237-0.447-2.458-0.881-3.629  c-0.013-0.605,0.406-0.74,0.963-0.838c0.384-0.068,1.786,0.085,2.037-0.362c0.035-0.063-0.138-0.84-0.143-0.886  C256.319,242.739,256.22,241.963,256.05,241.2C255.851,240.3,256.25,242.101,256.05,241.2z M214.45,259.601  c-1.233-1.083-2.162,0.151-2.864,1.114c-0.19,0.261-1.002,2.58-0.224,2.45c1.304-0.216,2.464,0.808,3.704-0.1  c0.316-0.232,0.578-0.533,0.785-0.865c-0.001-0.152-0.342-0.499-0.408-0.638C215.131,260.909,215.021,260.101,214.45,259.601  C214.131,259.32,215.123,260.19,214.45,259.601z M294.65,287.2c-0.611-0.671-1.449-1.187-2.125-1.8  c-1.068-0.97-2.124-1.975-3.021-3.108c-0.289-0.365-0.584-0.746-0.795-1.164c-0.209-0.413-0.17-0.851-0.482-1.233  c-0.932-1.143-1.843,0.365-2.056,1.175c-0.333,1.266-0.288,2.666,0.017,3.931c0.331,1.374,1.091,2.369,0.913,3.834  c-0.365,2.987-1.696,5.79-2.502,8.667c-0.34,1.213-0.683,2.55-0.511,3.819c0.161,1.19,1.076,2.353,1.857,3.253  c1.586,1.828,3.807,3.028,6.256,3.028c0.874,0,1.701-1.395,1.989-2.074c0.23-0.542,0.345-1.122,0.486-1.692  c0.125-0.501,0.449-0.979,0.575-1.435c0.262-0.95,0.125-2.225,0.199-3.214c0.112-1.507,0.227-3.015,0.277-4.525  c0.049-1.48,0.058-2.983-0.151-4.453c-0.085-0.598-0.21-1.193-0.416-1.763C295.053,288.149,294.524,287.342,294.65,287.2z   M390.651,287.9c1.308-1.108,2.674-2.138,3.837-3.407c0.851-0.928,0.689-2.237-0.738-2.289c-0.545-0.021-1.063-0.049-1.601-0.104  c-0.533-0.054-0.659,0.048-1.201,0.334c-4.097,2.166-8.639,4.521-10.827,6.795c-0.393,0.408-0.4,0.34,0,0.74  c1.195,1.196,2.809,1.968,4.21,2.888c1.111,0.729,1.853,1.441,2.319,2.742c0.412-0.207,0.887-0.398,1.231-0.708  c0.83-0.746,0.427-1.593,0.067-2.393C387.078,290.75,389.455,288.911,390.651,287.9C391.95,286.8,389.355,288.996,390.651,287.9z   M282.15,289.9c-0.177-0.709-0.252-1.325-0.935-1.737c-0.676-0.407-1.4-0.264-2.055,0.122c-1.213,0.714-1.21,1.973-1.21,3.215  c-0.001,2.747,1.478,5.066,2.9,7.3c0.52-1.248,0.937-2.465,1.141-3.813C282.226,293.432,282.542,291.462,282.15,289.9  C282.05,289.5,282.25,290.3,282.15,289.9z M426.55,307.3c-1.309-1.361-2.099-3.254-2.926-4.923  c-0.838-1.689-1.528-3.474-3.201-4.443c-3.768-2.181-8.007-3.182-12.073-4.634c-1.876-0.561-4.166-2.313-6.1-1.5  c-1.097,0.516-2.034,1.1-2.183,2.306c-0.125,1.012,0.446,2.141,0.845,3.038c1.143,2.569,2.921,4.82,4.729,6.95  c1.732,2.042,4.283,4.381,4.677,7.168c0.154,1.091-0.585,2.556-1.052,3.513c-0.617,1.264-1.41,2.435-2.278,3.539  c-1.801,2.292-3.916,4.313-5.934,6.409c-1.998,2.075-3.692,4.35-5.541,6.547c-1.697,2.017-3.395,4.086-4.537,6.479  c-0.549,1.15-0.958,2.368-1.174,3.625c-0.171,0.994,0.38,2.089,0.469,3.103c0.268,3.044-0.22,6.13,0.579,9.123  c0.073,0.337-0.012,0.494,0.35,0.5c2.61,0.043,6.391-1.613,8.361-3.26c0.388-0.324,0.489-1.116,0.489-1.341  c0-0.668-0.15-1.337-0.512-1.9c-1.603-2.488-4.493-2.717-4.162-5.212c0.077-0.58,0.24-1.561,0.729-1.92  c1.001-0.737,2.081-0.23,3.663-1.172c0.956-0.569,1.4-1.727,2.075-2.561c0.815-1.006,1.608-2.031,2.391-3.062  c1.514-1.993,2.993-4.012,4.528-5.988c3.032-3.903,6.334-7.724,10.489-10.47c0.964-0.636,1.968-1.21,3.01-1.708  c1.113-0.533,2.384-0.842,3.305-1.702c0.846-0.79,1.368-1.885,1.531-3.024C427.281,309.491,426.836,308.499,426.55,307.3z   M446.05,309.101c0-1.044,0.505-1.868-0.21-2.627c-1.033-1.098-2.206-2.083-3.519-2.83c-1.3-0.74-2.763-1.243-4.271-1.243  c-0.453,0.072-0.361-0.017-0.6,0.399c-0.353,0.926-0.63,1.88-0.829,2.851c-0.638,3.113-0.449,6.396,0.538,9.417  c0.875,2.68,2.418,4.703,4.191,6.833c0.694-0.833,1.09-1.644,1.215-2.745c0.073-0.644-0.082-2.747,0.785-2.956  c1.171,0,1.826,1.704,2.486,2.446c0.527,0.593,1.243,0.951,1.914,1.354c0-1.538-0.095-3.022-0.441-4.53  C446.827,313.367,446.05,311.284,446.05,309.101z M356.341,328.287c-4.727-6.905-6.311-15.422-11.291-22.186  c-1.803-2.238-4.531-2.7-7.2-2.7c-0.896,0-2.024-0.193-2.899,0c-1.058,0.423-2.342,1.287-2.482,2.509  c-0.159,1.39,5.279,13.328,6.881,14.89c0.814,0.633,1.545,1.37,2.504,1.791c0.544,0.239,1.149,0.365,1.744,0.287  c0.365-0.048,0.716-0.17,1.042-0.338c0.309,0.242,0.59,0.517,0.841,0.818c0.825,0.991,1.311,2.214,1.733,3.418  c0.231,0.661,0.444,1.328,0.679,1.988c0.189,0.532,0.543,1.105,0.661,1.65c0.675,3.113,2.868,5.743,4.09,8.637  c0.441,1.046,0.827,2.13,1.048,3.247c0.104,0.526,0.261,1.107-0.005,1.589c-0.335,0.608-0.706,1.195-1.082,1.779  c-1.293,2.01-3.623,5.134-2.955,8.334c0.463,0.116,0.985,0.263,1.452,0.363c1.438,0.306,2.906,0.389,4.372,0.303  c0.739-0.043,1.476-0.124,2.21-0.219c0.408-0.053,1-0.023,1.366-0.247c1.202-0.962,0.525-2.26,0.201-3.5  c-0.308-0.634-1.286-0.787-1.859-1.271c-0.965-0.814-0.253-2.098,1.745-4.349c0.94-1.059,2.126-2.28,2.114-4.171  c-0.019-2.938-0.9-4.956-1.988-7.107C358.326,331.949,357.352,330.099,356.341,328.287z"/>
<path fill="#1A1917" d="M226.45,257.7c-0.631,1.368-1.957,2.311-1.191,3.95c0.657,1.407,2.051,2.75,3.691,2.75  c0.59-0.337,0.997-1.024,1.085-1.69c0.076-0.566-0.497-1.485-0.719-2.011C228.764,259.39,227.975,257.978,226.45,257.7"/>
<path fill="#1A1917" d="M233.75,253c-1.011,0.312-2.138,0.595-2.845,1.444c-0.159,0.191-0.289,0.404-0.387,0.632  c-0.219,0.508-0.065,0.656,0.112,1.147c0.283,0.784,0.322,1.616,0.321,2.441c0,1.317-0.064,3.215,1.281,3.893  c0.97,0.489,2.052,1.65,3.243,1.328c1.094-0.296,1.502-2.095,2.06-2.996c0.653-1.056,1.377-2.119,1.672-3.342  c0.139-0.574,0.168-1.17,0.071-1.753c-0.156-0.929-0.518-1.265-1.282-1.764C236.71,253.191,235.294,252.72,233.75,253"/>
<path fill="#CD181C" d="M289.15,242.9c-0.255,0.065-0.679,0.565-0.977,0.776c-0.477,0.338-1.002,0.602-1.543,0.819  c-1.158,0.465-2.407,0.7-3.471,1.383c-0.921,0.591-1.312,1.519-1.271,2.575c0.043,1.091,0.008,2.277,0.84,3.102  c0.395-0.678,0.553-1.587,1.121-2.155c0.605-0.604,2.132-0.804,3.15,0.238c0.617,0.631,0.618,2.082-0.15,3.361  c-0.302,0.38-0.649,0.237-1.128,0.826c-0.479,0.589-0.814,1.269-1.284,1.861c-0.396,0.499-0.87,0.882-1.412,1.207  c-0.337,0.203-0.643-0.674-0.772-0.957c-0.068,0.054-0.136,0.109-0.204,0.163c-0.089-0.179-0.265-0.405-0.3-0.601  c0.408-0.203-0.307-1.684-0.479-2.076c-0.307-0.699-0.488-0.934-1.22-0.838c-0.992,0.13-1.575-0.224-2.066-1.081  c-0.905-1.579,0.424-3.211,1.457-4.899c0.325-0.532,0.978-1.838,0.665-3.021c-0.139-0.524-0.3-1.164-0.408-1.587  c-0.17-0.672-0.329-0.573-0.749-0.298c-0.406,0.221-0.707,0.501-1.2,0.6c-0.715,0.12-1.472-0.002-2.169,0.198  c-0.462,0.133-0.878,1.123-1.131,1.502c-0.154-0.538-0.32-1.073-0.454-1.615c-0.299,0.209-0.437,0.043-0.67-0.144  c-0.195-0.156-0.232-0.101-0.029-0.351c0.267-0.328,0.381-0.178,0.245-0.659c-0.178-0.631-0.37-1.305-0.837-1.787  c-0.187-0.193-0.407-0.349-0.652-0.46c-0.281-0.128-0.458,0.038-0.703-0.084c-0.126,0-0.87-0.321-0.916-0.289  c-0.199,0.14-0.399,0.279-0.598,0.418c-0.462,0.323-0.924,0.646-1.386,0.97c0.287-0.573,0.573-1.146,0.86-1.72  c-0.399-0.109-0.547-0.461-0.76-0.78c0.333-0.166,0.721-0.246,1.09-0.17c0.441,0.091,0.943-0.31,1.427-0.408  c0.902-0.182,0.798-0.974,0.083-1.389c-0.806-0.469-1.732-0.741-2.487-1.295c-0.464-0.34-1.233-1.021-1.42-1.603  c-0.184-0.575,0.218-1.143,0.582-1.548c0.307-0.34,0.752-0.545,0.792-1.032c0.046-0.563-0.211-0.897-0.613-1.235  c-0.686-0.576-1.386-1.149-1.884-1.904c-0.311-0.346-0.569-0.742-0.705-1.19c-0.089-0.294,0.029-0.881-0.265-1.026  c0.056,0.009,0.112,0.019,0.168,0.028c0.065-0.802,0.654-1.541,0.729-2.414c0.087-1.002-0.039-2.013-0.188-3.003  c-0.074-0.494-0.08-0.677-0.61-0.811c-0.457-0.228-0.959-0.335-1.4-0.6c-0.13-0.064-0.872-0.367-0.899-0.5  c-0.036-0.17,0.369-0.895,0.373-1.147c0.006-0.303-0.013-1.178-0.387-1.24c-0.324-0.053-0.676,0.135-0.968,0.256  c-0.373,0.155-0.748,0.28-1.158,0.21c-0.59-0.1-0.641-0.666-1.187-0.688c-0.543-0.021-0.694,0.032-0.609-0.481  c0.033-0.2,0.072-0.287,0.316-0.251c-0.04-0.117-0.067-0.237-0.081-0.36c0.153,0.029,0.308,0.051,0.463,0.065  c-0.021-0.188-0.042-0.376-0.063-0.565c0.786,0.175,1.5,0.359,2.313,0.237c1.281-0.537,2.378-1.09,2.484-2.764  c0.036-0.566-0.063-1.135-0.208-1.681c-0.183-0.689-0.335-0.917-1.055-1.087c-0.669-0.159-1.324-0.098-1.985,0.071  c-0.412,0.105-0.779,0.323-1.204,0.323c-0.571,0-1.491-0.109-1.717,0.585c-0.368,1.127,0.471,2.661-0.456,3.589  c-0.679,0.681-2.183-0.115-2.793-0.522c-0.187-0.125-0.078-0.764-0.078-0.952c0-0.8,0-1.6,0-2.399c0-2.202-0.777-5.755-3.811-4.708  c-0.351,0.121-1.448,0.347-1.636,0.629c-0.154,0.232,0.137,1.096,0.335,1.245c0.824,0.617,1.849,0.112,2.772,0.418  c0.134,0.045,0.655,0.245,0.625,0.394c-0.088,0.441-0.127,0.893-0.251,1.326c-0.359,1.25-1.42,2.122-2.757,1.979  c-2.268-0.242-4.556-2.913-3.83-5.216c0.366-1.163,1.33-2.085,2.383-2.646c0.767-0.409,1.769-0.328,2.618-0.454  c2.618-0.388,5.54-0.812,7.86,0.793c0.569,0.394,0.657,0.765,1.292,0.341c0.383-0.255,0.679-0.627,1.123-0.774  c0.267-0.089,0.85,0.209,1.093,0.28c0.672,0.195,1.343,0.395,2.015,0.592c1.315,0.385,2.636,0.754,3.972,1.062  c0.363,0.084,1.1,0.083,1.397,0.34c0.298,0.258,0.458,1.129,0.485,1.5c0.059,0.796-0.303,2.335,0.626,2.722  c0.629,0.262,1.131-0.073,1.781-0.007c0.549,0.055,1.057,0.282,1.492,0.617c1.008,0.779,1.671,1.864,2.352,2.918  c0.396,0.612,1.107,2.293,1.848,1.228c0.276-0.397,0.52-0.808,0.699-1.258c0.038-0.095,0.211-0.763,0.317-0.819  c0.099-0.052,0.725,0.241,0.85,0.284c0.552,0.19,1.097,0.405,1.608,0.688c1.042,0.576,1.854,1.487,2.406,2.546  c0.279,0.536,0.705,2.15,0.199,1.883c-1.482,1.965-1.337,3.382-0.063,5.599c0.447,0.894,0.999,1.737,1.332,2.685  c0.178,0.505,0.643,0.779,0.946,1.23c0.294,0.437,0.508,0.923,0.622,1.438c0.202,0.913,0.158,1.875,0.22,2.802  c0.032,0.478,0.103,0.962,0.276,1.411c0.047,0.121,0.314,0.508,0.303,0.634c-0.005,0.053-0.442,0.546-0.466,0.601  c-0.226,0.507-0.109,1.038,0.029,1.55c0.165,0.613,0.299,1.23,0.437,1.85c-1.424-0.158-2.617-0.038-3.866,0.774  c-0.909,0.591-1.351,1.118-1.553,2.201c-0.151,0.809-0.191,2.046,0.609,2.522c0.653,0.389,0.953-0.77,1.207-1.181  c0.481-0.779,1.222-1.516,2.203-1.516C288.77,239.101,290.637,241.412,289.15,242.9z M269.65,209.8  c-0.203-0.912-1.019-2.151-2.072-1.418c-0.941,0.655-1.895,1.622-1.575,2.863c0.265,1.024,1.064,1.358,2.047,1.055  C268.95,211.7,269.278,210.769,269.65,209.8 M279.65,222.8c-1.68,1.087-3.682,2.391-3.2,4.7c-1.46-0.195-2.263,1.318-3,2.3  c-0.838-0.726-0.967-1.841-1.121-2.872c-0.078-0.523-0.167-1.051-0.375-1.541c-0.328-0.774-0.847-0.873-1.654-0.711  c-0.754,0.151-0.953,0.365-0.984,1.106c-0.028,0.68-0.037,1.36-0.016,2.04c0.044,1.415,0.216,2.841,0.664,4.189  c0.359,1.08,0.887,2.708,2.222,2.701c0.588-0.003,1.135-0.261,1.609-0.59c0.229-0.159,0.445-0.336,0.655-0.52  c0.341,0.09,0.685,0.21,0.979,0.408c1.455,0.975-0.273,2.879,0.219,4.195c0.249,0.666,1.188,1.227,1.92,1.56  c0.46,0.209,1.137,0.047,1.355-0.492c0.902-2.221,1.424-3.354,2.078-3.939c0.882-0.789,2.133-0.531,2.856-1.438  c1.514-1.898,0.629-4.683,0.389-6.846c-0.128-1.149-0.014-2.114-1.043-2.868c-0.896-0.656-2.036-0.896-3.077-1.222  C279.967,222.908,279.809,222.855,279.65,222.8 M270.65,216.4c-0.168-1.678,1.827-1.504,2.438-0.341  c0.171,0.326,0.22,0.671-0.002,0.982c-0.295,0.413-0.377,0.463-0.88,0.469C271.45,217.52,270.498,217.39,270.65,216.4 M276.15,214.9  c-1.108-2.106-3.356-2.929-5.665-2.141c-2.742,0.936-3.682,2.795-2.75,5.305c0.378,1.018,1.108,1.85,2.014,2.436  c1.179,0.337,2.463,0.361,3.632-0.031c1.095-0.368,2.021-1.122,2.788-2.129C276.932,217.338,276.255,215.314,276.15,214.9   M283.65,214.2c-0.371-0.371-0.536-0.894-0.947-1.236c-0.407-0.339-1.032-0.481-1.55-0.534c-0.65-0.067-1.145,0.18-1.344,0.817  c-0.431,1.378-0.119,3.049-1.674,3.8c-1.326,0.64-0.463,2.49,0.203,3.37c0.391,0.515,1.064,0.793,1.72,0.803  c0.271,0.004,0.531-0.07,0.756-0.222c0.361-0.245,0.18-0.535,0.213-0.922C281.222,217.833,283.832,216.549,283.65,214.2   M280.95,226.4c-0.26-0.087-0.528-0.153-0.801-0.183c-0.509-0.056-0.151-0.159-0.398-0.217c-0.093-0.022-0.642-0.059-0.7,0  c-0.31,0.31,0.119,1.747,0.294,2.073c0.393,0.729,1.618,1.232,2.274,0.516C282.301,227.843,281.601,226.834,280.95,226.4  C280.65,226.3,281.25,226.601,280.95,226.4z M282.15,232.2c-0.182-0.363-0.454-0.719-0.802-0.929  c-0.342-0.206-1.098-0.232-1.098-0.593c0-0.298-1.2,0.485-1.2,1.022C279.05,233.578,282.837,234.139,282.15,232.2z M277.15,244.3  c-0.844-0.367-1.507,0.625-1.929,1.2c-0.571,0.778-0.912,1.41-1.771,2.201c1.266,0.756,2.485,1.068,3.634-0.714  C277.645,246.116,277.607,244.472,277.15,244.3z M276.31,252.906c-0.271-0.03-0.328-0.075-0.458-0.294  c-0.995-1.671-3.06-2.661-4.165-3.332c-0.32-0.195-0.958-0.458-1.117-0.828c-0.243-0.561,0.313-1.292,0.418-1.844  c0.176-0.92-0.245-1.62-0.639-2.407c-0.925,1.056-1.9,2.324-1.9,3.8c0.094,1.517,1.701,2.431,2.781,3.32  c1.537,1.266,4.235,3.339,5.205,5.166c0.151,0.285,1.218-0.233,1.314-0.586c0.145-0.634,0.141-1.606-0.158-2.138  C277.201,253.065,276.721,252.952,276.31,252.906z M268.851,253c-1.358-1.352-3.836,2.166-1.7,2.8c0.49,0.146,1.638-0.233,2-0.6  C269.744,254.598,269.363,253.513,268.851,253C268.75,252.9,269.25,253.4,268.851,253z M273.65,256.5  c-0.345-0.517-0.788-0.483-1.3-0.399c-0.522,0.085-0.5,0.085-0.5,0.6c0,0.492-0.077,0.966,0.155,1.404  c0.366,0.689,1.077,0.554,1.553,0.085c0.031,0.037,0.061,0.074,0.092,0.11C274.106,258.024,273.886,256.853,273.65,256.5z   M286.95,257.4c-0.387-0.391-0.768-0.926-1.4-0.601c-0.257,0.133-0.443,0.443-0.659,0.66c-0.471,0.472-0.596,0.972-0.035,1.434  c0.634,0.54,1.096,0.201,1.661-0.171C287.024,259.268,286.992,257.65,286.95,257.4z M270.951,261.9  c-0.605-0.604-1.969-0.929-2.814-1.457c-0.149-0.093-0.327,0.028-0.286-0.543c0.043-0.613-0.32-0.807-0.838-0.979  c-0.575-0.192-1.058,0.36-1.322,0.757c-0.453,0.68-0.461,1.589,0.259,2.122c1.141,0.844,2.36,1.078,2.256,2.188  c-0.077,0.819-0.177,1.828,0.196,2.352c0.359,0.505,0.627,0.804,1.249,1.161c0.302-0.905,0.679-1.771,0.767-2.733  c0.226-0.406,0.872-0.675,1.06-1.274C271.682,262.836,271.404,262.354,270.951,261.9C270.65,261.601,271.25,262.2,270.951,261.9z   M281.55,261.2c0-0.99-0.585-2.008-1.8-2c-0.94,0.006-2.003,1.834-1.417,3.191C279.169,264.33,281.55,262.817,281.55,261.2z   M285.25,262.3c0-0.967-0.997-1.199-1.75-1.199c-0.38,0-0.95,1.55-0.95,2c0,0.42,1.025,1.573,1.447,1.152  C284.555,263.696,285.284,263.173,285.25,262.3z M277.05,266.4c0-0.778-1.431-1.998-2.157-1.57c-0.712,0.42-1.215,1.382-0.734,2.146  C274.935,268.21,277.129,268.125,277.05,266.4C277.05,265.505,277.169,269.019,277.05,266.4z M284.284,267.059  c-0.419-1.393-2.771-0.056-3.284-0.609c-0.311-0.334-0.17-0.64-0.65-0.4c-0.676,0.338-1.452,0.846-1.71,1.598  c-0.439,1.282,1.561,2.355,3.01,2.352C283.285,269.997,284.727,268.531,284.284,267.059z M266.45,268.2  c-0.372-0.621-1.049-0.788-1.7-0.95c-0.407-0.102-0.961,0.93-1.195,1.247c-0.841,1.139-2.086,3.082-1.194,4.496  c1.143,1.809,2.504,0.756,3.369-0.582c0.342-0.528,0.741-0.928,0.928-1.511C266.942,270.014,266.939,269.015,266.45,268.2  C266.15,267.7,266.75,268.7,266.45,268.2z M271.65,271.425c0.042-0.914-0.306-1.821-0.4-2.725c-0.31,0.505-0.527,1.066-0.854,1.56  c-0.38,0.576-0.93,0.755-1.518,1.052c-0.9,0.455-1.97,1.707-1.34,2.757c0.477,0.795,1.79,1.479,2.748,1.191  C271.248,274.972,271.623,272.94,271.65,271.425C271.664,270.674,271.602,272.654,271.65,271.425z M278.15,272.2  c0.015-0.821-0.54-2.072-1.525-1.981c-1.259,0.117-1.93,1.782-2.167,2.818c-0.26,1.143,0.06,2.666,1.493,2.125  C277.132,274.718,278.126,273.483,278.15,272.2C278.169,271.175,278.127,273.438,278.15,272.2z M262.75,278.3  c-0.714-0.832-1.024-1.396-0.9-2.5c-0.824,0.104-1.596,0.181-2.26,0.745c-0.964,0.819-1.177,1.965-1.227,3.006  c-0.158,3.312,3.654,1.729,5.186,2.55C264.206,280.633,263.683,279.606,262.75,278.3C262.15,277.601,263.25,279,262.75,278.3z   M276.701,277.411c-0.561,0.587-1.707,1.793-1.047,2.667c0.953,1.261,2.406,0.003,3.155-0.774c0.545-0.566,1.282-2.115,0.395-2.716  C278.358,276.014,277.292,276.847,276.701,277.411C275.716,278.44,278.06,276.112,276.701,277.411z M270.851,280.375  c-0.552,0.674-0.547,2.281-1.593,1.941c-0.421-0.137-1.389-0.735-1.757-0.365c-0.573,0.575-1.732,1.292-0.867,2.223  c0.334,0.937,1.23,1.306,2.117,1.527c0.372,0.1,1.745-0.652,2.354-1.029c0.84-0.52,1.585-1.213,1.94-2.156  c0.234-0.623,0.267-1.73,0.136-2.119C272.644,278.8,271.313,279.81,270.851,280.375z M264.95,287.4  c-0.599-0.913-1.372-1.333-2.177-1.792c-0.346-0.197-1.286-1.013-1.699-0.883c-1.413,0.444-1.38,2.657-0.761,3.657  c0.835,1.35,2.495,1.541,3.934,1.336c0.593-0.084,1.162-0.255,1.203-0.691C265.519,288.3,265.25,287.8,264.95,287.4z   M243.759,209.986c-0.277,0.533,0.036,0.611-0.092,1.008c-0.1,0.311-0.25,0.699-0.376,1.064c-0.387,1.117,0.582,1.617,1.296,1.75  c0.551,0.102,0.376,0.022,0.622-0.415c0.301-0.603,0.997-0.895,1.3-1.5c0.285-0.429,0.221-0.486,0.208-0.983  C246.435,209.253,244.39,208.772,243.759,209.986z M250.45,212c-0.796-1.591-3.515-1.653-3.5,0c0.006,0.675,0.797,1.487,1.922,1.5  C249.827,213.511,250.369,212.737,250.45,212z M257.451,216.9c-0.78-0.943-1.468-1.619-2.667-2.026  c-0.416-0.141-0.465-0.186-0.834,0.026c-0.521,0.416-0.885,1.003-0.777,1.688c0.209,1.336,1.672,2.078,2.918,2.008  C257.288,218.529,257.051,217.458,257.451,216.9z"/>
<path fill="#D29E46" d="M280.351,210.9c2.678,0.368,3.553,2.103,4.5,4.2c1.069-0.004,1.869,0.667,2.639,1.986  c0.428,0.732,0.799,1.568,1.555,2.191c1.599-1.373,2.964-3.902,5.276-5.372c1.041-0.662,2.209-0.976,3.442-0.893  c0.187,0.012,0.835,0.029,0.914,0.265c0.188,0.564,0.46,0.74,0.474,1.623c0.019,1.212-0.947,2.266-1.4,3.399  c-0.609,1.253-1.103,2.541-1.541,3.863c-0.922,2.781-1.743,5.512-3.259,7.737c-0.187,2.696,1.204,5.963,1.768,7.667  c1.081,3.269,1.17,5.701-1.261,8.426c-0.957,1.072-0.305,2.398-0.052,2.695c0.292,0.344,0.753,0.42,1.046,0.711  c0.612,0.607,0.549,1.987,0.347,2.739c-0.363,1.348-2.003,2.567-2.853,3.677c-0.476,0.623-1.412,2.294-1.838,3.273  c-0.669,1.537-1.328,3.929-0.957,5.611c2.957,4.771,2.706,9.512,4.4,14.4c0.979,2.824,3.867,4.21,5.836,5.988  c1.042,0.939,2.048,2.493,2.063,4.272c0.009,1.061-0.385,1.864-0.442,2.432c-0.104,1.042-0.14,2.09-0.151,3.138  c-0.021,1.93-0.006,3.861-0.006,5.791c0,3.79-0.123,7.617-1.2,11.278c-0.59,2.519,0.252,6.829-0.063,10.257  c-0.102,1.113-0.693,2.153-1.092,3.196c-0.534,1.395-1.047,2.797-1.577,4.194c-1.07,2.825-2.21,5.635-3.673,8.284  c-0.749,1.355-1.58,2.666-2.511,3.904c-0.479,0.637-1.449,1.697-1.884,2.365c-0.517,0.793-1.898,2.78-2.51,3.771  c-1.006,1.628-1.733,3.125-1.573,5.09c2.096,0.302,5.496,0.879,7.563-0.286c0.141-0.547,0.199-0.763-0.233-1.266  c-0.677-0.788-2.563-1.591-2.446-2.51c0.191-1.512,1.107-1.784,2.343-1.798c0.911-0.011,0.998,0.1,1.383-0.812  c0.605-1.433,0.49-3.214,0.456-3.947c-0.022-0.46-0.17-0.917,0.019-1.341c1.006-1.504,2.131-1.27,3.515-1.079  c0.671,0.093,1.569,0.325,1.815-0.812c1.15-5.324,3.844-11.02,7.27-16.109c1.781-8.176,6.666-14.707,9.475-22.488  c0.709-1.965,1.272-3.984,1.628-6.045c0.246-1.42,0.688-2.696-0.106-3.969c-1.621-2.599-5.256-5.548-8.596-6.599  c-0.916-0.231-1.72-0.35-2.421-0.384c-1.44-0.068-2.868,0.114-4.293,0.3c-1.103,0.144-2.505,0.449-3.528-0.14  c-0.769-0.442-0.454-1.37-0.226-2.104c1.131-3.653,6.068-6.778,12.053-6.771c3.5,0.004,5.297,1.837,6.444,3.337  c1.581,2.066,3.415,5.453,4.525,6.508c0.328,0.312,1.901,1.464,2.271-0.296c0.754-3.597-0.241-6.118-0.325-8.449  c0.525-2.531,1.881-4.884,3.4-6.944c1.623-2.202,3.54-4.239,5.899-5.657c0.681-0.409,1.958-1.088,2.8-0.798  c0.937,0.322,1.55,1.872,2.051,2.627c1.428,2.151,2.92,4.339,5.063,5.847c2.082,1.465,3.936,1.776,5.122,1.895  c3,0.299,7.63,0.467,10.578,0.42c2.749-0.043,7.687-0.214,11.62-1.322c0.932-0.262,1.976-0.816,2.391-1.061  c5.786-3.41,13.973-1.425,19.076-6.106c1.238-1.136,1.761-2.517,2.081-4.846c0.207-1.505,0.913-4.052,1.075-4.597  c0.32-1.083,0.674-2.155,1.049-3.221c0.783-2.226,1.656-4.419,2.497-6.624c1.668-4.374,3.049-8.397,3.596-12.673  c0.074-0.58,0.061-0.935-0.189-1.66c-0.524-1.522-1.593-2.751-2.119-3.887c-0.738-1.593-1.007-3.968,1.241-4.442  c0.66-0.139,1.597-0.329,2.269-0.251c1.091,0.287,2.066,0.879,2.879,1.653c1.702,1.62,2.636,3.82,3.921,5.747  c0.729,1.258,2.034,1.179,3.492,2.565c0.517,0.492,0.814,1.189,0.89,1.898c0.075,0.712-0.281,1-0.76,1.523  c-2.267,2.475-5.994,4.791-7.08,5.763c-0.485,0.434-0.582,0.643-0.765,1.138c-1.041,2.812-2.744,5.077-4.063,10.114  c-0.822,3.138,0.032,4.262,0.661,5.156c1.47,2.088,8.939,11.87,14.576,18.142c2.788,3.103,5.591,6.193,8.51,9.174  c1.472,1.504,3.994,3.993,4.717,4.676c2.617,2.475,5.16,4.842,8.887,6.788c4.479,2.338,9.125,4.45,12.418,6.409  c2.724,1.621,5.265,3.868,6.158,4.808c0.694,0.729,1.666,1.64,2.059,2.545c1.202,5.849,3.789,11.264,6.1,16.73  c0.556,1.314,0.841,1.966,1.344,3.301c0.218,0.569,0.291,0.797,0.216,1.406c-0.356,2.891-0.358,13.658-0.358,14.594  c0,0.669-0.037,0.796-0.295,1.304c-0.591,1.162-2.203,3.993-2.105,5.365c0.023,0.325-0.092,0.502,0.448,0.517  c0.933,0.024,4.892,0.486,7.059,0.176c0.336-0.048,0.567-0.362,0.575-1.123c0.016-1.534-0.11-1.602-0.613-2.089  c-1.879-1.822-2.004-4.806-0.672-7.851c1.048-2.396,1.966-2.599,3.069-3.76c0.524-0.551,1.684-1.856,1.103-3.145  c-4.098-9.082-6.102-27.766-6.67-29.025s-0.516-2.996-0.44-4.508c0.038-0.777,0.112-1.563-0.034-2.33  c-0.328-1.719-0.872-2.181-2.085-2.604c-1.228-0.428-3.623-0.797-4.722-1.949c-3.287-3.447-7-7.468-10.086-11.712  c-1.553-2.136-4.045-6.125-5.226-8.808c-0.386-0.875-0.41-1.021-0.3-1.583c0.562-2.851,2.902-13.407,2.893-25.707  c-0.006-7.263-0.816-11.465-1.252-13.119c-0.311-1.18-1.049-3.46-1.047-7.481c0.002-3.726,0.57-7.294,0.712-8.425  c0.097-0.769-0.069-1.088-1.023-2.009c-1.208-1.166-2.912-1.948-4.39-3.166c-0.834-0.688-1.289-3.218,0.165-4.533  c4.282-3.874,9.259-4.85,11.636-5.157c4.96-0.639,10.172,0.158,14.699,2.29c4.188,2.327,7.854,5.839,9.845,10.244  c2.241,4.96,1.681,10.268,0.144,15.35c-3.416,11.297-11.68,20.125-18.586,29.382c-1.166,1.563-3.236,4.47-4.549,6.585  c-0.508,0.818-1.094,1.494-1.25,3.628c2.5-2.837,11.746-14.625,17.797-22.39c7.665-9.754,15.588-22.944,8.301-35.2  c-4.504-7.575-13.691-14.169-24.301-14.1c-1.355,0.009-2.708,0.3-4.05,0.3c-1.346,0-2.689,0.021-4.033,0.104  c-2.975,0.186-5.929,0.611-8.857,1.157c-5.799,1.082-11.501,2.628-17.315,3.628c-2.589,0.445-7.343,1.252-13.944,0.91  c-4.295-0.222-10.881-0.021-16.288,0.196c-5.639,0.227-11.27,0.405-16.914,0.405c0,0-1.509-0.582-2.368-0.674  c-4.969-0.535-25.06-2.502-33.669-2.164c-2.749,0.108-3.261,0.122-6.09-0.223c-2.202-0.268-4.676-0.591-7.01-0.918  c-2.311-0.324-6.139-0.898-11.362-1.722c-3.994-0.122-7.985-0.542-11.983-0.351c-1.759,0.084-4.851,0.282-8.517,1.75  c-2.14,1.582-3.74,3.125-7.001,4.443c-0.725,0.293-1.17,0.282-1.799,0.129c-2.69-0.655-3.669-0.843-5.2-0.172  c-1.461,0.64-0.869,0.937-0.08,1.809c0.897,0.992,1.762,1.822,1.98,3.392c-0.546-0.444-1.156-0.335-1.4-0.3  c-0.256-1.598-1.734-2.367-2.2-3.301c-0.652-0.867-0.68-1.872,0.192-2.579c1.58-1.281,3.611-1.39,5.3-1.019  c0.686,0.151,1.733,0.38,2.408,0.498c1.294-0.338,3.581-1.671,6.607-4.072c0.776-0.616,1.792-0.852,2.392-1.052  c4.519-1.505,9.147-1.384,13.654-1.164c2.078,0.102,4.274,0.029,6.327,0.347c2.293,0.355,4.586,0.708,6.881,1.049  c4.769,0.709,9.546,1.367,14.339,1.892c9.359-0.682,22.202,0.736,27.699,1.3c3.927,0.403,8.254,0.144,11.461,1.4  c3.465,0.118,13.519-0.314,16.753-0.462c3.192-0.146,6.386-0.283,9.582-0.325c3.102-0.04,6.188,0.141,9.284,0.186  c11.518,0.168,22.609-4.143,34.065-5.482c2.547-0.298,7.765-0.371,9.018-0.498c10.967-1.112,21.644,4.575,27.939,14.582  c6.26,10.731,1.452,22.808-5.025,32.157c-1.82,2.626-21.787,28.494-22.228,28.201c-0.923-0.615-1.323-1.375-1.233-2.491  c0.077-0.958,0.282-2.067,0.771-2.875c1.567-2.592,3.305-5.078,5.104-7.513c3.604-4.877,7.45-9.574,10.901-14.564  c3.201-4.627,6.123-9.569,7.591-15.031c1.709-6.359,1.747-10.368-0.819-15.231c-1.222-2.315-4.534-6.44-8.661-8.352  c-4.919-2.279-9.426-2.479-11.901-2.38c-4.536,0.182-9.128,1.542-12.7,4.581c-1.066,0.907-1.261,2.441-0.091,3.285  c0.66,0.476,3.371,2.011,4.503,3.419c1.605,1.998,0.844,2.991,0.694,4.201c-0.183,1.482-0.347,2.968-0.437,4.459  c-0.163,2.703,0.07,5.524,0.604,8.068c0.508,2.424,0.925,3.599,1.311,7.457c0.572,5.719,0.353,12.091-0.25,18.102  c-0.291,2.909-1.184,9.831-2.378,15.337c1.842,4.225,4.338,7.979,7.185,11.59c1.461,1.854,4.713,5.654,7.515,8.509  c0.468,0.486,1.017,1.028,1.39,1.215c0.793,0.398,1.617,0.528,2.431,0.762c1.565,0.449,3.011,1.06,3.626,2.696  c0.515,1.389,0.291,3.021,0.225,4.467c-0.054,1.182,0.12,2.204,0.375,3.333c0.626,3.262,1.142,6.544,1.69,9.82  c1.091,6.506,2.305,13.083,4.909,19.18c0.711,2.741-1.234,4.213-2.957,5.958c-1.451,1.47-2.186,4.106-1.888,6.154  c0.14,0.965,0.607,1.814,1.361,2.436c0.173,0.143,0.669,0.349,0.784,0.552c0.14,0.246,0.085,0.946,0.093,1.221  c0.032,1.064,0.19,3.479-1.993,3.479c-3.02,0-5.316-0.129-7.801-0.301c-0.438-0.03-0.49,0.063-0.668-0.337  c-1.118-2.517,1.591-6.33,1.841-7.08c0.106-0.319,0.228-0.604,0.228-0.875c0.003-1.833,0-5.483,0.07-8.469  c0.037-1.549,0.183-4.664,0.276-6.21c0.031-0.516,0.031-0.852-0.115-1.222c-0.378-0.955-2.84-6.695-3.603-8.496  c-1.61-3.795-3.232-8.42-3.776-11.011c-0.083-0.394-0.235-0.658-0.515-1.008c-6.91-8.636-17.318-9.601-24.709-15.849  c-5.514-4.662-14.943-14.69-21.261-22.197c-3.101-3.684-6.1-7.453-9.001-11.295c-0.72-0.954-1.434-1.912-2.143-2.874  c-0.544-0.74-0.699-1.207-0.791-2.177c-0.241-2.542,0.885-4.914,1.566-7.3c0.619-1.713,1.504-3.311,2.266-4.961  c0.202-0.437,0.395-0.878,0.571-1.326c0.111-0.282,0.203-0.854,0.414-1.063c0.473-0.468,0.999-0.886,1.521-1.298  c1.415-1.116,5.064-3.619,6.262-5.071c0.718-0.87,0.406-1.381-0.278-1.924c-1.141-0.905-2.649-1.27-3.454-2.657  c-0.735-1.266-1.771-3.343-3.066-4.832c-0.576-0.663-1.292-1.176-2.081-1.57c-0.924-0.462-2.549-0.066-3.021,0.201  c-0.518,0.292-0.442,0.856-0.247,1.39c0.698,1.906,1.802,3.26,2.556,5.245c0.227,0.599,0.287,0.915,0.196,1.662  c-0.407,3.353-1.341,6.422-1.82,7.942c-1.779,5.642-4.364,11.015-5.817,16.761c-0.867,2.829-0.634,5.853-2.695,7.949  c-1.286,1.308-3.204,2.343-4.096,2.729c-1.841,0.797-3.813,1.22-5.782,1.564c-2.127,0.372-4.271,0.673-6.377,1.161  c-2.684,0.622-3.965,1.715-5.817,2.332c-2.597,0.864-6.399,1.312-10.141,1.48c-4.296,0.194-9.476-0.016-12.679-0.297  c-4.656-0.409-7.422-2.909-9.013-4.751c-1.447-1.676-3.313-4.691-3.831-5.379c-0.229-0.305-0.422-0.493-1.373-0.082  c-1.893,0.819-3.895,2.938-4.943,4.19c-1.166,1.393-3.075,3.988-3.997,6.828c-0.311,0.956-0.006,2.216,0.081,2.722  c0.254,1.472,0.391,3.028,0.359,4.521c-0.027,1.283-0.126,2.964-1.096,3.933c-1.034,1.038-2.689,0.297-3.6-0.5  c-1.889-1.891-2.919-4.385-4.553-6.464c-1.585-2.018-3.383-2.936-5.947-2.936c-2.571,0-5.408,0.827-7.557,2.241  c-1.082,0.712-2.921,2.408-3.109,4.296c0.876,0.034,3.394-0.381,5.029-0.5c2.519-0.185,4.461,0.213,6.544,1.217  c1.899,0.917,3.687,2.207,5.16,3.715c1.388,1.421,1.999,2.236,2.585,3.565c0.636,1.442-0.043,3.446-0.076,3.654  c-0.21,1.367-0.509,2.72-0.887,4.051c-0.719,2.536-1.724,4.979-2.853,7.357c-2.337,4.925-5.148,9.655-6.804,14.877  c-0.216,0.682-0.412,1.37-0.585,2.063c-0.074,0.295-0.087,1.003-0.296,1.212c-0.86,0.855-1.479,2.27-2.084,3.317  c-1.372,2.374-2.565,4.853-3.517,7.425c-0.476,1.287-0.891,2.596-1.241,3.922c-0.226,0.855-0.238,3.122-2.408,3.186  c-1.159,0.034-2.3-0.638-2.974,0.106c0.143,1.741,0.181,4.081-0.726,5.894c-0.577,0.963-1.943,0.815-2.784,0.958  c-0.466,0.079-0.769,0.17-0.247,0.663c0.478,0.523,1.552,1.007,2.131,1.78c0.537,0.716,0.785,2.063,0.1,2.8  c-0.722,0.777-2.478,0.988-3.464,1.063c-1.599,0.122-3.199-0.071-4.777-0.314c-0.436-0.067-0.869-0.127-1.296-0.233  c-0.152-0.038-0.217-0.691-0.236-0.791c-0.241-1.286-0.075-2.558,0.371-3.782c0.844-2.32,2.489-4.19,3.803-6.243  c2.886-3.144,4.939-6.903,6.603-10.808c0.822-1.929,1.561-3.893,2.304-5.853c0.354-0.933,1.535-3.785,1.593-4.24  c0.175-1.372,0.096-3.019,0.042-4.055c-0.116-2.222-0.282-4.445,0.159-6.645c0.896-3.286,1.1-6.708,1.1-10.1  c0-1.789-0.001-3.577,0-5.366c0.001-1.663,0.2-3.33,0.2-4.984c0-0.378,0.234-0.75,0.313-1.125c0.137-0.657,0.125-1.367-0.09-2.007  c-0.464-1.381-1.848-2.403-2.945-3.269c-1.187-0.937-2.45-1.808-3.415-2.987c-0.44-0.538-1.015-1.46-1.262-2.362  c-0.867-2.602-1.251-5.318-1.857-7.984c-0.29-1.276-1.146-4.27-1.987-5.521c-0.632-0.938-0.733-1.021-0.755-2.396  c-0.043-2.729,1.274-5.459,1.985-6.743c0.52-0.94,1.112-2.18,1.872-2.907c0.931-0.891,2.225-2.203,1.549-3.471  c-0.965-0.482-1.791-1.434-1.895-2.718c-0.062-0.757,0.154-1.489,0.489-2.16c0.311-0.451,0.798-0.799,1.146-1.234  c2.139-2.682,0.48-6.108-0.488-8.979c-0.526-1.56-0.989-3.15-0.956-4.813c0.025-1.256,1.038-2.214,1.563-3.333  c1.418-3.021,2.364-7.275,3.536-9.341c0.536-0.945,1.641-2.341,1.188-3.152c-1.156-0.235-2.454,0.517-3.181,1.078  c-1.614,1.248-2.724,2.975-4.149,4.412c-0.14,0.141-1.133,1.225-1.32,1.131c-0.651-0.326-1.19-0.759-1.63-1.344  c-0.797-1.06-1.406-3.303-3.057-2.974c-0.458,0.091-0.72-0.822-0.898-1.199c-1.045-2.214-1.483-2.871-3.752-3.152  c0-0.156,0.012-0.281,0-0.5C280.303,211.595,280.351,210.9,280.351,210.9z"/>
<path fill="#1A1917" d="M279.74,213.497c0.171-0.921,0.898-1.177,1.521-1.054s1.377,0.248,1.903,1.085  c0.44,0.701,0.548,0.726,0.472,1.27c-0.123,0.877-0.701,1.831-1.278,2.546c-0.446,0.553-3.086-1.203-2.918-2.164  C279.542,214.589,279.628,214.095,279.74,213.497z"/>
<path fill="#CD181C" stroke="#1A1917" stroke-width="1.5" stroke-miterlimit="10" d="M544.1,290c0,77.43-84.887,140.2-189.6,140.2  C249.787,430.2,164.9,367.43,164.9,290S249.787,149.8,354.5,149.8C459.213,149.8,544.1,212.57,544.1,290z M354.5,160.5  C256.469,160.5,177,218.479,177,290s79.469,129.5,177.5,129.5C452.531,419.5,532,361.521,532,290S452.531,160.5,354.5,160.5z"/>
<path fill="#1A1917" d="M157.25,399c-3.9-3.7-8.5-7.399-11.8-11.6c0.7-3.3,3.3-5.4,4.1-8.5c5.7-13.7-5.9-24.4-9.6-36.4  c-14.5-33.8-12.8-79.3,2.5-112.399c1.5-4.601,4.8-8.5,6.1-13.5c-0.4-0.9-1.5-0.9-2.2-0.4c-2.2,2.1-3.3,5-4.1,7.4  c-6.6,11.8-9.8,24.6-13.1,37.5c-1.7,7.8-2,15.899-2.6,24c-1.7,1.5-3.7,2.399-5.9,2.8c-1.3-17.4,3-34.2,8-49.9  c2.6-7.2,5.9-14.2,8.7-21.399c-0.2-0.9-1.3-1.101-2-0.9c-11.1,19-15.9,40.3-18.7,62.8c-1.8-4.2-3.5-8.7-5-13.3  c2.4-14,5.7-27.5,11.3-40.3c0.913-2.196,3.5-5.522,1.7-7.7c-2.762,0.021-3.419,3.464-4.6,6.3c-5.4,13.3-9.4,27-11.8,41.4  c-2.6,3.899-5,7.899-7.2,11.8c-0.2-8.5,1.3-17.4,3-25.7c2-10,5.7-19.399,8.7-29.2c-0.4-0.899-1.5-0.899-2.2-0.399  c-3.7,6.8-5.2,14.6-7.8,21.8c-4.1,14.4-5.4,29.4-6.3,45.1c-2.4-0.899-5.9-0.699-6.3-3.899c0.2-19.4,4.1-38.101,9.6-55.8  c-0.4-0.9-1.5-0.7-2.2-0.2c-2.6,5-3.9,10.5-5.4,15.899c-10.7,40.101-5.2,85.2,10.2,121.4c-5.4-8.7-14.4-14.5-24.4-15.7  c-10.7-1.3-36.3,9.7-26.8,42.9c1.5,9.6,6.6,17.899,6.6,27.899c-0.9,1.5-1.1,3.7-3.1,4.4c-1.5,1.1-4.2,0.7-5.7,0  c-3.1-1.5-7-6.7-3.1-12.4c5.3-7.899-3.7-3.399-5.5-2.1c-4.4,3.2-12.6,13.3-5.8,24.4c6.3,10.899,18.6,12.8,27.3,9.899  c6.8-2.6,12.2-9.399,12.4-16.8c0.7-15-13.4-26.8-7.9-41.5c2.328,4.362,4.682,8.856,6.549,12.3c-1.3,4.101-0.649,5.9-0.35,10.2  c0,2.2,1.1,4.1,3.5,3.7c-0.2,3.5,0.9,6.5,1.3,9.8c0.4,0.2,0.7,0.4,1.1,0.4c3.3-0.2,6.8,0.199,9.6-0.4c-0.2,2.6,1.3,3.1,4.3,3.3  c7.9,0.101,15.8-2.899,22-8c1.9-1.7,0.7-2.399,1.7-3.1c3.1,0.899,4.6-2.8,5.9-4.8c2.6-5.2,3-12.601,2.2-18.5  c4.6,0,10.2,0.199,15-0.2c3.3,4.399,7.2,8.5,10,13.1c3.1,0.4,5.4-2.2,7.8-3.899C157.65,400.101,157.65,399.4,157.25,399   M87.65,373.8c-1.1-0.399-1.3-1.8-1.5-2.8c1.1-1.3,3.5-0.2,5,0.2c0.4,0.6,1.1,0.4,1.8,0.9C91.851,373.601,89.45,373.601,87.65,373.8  "/>
<path fill="#D29E46" d="M103.188,280.846c0.56-4.468,4.153-9.89,5.36-11.229c0.661-0.733,1.945-0.439,2.22,0.06  c3.563,6.457,3.843,11.959,3.774,14.902c-0.12,5.103-1.592,10.164-4.892,14.122C105.414,293.883,102.405,287.098,103.188,280.846z   M101.15,291.2c0.31,0.051,0.577,0.238,0.635-0.111c0.114-0.684,0.226-1.26,0.017-1.954c-0.28-0.933-0.918-1.734-1.452-2.535  C99.949,288.006,98.972,290.766,101.15,291.2z M111.75,310.9c-0.136,0.497,0.759,1.5,1.3,1.5c0.917,0.056,2.24-0.78,3.029-1.177  c2.479-1.246,4.879-2.685,6.707-4.806c1.719-1.995,2.898-4.384,3.597-6.913c0.388-1.404,1.471-7.464,1.367-8.304  s-0.33-2.574-0.95-2.45c-1.356,0.271-2.622,0.729-3.819,1.426c-2.395,1.393-4.613,3.284-6.401,5.395  C113.104,299.675,110.976,305.481,111.75,310.9z M108.45,312.3c0.422-3.266-0.476-6.879-0.9-9.199  c-0.911-3.523-3.499-6.328-6.302-8.512c-2.509-1.955-5.421-3.9-8.491-4.792c-0.87-0.253-1.531-0.153-2.386,0.019  c-0.327,0.066-0.422-0.003-0.422,0.335c0,0.451,0.021,0.902,0.045,1.353c0.121,2.339,0.408,4.681,1.014,6.946  c1.057,3.954,3.042,8.392,9.618,11.974C102.656,311.529,105.331,312.987,108.45,312.3z M119.851,312.5  c-1.591,1.436-2.733,3.851-3.534,5.8c-0.972,2.365-2.1,6.5-1.266,11.801c0.36,2.289,1.822,2.168,4.533,0.455  c3.148-1.99,5.155-4.332,6.405-6.271c2.522-3.912,3.572-7.921,3.024-15.162c-0.112-1.479-1.575-3.225-3.962-1.422  C122.435,309.675,121.888,311.337,119.851,312.5z M92.558,311.011c-0.535,0.154-1.576,0.419-1.423,1.027  c0.293,1.173,0.399,2.408,0.663,3.592c1.078,4.846,3.104,9.626,7.172,12.676c3.692,2.767,8.144,4.394,12.769,4.394  c0.74,0-0.208-5.213-0.384-5.889c-0.652-2.499-1.639-5.879-5.141-9.604C101.914,312.633,94.736,310.383,92.558,311.011z   M123.05,351.101c3.197-2.238,5.852-4.634,7.837-8.019c2.178-3.715,2.819-7.448,2.234-11.842c-0.259-1.943-0.245-4.342-1.721-5.836  c-0.271-0.273-1.145-1.108-1.5-0.753c-0.755,0.755-1.677,1.351-2.426,2.123c-2.727,2.808-4.633,5.777-6.321,10.069  C119.832,340.203,119.841,347.3,123.05,351.101z M115.67,352.271c3.199,0.254,3.89,0.528,3.048-1.911  c-0.603-1.747-1.385-4.164-1.871-5.282c-0.853-1.964-1.937-3.974-3.4-5.402c-1.7-1.659-3.619-3.103-5.712-4.229  c-3.96-2.131-8.613-2.981-12.585-2.148c0.721,4.327,2.685,8.111,5.3,11.601C103.373,348.8,107.373,351.612,115.67,352.271z   M127.712,355.107c-0.553,3.794,1.151,11.767,2.815,13.073c0.188,0.148,1.237,0.833,1.469,0.573  c3.038-3.417,7.317-6.791,7.62-14.325c0.256-6.378-2.167-10.729-3.766-12.728C132.748,343.987,128.623,348.862,127.712,355.107z   M63.55,391.9c0.011-9.549,5.051-19.856,14.532-23.159c3.541-1.233,7.416-1.358,11.168-0.805c1.354,0.2,2.888,0.43,4.063,1.172  c2.042,1.292,3.692,3.691,6.337,3.691c0.394,0,2.493-0.307,2.33-0.811c-1.732-5.356-4.088-7.756-4.918-8.798  c-1.615-2.029-3.51-3.837-5.6-5.371c-4.209-3.089-9.511-5.254-14.75-5.317c-9.964-0.12-21.048,7.088-24.243,17.596  c-1.646,5.415-1.724,11.228-0.904,16.788c0.427,2.896,1.14,5.724,1.812,8.547c0.678,2.849,1.619,5.625,2.562,8.395  c1.843,5.416,3.601,10.514,3.35,16.872c-0.242,6.142-5.249,8.558-10.511,7.091c-2.317-0.646-3.724-2.468-5.135-4.261  c-1.57-1.996-2.021-4.635-2.084-7.11c-0.027-1.049,0-1.512,0.091-2.556c0.098-1.127-0.744-0.972-1.41-0.354  c-0.875,0.813-2.813,3.323-3.486,4.506c-2.778,4.884-2.932,10.801-0.903,15.983c2.289,4.349,6.185,7.694,10.828,9.304  c4.886,1.693,10.711,1.729,15.469-0.406c4.852-2.176,8.603-6.799,9.59-12.035c1.058-5.614-0.787-11.346-2.504-16.648  C67.373,408.467,63.539,401.55,63.55,391.9z M125.65,371.198c1.2-0.044,1.951-0.874,1.896-2.068  c-0.049-1.083-1.061-2.425-1.601-3.337c-0.663-1.12-3.523-6.463-7.399-8.575c-6.33-3.449-10.174-3.637-13.296-3.617  c-1.161,0.007-2.256,0.177-3.3,0.7c-0.608,0.304,0.065,2.133,0.239,2.643c0.724,2.13,2.133,3.952,3.332,5.829  c1.229,1.924,2.809,3.616,4.681,4.927C113.824,370.236,118.289,371.466,125.65,371.198z M147.777,377.313  c2.31-6.681-0.163-14.072-4.526-19.313c-4.253,4.675-7.458,11.994-5.959,18.91c0.651,3.008,2.452,6.385,5.322,7.822  c0.938,0.47,2.363-1.758,2.822-2.457c1.008-1.533,1.672-3.252,2.516-4.875C147.893,377.372,147.834,377.342,147.777,377.313z   M132.197,378.714c-2.694-2.958-5.888-3.949-8.411-4.443c-1.447-0.283-4.788-0.722-7.801-0.622c-1.266,0.042-6.134,0.286-4.697,2.68  c2.396,3.993,5.102,8.424,9.646,10.21c0.563,0.221,1.031,0.692,1.555,1.006c0.543,0.325,1.115,0.603,1.703,0.837  c1.316,0.524,2.712,0.834,4.118,0.991c2.809,0.313,5.575-0.009,8.304-0.689c1.039-0.259,0.489-3.112-0.708-4.355  C133.831,382.175,133.831,380.508,132.197,378.714z M120.55,389.2c-2.037-1.135-4.11-3.012-5.711-4.76  c-1.813-1.98-3.388-4.176-4.789-6.44c-0.678-1.117-4.449-2.296-6.575-2.658c-2.241-0.381-4.519-0.849-6.788-0.617  c-4.98,0.508-9.653,1.912-12.837,6.075c1.896,0.634,3.677,1.563,5.582,2.164c2.51,0.792,5.773,0.586,7.707-0.381  c1.645-0.823,2.432-1.774,2.937-2.049c0.441-0.241,0.916-0.142,1.157,0.313c-0.354,0.721-0.686,1.453-0.989,2.197  c-1.12,2.751-1.86,5.711-1.791,8.698c0.033,1.413,0.252,2.975,0.996,5.258c4.089,0.091,6.806-0.263,9.347-1.164  c1.192-0.423,2.338-0.979,3.395-1.676c0.991-0.653,1.957-1.6,3.001-1.838c0.788-0.179,0.776,1.322-0.034,2.267  c-1.038,1.21-1.081,2.5-1.142,3.086c-0.475,4.594,1.464,8.734,4.732,11.825C123.388,404.175,123.56,395.456,120.55,389.2z   M96.65,385.4c-1.734,0.288-3.44,0.394-5.188,0.152c-2.425-0.334-4.779-1.057-7.211-1.352c-0.599,0.065-1.179,0.527-1.688,0.844  c-0.947,0.588-1.854,1.249-2.665,2.016c-1.449,1.371-2.547,2.959-2.547,5.022c0,0.623,0.034,0.519,0.648,0.519  c1.152,0,2.303,0.067,3.452,0.146c2.494,0.17,5.011,0.392,7.508,0.146c2.21-0.218,3.767-0.856,5.538-1.843  C96.826,389.753,97.388,387.378,96.65,385.4z M103.05,405c0.585-1.002,0.89-2.147,0.975-3.301c0.032-0.44,0.282-1.948-0.225-2.049  c-1.077-0.214-2.15-0.351-3.25-0.351c-0.925,0-2.591,0.601-3.164-0.262c-0.615-0.925-0.432-2.206-0.57-3.261  c-0.078-0.6-0.306-2.165-0.867-2.478c-0.651-0.363-2.911,0.417-5.2,2.15c-0.517,0.392-0.85,2.094-0.996,2.687  c-0.314,1.277-0.476,2.587-0.5,3.901c-0.026,1.398,0.077,2.803,0.303,4.183c0.1,0.615,0.052,1.795,0.731,1.964  c2.363,0.588,5.071,0.392,7.419-0.163C99.711,407.549,101.939,406.907,103.05,405C103.75,403.8,102.38,406.15,103.05,405z   M153.65,399.601c-0.663-0.618-1.199-1.395-1.822-2.056c-0.89-0.944-3.518-3.495-6.978-4.745c1.187,2.375,2.417,4.668,4.02,6.799  c0.785,1.043,1.42,2.151,2.906,1.989C153.055,401.449,153.406,400.503,153.65,399.601z M86.851,403.8  c0.391-0.617,0.392-1.809,0.482-2.552c0.167-1.383,0.359-2.979,0.481-3.945c0.087-0.689-0.16-1.299-1.11-1.756  c-1.909-0.919-3.815-0.7-7.078-0.255c-0.503,0.069-0.784,0.164-2.148,1.93c-1.151,1.491-1.917,3.264-2.318,5.103  c-0.412,1.895-0.396,3.553,0.025,5.638c0.108,0.535,0.072,0.97,0.655,0.872c0.689-0.115,1.372-0.286,2.053-0.44  C81.245,407.638,84.546,406.489,86.851,403.8z M111.95,399.3c0-0.807,0.106-0.981-0.641-1.331c-0.896-0.419-3.604,0.164-4.759,2.526  c-0.564,1.154-0.957,2.385-1.063,3.663c-0.399,4.821,2.384,9.392,2.362,13.942c3.772-0.093,5.358-3.582,5.862-4.445  c0.397-0.679,1.116-1.506,1.337-2.255c0.176-0.595-0.021-1.546-0.11-2.125c-0.171-1.125-0.535-2.208-0.965-3.258  C113.08,403.834,111.95,401.722,111.95,399.3z M92.351,412.601c0-0.913-1.145-1.926-3.041-1.422  c-1.625,0.432-1.813,0.204-1.753-2.037c0.008-0.318-0.109-1.87-0.507-2.041c-0.251-0.108-1.517,0.54-1.746,0.625  c-1.042,0.383-2.058,0.836-3.021,1.39c-1.846,1.062-2.921,2.082-3.305,4.261c-0.379,2.154,0.079,4.408,0.591,6.502  c0.201,0.819,0.653,0.849,1.506,1.03c1.155,0.245,2.37,0.237,3.54,0.113c2.094-0.223,3.819-0.659,5.322-2.508  c0.667-0.82,1.084-1.813,1.419-2.809c0.182-0.54,0.336-1.089,0.476-1.642C92.11,413.625,92.351,413.131,92.351,412.601z M105.45,414  c-0.482-1.833-1.119-3.641-1.969-5.337c-0.153-0.306-1.67,0.11-1.911,0.158c-1.175,0.232-4.657,1.271-6.12,2.129  c-0.624,0.366-1.098,1.696-1.382,2.327c-0.884,1.96-1.363,4.065-1.659,6.188c-0.107,0.768-0.54,1.451-0.446,2.285  c0.13,1.164,1.325,1.527,2.304,1.299c3.021-0.707,6.23-1.832,9.195-3.799C105.396,417.968,106.183,416.107,105.45,414z   M76.351,394.8c0.367-0.2,0.733-0.4,1.1-0.6c-0.309-0.442-0.628-0.871-0.95-1.3c-0.403-0.539-0.56-0.809-0.434-1.49  c0.144-0.774,0.38-1.532,0.686-2.257c1.025-2.434,3.086-5.275,5.798-5.953c1.071,0,1.107-1.444,0.3-1.85  c-0.328-0.166-0.653-0.445-0.94-0.671c-0.539-0.423-0.419-0.51,0.007-0.979c1.441-1.584,2.856-2.186,4.83-2.944  c-0.749-1.563-1.971-4.228-2.712-5.972c-0.164-0.387-1.404-0.599-1.733-0.58c-5.804,0.346-12.679,6.138-15.2,12.754  c-0.53,1.392-1.093,2.291-0.345,3.795c1.079,2.17,4.158,8.298,6.058,12.042c0.367-0.571,1.067-1.338,1.438-1.907  C74.887,395.915,75.367,395.392,76.351,394.8z"/>
<path fill="#1A1917" d="M670.351,415.8c-3-2.6-6.699-4.899-10.5-4c1.6,2,2.6,2.9,3.1,4.801c1.1,2.199,1.301,5.3,0,7.399  c-1.299,2.4-3.699,4.2-6.299,4.601c-2.201,0-4.201-0.4-5.5-2.4c-0.701-2-1.5-4.1-0.9-6.6c2-10.7,6.6-20.601,8.299-31.5  c2.5-31.4-21-36.2-28-35.801c-5.6-0.399-18.6,6.601-24.299,14.601c4.6-12.4,9.199-25.5,12-38.9c6.6-31.7,4.199-67.1-5.9-96.8  c-0.701-0.7-1.5-1.3-2.4-1.1c-0.4,0.399-0.4,0.699-0.699,0.899c5,17.7,9.199,36.101,9.6,55.3c0.199,3.7-4.4,3.301-6.6,4.4  c-1.301-5.5-0.5-12.5-1.301-18.2c-2.199-16.8-5.5-33.399-12.199-48.5c-0.4-0.399-1.301-0.899-2-0.399c-1.102,2.8,1.799,5.399,2,8.3  c5.199,15.5,9.199,31.7,9.6,49.2c-1.701-5.101-5.9-9.4-7.9-14.4c-2.801-16.4-7-32.2-14-46.6c-0.699-0.4-1.301-1.101-2.199-0.7  c-0.9,3.1,1.699,5.7,2.6,8.5c4.4,12.5,8.699,24.899,10.299,38.7c-0.898,5.399-4.199,9.8-5,15.1c-2.199-22.7-7.398-43.9-17.699-63.4  c-0.699-0.399-1.1-1.1-2-0.6c-0.4,0.2-0.4,0.6-0.4,1.1c10.301,21.9,17.301,45.7,16.4,71.5c-2.199,0.2-4-1.899-5.9-2.899  c-1.299-3.7-0.4-8.3-1.299-12.2c-2-20.1-7.9-39.1-17.301-56.6c-0.9-0.7-1.801-1.301-2.6-0.9c-0.701,0.6-0.701,1.7,0,2.4  c19.699,34.1,23.199,83.5,8.5,120.899c-2.801,13.3-15.9,23.601-11.6,38.4c0.898,3.3,3,6.1,4.799,9c0,0.6-0.4,1.1-0.4,1.7  c-3.5,4.199-8.1,7.199-11.799,10.5c-0.9,2.8,2.6,3.3,3.9,4.8c1.299,0.7,2.6,1.5,3.898,0.7c2.801-4.4,7-8.101,9.602-12.5  c5-0.601,10.299,0.399,15.5-0.4c0.699,2.6-0.701,5.5-0.701,8.1c0.4,5.9,1.801,12.5,5.4,14.5c2.199-2.199,2.6-2.3,4.9,3.4  c4.1,5,8.799,5.7,8.299,2.8c-0.398-1.8,2.201,6.2,13.602,6.4c7,0.1,1.699-3.7,4.1-3.7c3.1,0.7,8,1.3,10.799,0.2  c0.201-3,1.5-5.5,1.301-8.7c0.199-1.7,2.4-0.2,3.1-2c1.5-5.1,1.1-7.4-0.4-12.2c2.5-2.7,4.4-7.2,5.9-10.1c0.5-0.9,0.701-2.7,1.801-2  c4.299,14.7-9.301,26.3-8.801,41c0.9,20,24.9,20.399,31.5,15.899C681.951,436.101,674.251,420,670.351,415.8 M622.351,374.5  c-0.4,0.7-0.4,1.8-1.5,2.2c-1.699-0.7-3.9-0.9-5.4-1.8c1.301-2.2,4.4-2.4,7-2.4C622.951,373.2,622.351,373.8,622.351,374.5"/>
<path fill="#D29E46" d="M597.65,299.2c-2.975-4.958-3.615-11.138-2.747-16.771c0.438-2.845,1.275-5.643,2.55-8.228  c0.475-0.961,0.986-1.912,1.657-2.75c0.166-0.207,1.842,1.339,1.989,1.487c1.679,1.692,2.699,3.892,3.512,6.101  c0.91,2.473,1.683,4.794,1.506,7.475c-0.18,2.712-1.096,5.292-2.239,7.737c-0.542,1.159-1.133,2.294-1.72,3.43  c-0.291,0.562-0.641,1.098-0.861,1.691C600.31,302.019,598.685,301.769,597.65,299.2z M606.788,293.303  c0.208,0.354,0.629,1.067,1.046,0.856c0.914-0.463,1.396-1.307,1.416-2.407c0.025-1.374-0.21-2.181-0.098-4.151  C608.165,289.466,606.081,291.925,606.788,293.303z M585.924,307.989c1.823,2.311,5.25,4.445,6.048,4.952  c1.258,0.799,3.046,1.67,4.578,1.16c0.973-0.424,1.068-2.698,1.097-3.648c0.061-2.083-0.462-4.778-0.896-6.252  c-1.099-3.294-3.311-6.182-5.859-8.497c-2.438-2.214-4.988-3.716-8.141-4.904C580.591,298.175,583.258,304.61,585.924,307.989z   M600.513,314.9c1.182,0,2.319-0.111,3.457-0.451c1.346-0.402,2.61-1.022,3.86-1.652c1.334-0.673,4.604-1.976,7.082-5.618  c3.555-5.225,4.98-11.171,3.918-15.13c-0.14-0.52-0.183-0.448-0.718-0.359c-3.529,0.584-6.781,2.076-9.604,4.094  c-5.079,3.63-8.356,9.64-8.356,15.916C600.152,312.5,600.225,314.9,600.513,314.9z M592.05,334.2  c0.127,0.042,0.56,0.266,0.631,0.148c0.198-0.329,0.397-0.655,0.565-1.001c0.623-1.28,0.931-2.701,1.05-4.113  c0.245-2.922-0.282-5.983-1.545-8.634c-1.91-3.941-4.317-6.804-7.487-9.106c-0.369-0.269-3.916-2.626-4.146-2.242  c-1.015,1.698-1.146,3.353-1.174,5.297c-0.029,2.026-0.205,3.991,0.209,5.999c0.412,2,1.237,3.903,2.357,5.607  C584.819,329.665,588.231,332.475,592.05,334.2z M617.05,318.4c-0.049-1.871,2.067-5.3-1.3-5.3c-1.245,0-2.641,0.565-3.805,0.976  c-1.401,0.494-2.763,1.1-4.064,1.815c-4.571,2.513-8.612,6.521-10.07,11.644c-0.142,0.5-0.722,2.82-0.892,3.457  c-0.37,1.389-0.463,2.948,0.531,4.108c0.275,0.272,0.134,0.223,0.5,0.3c0.717-0.06,1.429-0.165,2.133-0.307  c1.52-0.307,2.998-0.788,4.437-1.359c2.272-0.903,4.276-1.898,6.071-3.604c1.714-1.628,3.094-3.587,4.185-5.677  C615.699,322.684,616.864,320.413,617.05,318.4z M576.152,340c0.754,5.712,5.28,10.17,10,13c2.158-3.278,2.83-6.491,2.372-10.266  c-0.253-2.089-0.859-4.128-1.691-6.057c-0.655-1.518-1.49-3.46-2.525-4.652c-1.237-1.427-2.244-3.208-3.822-4.293  c-0.702-0.482-1.479-0.781-2.312-0.947c-0.591-0.118-0.554,0.2-0.73,0.742c-0.684,2.107-1.224,4.271-1.463,6.477  c-0.122,1.127-0.162,2.263-0.1,3.395C575.915,338.017,576.373,339.604,576.152,340z M613.851,336.3  c0.007-0.298-0.194-1.031-0.5-1.199c-0.215-0.118-0.857,0.033-1.059,0.044c-1.511,0.083-3.027,0.078-4.531,0.251  c-2.384,0.275-4.651,0.874-6.813,2.036c-4.251,2.284-7.466,6.223-9.514,10.535c-0.272,0.574-2.48,5.584-1.921,5.864  c0.967,0.483,1.719,0.869,2.838,0.869c1.453,0,2.891-0.421,4.316-0.531c5.481-0.423,9.947-4.101,13.039-8.419  c0.995-1.389,1.861-2.872,2.579-4.422C612.652,340.537,613.811,338.008,613.851,336.3z M576.814,370.632  c0.459,0.228,0.511-0.006,0.878-0.347c0.604-0.56,1.115-1.213,1.523-1.929c0.889-1.558,1.275-3.347,1.567-5.099  c0.238-1.422,0.515-2.236,0.431-3.641c-0.389-6.487-3.772-11.838-8.663-15.916c-2.204,3.301-3.453,7.139-3.588,11.113  c-0.073,2.171,0.204,4.361,0.927,6.415c0.768,2.181,2.171,4.03,3.462,6.071C574.197,368.637,575.313,369.885,576.814,370.632z   M672.55,423.601c-0.407-1.045-0.715-2.203-1.27-3.249c-0.671-1.268-1.474-2.469-2.482-3.493c-1.358-1.379-2.839-2.041-4.648-2.559  c0.884,1.91,1.5,3.756,1.5,5.9c0,1.354-0.22,2.734-0.672,4.014c-0.465,1.014-1.342,2.103-2.123,2.953  c-1.685,1.834-3.917,3.285-6.416,3.647c-1.18,0.171-2.096,0.162-3.167-0.249c-1.209-0.464-2.354-1.139-3.279-2.065  c-1.542-1.544-2.45-5.143-2.327-7.756c0.135-2.865,1.077-5.63,2.063-8.298c2.059-5.574,3.973-11.163,5.319-16.961  c1.151-4.961,1.847-10.085,1.525-15.185c-0.163-2.599-0.601-5.185-1.377-7.673c-0.393-1.256-0.886-2.479-1.436-3.675  c-0.81-1.763-1.124-2.114-2.114-3.423c-0.791-1.046-1.699-2-2.641-2.913c-1.776-1.72-3.77-3.219-5.938-4.411  c-4.606-2.533-9.918-3.557-15.138-2.915c-4.908,0.604-9.692,3.212-13.4,6.397c-3.721,3.195-6.747,7.414-7.914,12.229  c-0.029,0.121-0.235,0.782-0.165,0.881c0.053,0.074,0.816,0.153,0.917,0.174c1.298,0.274,2.681,0.078,3.802-0.653  c0.832-0.543,1.289-1.329,2.093-1.89c0.942-0.658,2.019-1.118,3.107-1.472c5.329-1.73,11.542-1.166,16.432,1.576  c4.312,2.417,7.337,6.46,9.145,11.002c2.278,5.727,3.019,11.509,1.7,17.571c-1.312,6.03-4.057,11.63-5.873,17.508  c-1.525,4.934-2.788,10.776-1.49,15.913c2.756,10.902,16.063,14.962,25.738,10.955c4.02-1.665,7.695-4.748,9.651-8.672  C673.7,432.745,673.984,427.902,672.55,423.601z M606.652,358.9c0.108-0.703,0.454-1.652-0.153-2.252  c-0.459-0.453-2.514-0.583-3.42-0.624c-2.69-0.123-5.391,0.225-7.95,1.067c-2.528,0.832-4.896,2.133-6.953,3.823  c-2.166,1.779-3.792,4.163-5.141,6.607c-0.645,1.168-1.186,2.404-1.497,3.705c-0.107,0.45-0.176,0.907-0.251,1.363  c-0.059,0.351,0.255,0.256,0.564,0.312c2.969,0.636,6.244,0.548,9.215-0.028c2.298-0.445,4.484-1.062,6.546-2.431  c2.044-1.356,3.776-3.144,5.247-5.097c0.885-1.177,1.68-2.421,2.397-3.708C605.628,360.971,606.318,359.647,606.652,358.9z   M570.912,369.148c-2.293-5.926-3.581-7.521-4.474-8.193c-0.298-0.224-1.634-1.089-1.894-0.679  c-3.422,5.398-4.396,9.668-4.576,11.042c-0.377,2.868,0.192,5.792,1.242,8.463c0.499,1.271,1.11,2.498,1.806,3.674  c0.501,0.849,1.132,2.249,1.935,2.844c1.987,1.475,4.324-2.233,5.086-3.617C572.268,378.633,572.268,372.654,570.912,369.148z   M597.152,377.7c0.133-0.2,0.266-0.4,0.398-0.6c-5.188-1.732-10.76-1.731-15.878,0.283c-2.092,0.823-4.64,1.999-5.919,3.923  c-1.611,2.426-3.923,5.473-4.227,7.919c-0.027,0.221-0.203,0.936-0.076,1.175c0.102,0.191,0.864,0.388,1.014,0.439  c1.418,0.492,2.938,0.637,4.431,0.658c2.944,0.041,6.206-0.203,8.91-1.436C590.56,387.894,595.56,382.8,597.152,377.7z   M594.351,400.101c-0.316-1.26-1.17-2.286-1.511-3.541c-0.089-0.327-0.24-1.104,0.11-1.26c0.541-0.054,1.064,0.162,1.525,0.425  c1.079,0.617,1.966,1.507,3.013,2.171c0.497,0.316,1.031,0.577,1.601,0.733c0.54,0.148,1.096,0.078,1.56,0.202  c2.439,0.654,5.213,1.52,7.701,0.591c0.115-0.043,0.7-0.229,0.7-0.384c0-0.445,0.064-0.877,0.13-1.318  c0.215-1.445,0.48-2.885,0.552-4.348c0.125-2.554-0.427-4.554-1.48-6.873c-0.556-1.019-1.153-2.232-0.968-3.429  c0.768-0.751,1.608,0.49,2.141,0.996c1.753,1.663,4.76,2.023,7.101,1.917c2.546-0.116,5.197-0.874,7.162-2.555  c0.021,0.057,0.043,0.114,0.064,0.17c0.167-0.133,0.333-0.267,0.5-0.4c-3.082-3.849-7.781-5.556-12.6-5.773  c-2.74-0.124-5.694,0.105-8.362,0.708c-2.629,0.593-4.781,2.366-6.472,4.395c-1.703,2.044-3.052,4.367-4.941,6.257  c-0.85,0.849-1.806,1.599-2.882,2.141c-0.296,0.148-0.938,0.262-1.094,0.573c-0.314,0.632-0.554,1.313-0.774,1.982  c-1.748,5.304-1.769,11.769,1.068,16.715c0.402,0.7,0.887,1.347,1.355,2.003C592.136,408.579,595.146,404.885,594.351,400.101  C594.15,399.3,594.451,400.7,594.351,400.101z M629.55,395.4c0.1,0,1.602,0.05,1.602-0.052c0-0.447,0.033-0.816,0.087-1.249  c0.124-0.992-0.639-1.593-1.229-2.318c-0.795-0.978-1.635-1.924-2.56-2.782c-1.547-1.436-3.616-2.629-5.801-2.216  c-1.012,0.191-1.707,0.945-2.643,1.2c-1.068,0.292-2.273,0.048-3.351-0.07c-0.992-0.109-2.104-0.267-3.048,0.153  c-0.947,0.421-1.108,1.59-1.046,2.505c0.125,1.816,2.102,3.124,3.61,3.867C619.585,396.611,624.855,395.4,629.55,395.4z   M564.251,392.3c-3.219,3.219-6.681,6.181-9.9,9.4c1.122,0.51,1.361,1.173,2.336,1.676c0.62,0.367,0.772,0.226,1.112-0.13  c2.823-2.946,5.829-7.1,6.731-8.335C565.373,393.758,565.081,392.967,564.251,392.3z M605.904,408.362  c2.938,2.141,7.359,2.906,11.61,2.397c0.616-0.074,0.825-0.035,0.937-0.659c0.176-1.166,0.37-2.33,0.508-3.502  c0.128-1.087,0.201-2.331,0.183-3.309c-0.024-1.293-0.152-1.441-0.296-2.12c-0.151-0.71-0.409-1.395-0.751-2.034  c-0.66-1.232-1.614-2.353-2.831-3.061c-0.768-0.447-2.024-1.063-2.813-0.575c-1.405,0.843-1.335,2.841-1.362,4.25  c-0.028,1.44-0.333,2.324-1.813,2.108c-1.436-0.208-2.916-0.675-4.297,0.021c-0.296,0.149-0.866,0.361-0.776,0.721  c0.164,0.658,0.137,1.373,0.184,2.048C604.441,405.469,604.46,407.311,605.904,408.362z M629.05,397.5  c-1.082-0.217-2.196-0.3-3.299-0.3c-1.159,0-2.322,0.136-3.444,0.43c-0.555,0.145-2.056,0.373-2.056,1.066  c0,2.345,0.125,4.729,0.871,6.972c0.57,1.713,2.875,2.87,4.398,3.629c0.946,0.473,1.93,0.866,2.926,1.221  c0.868,0.309,2.135,0.982,3.054,0.982c0.529,0,0.86-0.31,1.209-0.658c0.471-0.471,0.331-1.381,0.339-2.021  c0.024-2.251-0.213-4.49-0.962-6.624c-0.354-1.011-0.815-1.984-1.38-2.895c-0.289-0.465-0.604-0.914-0.945-1.343  C629.453,397.571,629.54,397.677,629.05,397.5z M602.608,405.036c-0.609-1.928-1.504-3.113-1.757-3.536  c-0.338-0.842-1.182-1.47-1.988-1.75c-0.984-0.341-1.837-0.048-2.209,0.95c-0.19,0.513-0.269,1.032-0.325,1.574  c-0.039,0.378,0.018,1.13-0.278,1.426c-0.207,0.761-0.22,1.547-0.554,2.307c-0.508,1.156-1.266,2.181-1.79,3.329  c-1.095,2.396-0.092,4.396,1.108,6.521c0.951,1.685,2.257,3.525,4.272,3.953c0.318,0.067,1.463,0.313,1.463-0.121  c0-0.989,0.127-1.961,0.344-2.926C601.926,412.165,603.748,408.644,602.608,405.036z M628.283,413.159  c-0.691-1.172-2.479-1.734-3.158-2.19c-0.864-0.581-1.813-1.384-2.874-1.545c-1.324-0.201-1.878,0.954-1.8,2.076  c0.041,0.592,0.172,1.565-0.537,1.838c-0.652,0.251-1.885-0.21-3.063,0.027c-0.674,0.136-1.046,0.292-0.9,0.935  c0.341,1.134,0.406,2.337,0.6,3.5c0.362,2.159,1.447,4.204,3.7,4.805c2.108,0.562,4.37,0.891,6.601,0.586  c0.406-0.056,1.631-0.121,1.75-0.59c0.281-1.108,0.52-2.221,0.645-3.358C629.504,416.881,629.256,414.81,628.283,413.159z   M614.57,415.412c-0.438-0.852-1.079-1.6-1.844-2.162c-1.588-1.169-4.152-1.729-6.26-2.208c-0.616-0.14-0.869-0.361-1.316,0.059  c-0.725,0.797-1.259,1.743-1.611,2.759c-0.337,0.975-0.514,1.996-0.627,3.019c-0.075,0.677-0.32,1.584-0.061,2.223  c2.202,3.347,5.945,5.491,9.906,5.919c0.915,0.1,1.834,0.103,2.745-0.027c0.694-0.099,0.675-0.049,0.556-0.74  C615.419,420.55,615.123,416.487,614.57,415.412z M640.072,391.109c0.664-1.272,0.512-1.411,0.18-2.508  c-2.051-6.785-7.098-14.098-14.602-16c-0.846-0.214-1.31-0.504-1.696,0.343c-0.595,1.303-1.25,2.647-1.81,3.881  c-0.524,1.156-0.166,1.127,0.107,1.276c2.996,1.621,4.341,3.951,5.178,5.206c-0.822,0.196-1.34,0.568-1.979,0.993  c1.438,2.375,3.828,2.672,5.858,5.67c0.435,0.642,0.796,1.331,1.087,2.048c0.166,0.409,0.264,0.871,0.48,1.256  c0.183,0.324,0.475,0.74,0.475,1.126c0,0.965-1.541,1.306-2.301,1.7c1.488,1.241,3.01,3.637,3.155,6.116  C635.518,399.794,639.26,392.664,640.072,391.109z"/>
<path fill="#D29E46" stroke="#1A1917" stroke-width="1.4" stroke-miterlimit="10" d="M164.663,145.7c-1.5,0.5-4,0.9-6.6,1.8  c-26.8,13.5-6.8,37.601,6.9,32.9c2.4-1,3.7-2.8,4.5-3.7c-2.2-1.6-3.8-3.1-5.8-4.5c-1.8,1-1.9,1.8-3.3,3.3  c-2.7-3.399-6.5-7.3-9.2-10.899c4.9-4.9,14.9-14.9,17.3-16.7c8,7.7,14.9,16,24.4,22.2c4.7,1.5,1.5,2,0.5,4.1  c-5.1,12.7-16.5,24.3-30.4,26.3c-12.7,2.101-23.6-3.7-31.4-13.7c-7.3-8.6-8.3-22.1-3.6-32.399c2.1-5.8,10.5-14.101,18.2-20.3  c2.2-2,0.5-4.9,3.2-1.601C153.963,136.8,159.663,141.3,164.663,145.7z M177.763,137.601c0-14.7,13.1-23.101,22.7-23.101  c13.7,0,26.8,11.8,26.8,24.9c0,14.7-10.7,25-24,25C189.963,164.5,177.763,152.3,177.763,137.601z M207.963,146.5  c2.8-2.1,2.6-7-0.4-10.899c-3-3.9-7.6-5.4-10.4-3.2c-2.8,2.1-2.6,7,0.4,10.899C200.563,147.2,205.163,148.7,207.963,146.5z   M226.663,85.9c8,16.6,24.1,48.899,24.6,49.899c1,1.9,3.4,2.9,3.4,2.9s-17.5,7.9-18.9,8.5c-1.4,0.5,1.2-0.6-0.4-4.6  c-3.8-9.2-14-30.2-21.1-44.801c-4.7-8.3-7.4-5.1-5.1-6.199c5.3-2.801,9.6-4.4,15-6.9C226.563,83.601,225.163,83,226.663,85.9z   M297.363,121c1.3,2.5,1,2.9,2.4,3.7c-5,1.7-10.4,3.2-15.8,4.5c-0.7-0.7-0.8-0.8-1.4-2.2c-3.7,4.9-6.5,6.601-12.2,7.4  c-24.6,1.8-32-36.2-16.3-46.5c5.8-3.7,8.2-3.7,13.8-3.9c-2.4-8.2-2.1-6.6-3-9.8c-0.4-1.8-1.6-1.8-3.1-2.6  c4.4-1.101,18-4.7,19.3-5.101C284.663,78.7,291.863,104,297.363,121z M271.763,99.4c-15.5-1.7-4.4,25.3,4.8,14.399  C275.563,110.601,273.563,104.101,271.763,99.4z M307.563,90.601c0-21.801,15.1-33.2,28.6-33.2c14.4,0,32.4,10.1,32.4,32.399  c0,22.101-16.5,33.2-30,33.2C324.263,123,307.563,112,307.563,90.601z M338.763,102.8c5-0.3,8.699-6.1,8.3-13.1  c-0.4-7-4.7-12.4-9.601-12.2c-5,0.3-8.7,6.101-8.3,13.101C329.463,97.601,333.763,103.101,338.763,102.8z M408.162,74.7  c1.5,0.5,2.4-2.1,1.602,2.2c-0.801,5.7-1,10.5-1.701,15.5c-0.5,4.5-1.199,0.5-4.1-1.5c-9.6-6.7-20.201,6.3-10.5,14.6  c3.199,2.601,8.6,1.3,12.199,1.101c-1.1,5.8-1.898,11.199-2.898,17.699c-0.4,2.4-0.4,0-4.201-0.5c-24.9-0.899-29-20-27.299-30.5  C378.963,65.3,401.063,73.9,408.162,74.7z M437.264,67.9c2.199,0.1,0.898,0.899,0.699,4.1c-1.301,5.5-1.699,9.8-3,14.601  c7.9-5,31.699-2.601,25.801,16.1c-3,9.4-6.801,18.8-9.602,28.5c-1.699,5.2,1,6.4-1.799,5.3c-6-1.899-9-3-14.1-4.8  c-1.801-0.7-1.102-0.8-0.602-2.3c3.102-8.5,5.9-15.3,8.602-23.7c1.398-9.6-9.9-9.5-11.602-3.8c-2,6.899-3.799,13-6,20.2  c-1.6,5.1,1.701,7.1-0.799,6.3c-6.5-1.5-10.9-2.3-17.301-3.9c-4.1-0.399,0.1,0.3,1.701-4.899c4.399-16.101,8.399-33.4,12.7-49.301  c1.6-5.8-2.5-6.8,1.801-6.199C428.663,65.9,432.163,66.7,437.264,67.9z M498.163,105c3.201,2.101,4-0.1,3.201,2.101  c-1.801,4.5-3.5,8.899-5.4,13.399c-1.199,2.101-0.1-1.3-5.6-4.8c-5.1-3.1-6.6,1.6-4.6,3.9c9.1,9.699,9.398,24.699-9,27.899  c-9,0.9-14.5-6.399-20-8.6c-2.102-1.101-3.9,0.6-2.602-2c2-4.2,4.201-9.4,5.9-13.8c1.201-3.4,1.1,0.399,5,4  c2.9,4.399,12.701,5.6,6.1-3.4c-4-5.1-9-22.5,8.4-25.5C487.864,97.4,492.864,101.8,498.163,105z M535.864,158.3  c-2.1,2.301-1.5,2.301-3.701,0.801c-7-4.7-13.5-9.601-20.398-14c-1.5,1.5-1.701,3.8,0.299,7.5c3.4,6.6,9.5,9.399,16.6,9.899  c2.4,0,4-0.6,0.301,2.8c-3.699,3.601-6,5-9.699,8.801c-1.102,1.3-1,2.3-2.801,0.6c-1.199-1.5-2.1-2-4.9-3.1  c-10.4-4.4-16.299-10.9-18.199-21c-1.9-11.2,5.6-20.601,14.4-26.4C527.663,111.8,554.463,136.9,535.864,158.3z M519.364,135.3  c-0.701,0.4-2,1.4-1.301,1.801c2.5,1.6,5.1,3.199,8.301,5.399C529.963,139,524.963,132.2,519.364,135.3z M566.563,157.8  c0.9,1.101,2.4,1.4,1.301,2.7c-0.4,0.8-1.201,1-1.9,2.2c11.6,0.6,25.799,14.7,12.699,27.6c-7.299,5.601-15.1,12.4-22.199,17.5  c-4.801,3.9-2.5,8.601-5.1,5.4c-3.801-4.9-6.6-8.1-10.201-12.7c-1.398-1.8,0.102-1.6,1.102-2.5c7.799-6.1,12.898-8.7,19.799-15.7  c5.701-5-2.799-15.5-10.6-8c-5.801,5.4-9.6,9.7-14.9,14.7c-2.6,2.3-0.699,6.4-3.699,2.9c-4.801-4.8-6.701-7-11.4-11.9  c-3-3.1,1-0.8,4-3.8c8.4-7.5,18.9-17.2,27-25.5c3.1-3.3,0.9-6.8,3.801-3.7C560.163,151.101,562.463,153.4,566.563,157.8z"/>
<path fill="#D29E46" stroke="#1A1917" stroke-width="1.2" stroke-miterlimit="10" d="M180.791,407.9c0.395,0.274-0.9-0.101-3.2,2.7  c-3.9,4.399-10.7,12.8-14.5,17.1c-3.1,3.8,2,9.9,5.7,6.2c5-5.2,11.2-12.3,16-18.2c1.8-1.9,1.1-2.4,1.9-2.9  c1.5,1.301,3.6,2.601,5.7,4.101c1.6,1.1-0.6,0.399-2.6,3.3c-4.4,5.4-11.6,13.5-18.3,22c-2.7,2.8-1.9,4.3-2.8,3.6  c-1.2-0.899-2.4-1.699-4.2-3.1c-1.1-0.8-1.3-1.7-0.7-2.4c-12.8-1.899-10.3-13-6-17c4.9-5.899,10.4-11.8,15.3-17.899  c1.2-1.601,0.7-2.3,1.4-2.7C176.391,404.3,178.891,406.3,180.791,407.9z M202.391,424.9c0.2,0.399-0.7,0.1-1.7,1.7  c-5.4,7.699-9.2,13-14.4,20.399c-2.5,3.4-3.3,3.101-0.2,4.601c2.9,1.6,4.1,1.899,6.8,2.1c-2,1.8-3.9,4-5.7,5.8  c-4.2-3-7.7-5.6-12.1-8.399c-2.4-1.4-0.3-0.601,1.2-2.9c5-6.9,13.3-17.8,18.3-25c1.9-2.4,0.7-3.4,1.7-2.9  C198.291,422,200.491,423.3,202.391,424.9z M219.691,435.9c1.5,0.8,0.5,0.7-0.7,3c-0.9,4.399-2,8.7-2.4,13.1c3.4-2.7,7.1-6,10.1-9.2  c1.1-1.3,1.1-2.899,1.7-2.5c2.2,1.2,4.4,2.5,7.2,3.7c1.1,0.7-0.5,1-1.8,4.101c-3.8,8.1-8.9,18.8-12.5,27c-0.9,2.1-0.2,3.3-1.4,2.6  c-3-1.5-4.6-2.1-6.8-3.2c-1.8-0.8,0.5-1,1.7-3.5c1.8-3.8,4.1-9.3,6.1-13.8c-4.3,3.5-10.3,8.9-14.8,12.3c-1.2,0.7-1.9,0.3-1.7-0.899  c1.2-6.801,2.2-11.5,3.6-19.4c-3.3,5-5.6,8-10,13.7c-1.2,1.2-0.4,2.6-1.7,1.8c-1.9-1.1-2.6-1.4-4-2.3c-1.6-0.8-0.1-0.7,1.3-3  c6.1-7.601,15-19.4,17-23.7c1.7-3.5-0.1-4.9,3.3-3.1C216.991,434.2,216.991,434.601,219.691,435.9z M253.191,451.5  c1.1,1.3,1.9,1,0.8,3.9c-0.9,1.8-1.4,3.399-1.9,4.5c-1.4,3.2-0.7-4.601-6.1-5.5c-3.1-0.601-8.3,1.7-0.1,11.2  c6.5,7.699-3.7,25.899-16.9,16.8c-3.1-2.5-3.9-2.5-3.3-4.3c0.7-2.801,1.1-3,1.6-5.601c1-3.8,1.6-2.399,2.4-0.1  c1.8,4.5,4.2,6.5,6.9,5.5c3-1.101,3.5-6.101-1.5-10.8c-5.7-5.101-0.2-24.301,13.3-19C250.091,448.9,251.691,450.101,253.191,451.5z   M277.291,459.8c1.4,0.7,2.6-0.399,1.6,2.601c-0.5,1.899-0.8,2.899-1.2,4.399c-0.8,2.7-0.4,1.2-2.8-0.699c-1-1.2-2-1.5-3.5-2  c-2.7-1.4-2.2,0.5-3,2c-0.7,1.899-1.2,3.199-1.6,4.6c-0.7,1.7,1,1.8,2.5,2.2c1.9,0.5,3.7-0.3,3.1,1.5c-0.4,1.3-0.7,1.899-1.8,5.3  c-0.8,2.1-1.7-0.7-4.4-1.6c-2.1-0.601-1.6,0.3-2.4,1.899c-0.9,2.601-2.6,7.8-3.5,10.601c-0.4,1.899,1,3.3-1,2.6  c-2.9-0.8-3.5-1.3-6.9-2.2c-2.1-0.6,0.2-0.899,0.6-2.5c3.8-10.399,6.8-19.2,10.3-29.7c1-2.399-1.1-3.699,1.7-2.899  C270.191,457.7,272.091,458.101,277.291,459.8z M289.591,463.3c0.4,0.301-0.6,0.301-1,2.2c-2.2,9.2-3.8,15.5-6,24.3  c-1,4.101-1.9,4.101,1.5,4.4c3.3,0.4,4.5,0.3,7.1-0.5c-1.2,2.4-2.2,5.1-3.1,7.4c-5.1-1.301-9.2-2.301-14.4-3.4  c-2.8-0.4-0.4-0.4,0.1-3.1c2.1-8.301,5.8-21.5,7.9-30c0.9-2.9-0.6-3.4,0.5-3.301C284.691,462.101,287.291,462.601,289.591,463.3z   M306.191,466.7c0.2,0.5-0.8,0.4-1.4,4c-1,5.7-2.6,16.5-3.8,22.1c-0.8,4.801,6.7,7.5,8.1,2.5c1.6-7,3.4-16.3,4.5-23.8  c0.5-2.5-0.3-2.6,0.1-3.399c2,0.3,4.4,0.399,7,0.699c1.2,0.101-0.3,0.7-0.6,4.101c-1,6.899-3.1,17.5-4.6,28.3  c-0.9,3.8,0.6,4.7-0.6,4.6c-1.5-0.199-2.9-0.3-5.2-0.6c-1.4-0.1-2-0.8-1.9-1.7c-12,4.9-15.5-5.899-13.9-11.6  c1.3-7.601,3-15.4,4.1-23.2c0.2-2-0.5-2.4-0.2-3.1C300.491,465.9,303.691,466.3,306.191,466.7z M305.991,465.101  c1.8,0.399,3.7-1.5,4.2-4.101c0.5-2.6-0.4-5.1-2.2-5.5c-1.8-0.399-3.6,1.5-4.2,4.101C303.291,462.3,304.291,464.7,305.991,465.101z   M314.691,466.601c1.8,0.399,3.6-1.5,4.2-4.101c0.6-2.6-0.4-5.1-2.2-5.399c-1.7-0.4-3.6,1.5-4.2,4.1  C311.991,463.8,312.991,466.2,314.691,466.601z M338.491,470.8c1.5,0.9,2.199,0.301,2.1,3.301c-0.2,2-0.1,3.6-0.2,4.899  c-0.2,3.5-2.3-4-7.6-3c-3.1,0.5-7.2,4.5,3.899,10.5c8.8,5,5.601,25.601-10,21.601c-3.7-1.301-4.5-1-4.5-2.9c-0.3-2.9,0-3.2-0.5-5.8  c-0.3-3.9,0.7-2.8,2.2-0.9c3.2,3.601,6.2,4.601,8.4,2.7c2.399-2.1,1.1-7-5.2-9.5c-7.2-2.8-8.7-22.7,5.8-22.5  C334.791,469.5,336.69,470.101,338.491,470.8z M359.091,470.9c1.5,0.8,2.199,0.1,2.4,3.1c-0.102,2.101,0.199,3.601,0.199,4.9  c0.1,3.5-2.699-3.8-7.8-2.3c-3.1,0.8-6.8,5.1,4.8,10.1c9.199,4.2,7.801,25-8,22.4c-3.8-1-4.6-0.601-4.8-2.5  c-0.6-2.801-0.2-3.2-1-5.801c-0.7-3.8,0.4-2.8,2.101-1.1c3.5,3.2,6.6,4,8.6,1.9c2.2-2.301,0.5-7.101-6-9.101  c-7.4-2.1-10.7-21.8,3.8-22.899C355.19,469.9,357.191,470.3,359.091,470.9z M373.591,474.7c0.6,11.1,0.799,18.2,1.699,29.3  c0,1.3,1.701,4.101-0.1,3.8c-2.4,0.101-3.9,0.301-6.9,0.5c-1.9,0.2-0.299-0.699-0.4-3.899c-0.5-10-1-18.7-1.6-29.101  c0-3.3-1.9-4,0.4-4.3c2-0.2,4.699-0.3,6.199-0.6C375.091,470.2,373.091,471,373.591,474.7z M398.89,469.101  c0.201,1.899,0.301,2.699,0.5,5c0.701,3.5-1,0.8-2.199,0.1c-1.801-1.1-3.701-2.4-6.4-1.6c-5.199,2-5.299,9.8-5.1,14.8  c0.699,4.6,1.5,12,9.5,12.399c2.9-0.1,3-0.699,2.699-2.6c-0.398-3.6-0.398-4.4-1.1-8.5c-0.299-2.5-2.199-3.2,0.5-3.8  c1.701-0.2,4-0.3,4.9-0.601c2.799-0.5,1.1,0.7,1.299,2.9c0.602,5.7,1.201,8.5,1.9,14c0.4,1.7-0.4,2-1.799,2.8  c-5.9,2.3-14.5,3.5-19.201-1.6c-6.299-6.7-8-17.9-4.299-26.4c1.898-5.3,7.398-11,16.199-9  C398.191,467.5,398.39,466.4,398.89,469.101z M421.89,464.601c0.301,1.199,0.602,2.699,0.9,4.1c1.1,3.2-0.199,0.5-3.5,0.4  c-4.299,0.1-6.1,0.5-5.4,3.399c0.9,4.4,0.5,6.2,2,6.101c2.602-0.101,3.201-0.301,4.801-1c1.299-0.4,1.5-2.801,2.199,0.899  c0.701,2.5,0.5,1.5,0.701,3.7c0.699,3,0.299,2-1.301,1.8c-1.5-0.1-2.799-0.2-5.1,0.7c-1.4,0.3-1.1,0.6-0.699,2.1  c0.299,2.101,0.6,3.801,1.1,5.7c0.4,2-0.301,2.7,2.1,2.4c3.4-0.3,4.1-0.8,6.801-2.4c1.6-0.8,2.299-2.899,2.299,0.2  c0,2.2-0.1,2.8,0,4.8c0.1,1,0.801,1.3-1.299,1.9c-5.5,1.399-8.301,2.1-14,3.2c-3.201,0.8-1.5-0.5-2.201-3.601  c-2.1-12.1-3.1-16.5-5.4-28.2c-0.6-4.1-3.398-4.5,1.4-5.3c4.301-0.7,6.5-1.6,11.1-2.399  C420.992,462.601,421.091,461.601,421.89,464.601z M439.992,458c1.6,0.4,2.1-0.3,3,2.601c0.398,2,1,3.5,1.199,4.8  c0.9,3.399-3.4-3.101-8.1-0.601c-2.801,1.4-5.6,6.4,6.799,8.9c9.9,2.2,12.9,22.8-3.1,23.6c-4-0.199-4.6,0.4-5.199-1.399  c-1.201-2.601-0.9-3.101-2.201-5.4c-1.4-3.6-0.199-2.899,1.9-1.5c4.1,2.5,7.301,2.601,8.801,0.101c1.699-2.7-1-7-7.801-7.601  c-7.699-0.5-15-19.1-1.1-23.2C435.992,457.8,437.992,457.8,439.992,458z M472.291,447.9c0.701,1.8,0.9,2.7,1.6,4.8  c1.301,3.1-0.799,1-2.1,0.6c-2-0.699-4.1-1.5-6.6,0c-4.6,3.301-2.801,10.9-1.301,15.601c1.701,4.3,4.4,11.2,12.201,9.8  c2.799-0.8,2.799-1.4,2-3.2c-1.301-3.399-1.4-4.2-3.201-8c-0.898-2.399-3-2.6-0.398-3.8c1.6-0.7,3.898-1.3,4.6-1.8  c2.5-1.2,1.299,0.399,2,2.399c2,5.4,3.299,8,5.199,13.101c0.801,1.6,0.1,2.1-1,3.2c-5.1,3.699-13.199,6.899-19,3.1  c-7.799-5-12.199-15.4-10.6-24.5c0.6-5.5,4.5-12.5,13.6-12.7C470.992,446.601,471.492,446,472.291,447.9z M484.492,461.101  c-6.301-10.301-4-20.9,2.398-24.801c7-4.3,15.9-0.199,21.801,9.5c6,9.9,5.199,20.4-1.1,24.301  C500.992,474.2,490.992,471.9,484.492,461.101z M503.191,465.101c3.5-1.9,3.199-8-0.4-14.7c-3.6-6.601-8.299-10.3-11.799-8.4  c-3.5,1.9-3.301,7.9,0.299,14.601C494.89,463.2,499.791,466.9,503.191,465.101z M508.992,424.2c0.5,0-0.201,0.7,1,2.2  c5.299,7.8,8.799,13.2,13.898,20.8c2.301,3.5,1.701,4.2,4.301,1.8c2.5-2.1,3.199-3.2,4.4-5.6c1,2.5,2.299,5.1,3.4,7.3  c-4.301,2.9-8,5.3-12.201,8.3c-2.199,1.8-0.6,0-2.199-2.2c-4.701-7.199-11.9-18.8-16.801-26.1c-1.6-2.6-2.9-1.9-2.1-2.6  C504.791,427,506.89,425.4,508.992,424.2z M549.791,419.101c3.4,5.1,6,13.6,1.5,19.199c-2.799,3.4-6.4,4.801-9.6,7.9  c-2.699,2.5-1.6,0.1-4.1-3.1c-6.201-7.9-10.801-13.801-17.4-21.801c-2.301-3.1-4.9-2.399-2-4.199c6.301-4.301,9.9-12,19.9-8  C543.091,411.101,546.691,415,549.791,419.101z M541.191,421.4c-3.1-3.3-6.301-8.2-11-5.7c-3.1,1.9-3.5,2.1-1.4,4.9  c3.4,4.399,7.201,9.5,10.9,13.899c2.4,3,2.199,3.5,4.1,2.5C548.89,434.101,546.191,427.9,541.191,421.4z"/>
</svg>