<?xml version="1.0" standalone="no"?>
<!DOCTYPE svg PUBLIC "-//W3C//DTD SVG 20010904//EN"
 "http://www.w3.org/TR/2001/REC-SVG-20010904/DTD/svg10.dtd">
<svg version="1.0" xmlns="http://www.w3.org/2000/svg"
 width="4251.000000pt" height="1188.000000pt" viewBox="0 0 4251.000000 1188.000000"
 preserveAspectRatio="xMidYMid meet">

<g transform="translate(0.000000,1188.000000) scale(0.100000,-0.100000)"
fill="#000000" stroke="none">
<path d="M10680 11874 c-810 -74 -1523 -346 -2155 -823 -306 -231 -628 -564
-852 -882 -846 -1199 -968 -2724 -323 -4034 82 -166 210 -387 228 -393 24 -8
854 817 3124 3103 1327 1336 2413 2434 2413 2439 0 26 -392 226 -620 315 -317
125 -622 204 -970 252 -121 17 -214 21 -475 24 -179 1 -345 1 -370 -1z"/>
<path d="M30 7880 l0 -3710 935 0 935 0 2 1978 3 1978 1374 -1983 1375 -1983
850 2 851 3 3 3713 2 3712 -945 0 -945 0 -2 -1981 -3 -1981 -1355 1980 -1355
1981 -862 0 -863 1 0 -3710z"/>
<path d="M15650 7875 l0 -3715 2078 2 2077 3 0 845 0 845 -1122 3 -1123 2 0
605 0 605 1110 0 1110 0 0 865 0 865 -1095 0 -1095 0 0 540 0 540 1100 0 1100
0 0 855 0 855 -2070 0 -2070 0 0 -3715z"/>
<path d="M21000 7875 l0 -3715 928 2 927 3 5 1155 5 1155 744 -1157 745 -1158
1123 0 c618 0 1123 3 1123 6 0 3 -404 570 -897 1259 -494 690 -899 1258 -900
1262 -2 4 61 33 139 63 454 177 823 429 1086 745 242 289 399 652 464 1070 26
167 35 534 19 701 -79 777 -510 1526 -1098 1911 -300 196 -621 299 -1098 352
-445 49 -857 61 -2207 61 l-1108 0 0 -3715z m2621 1975 c737 -57 996 -317 976
-980 -19 -593 -255 -878 -802 -966 -75 -12 -205 -17 -517 -21 l-418 -6 0 992
0 991 313 0 c172 0 374 -5 448 -10z"/>
<path d="M27170 7875 l0 -3715 938 2 937 3 3 1168 2 1167 443 0 c696 0 1000
19 1294 79 423 87 774 280 1093 601 813 816 1023 2142 499 3148 -226 434 -557
767 -1018 1023 -254 142 -471 203 -806 228 -90 7 -717 11 -1762 11 l-1623 0 0
-3715z m2730 2055 c443 -27 633 -110 738 -322 117 -238 119 -759 3 -986 -100
-197 -302 -316 -621 -367 -138 -22 -387 -31 -692 -27 l-248 4 0 854 0 854 328
0 c180 0 401 -5 492 -10z"/>
<path d="M33200 7875 l0 -3715 2078 2 2077 3 0 845 0 845 -1117 3 -1118 2 0
590 0 590 1100 0 1100 0 0 880 0 880 -1085 0 -1085 0 0 545 0 545 1095 0 1095
0 0 850 0 850 -2070 0 -2070 0 0 -3715z"/>
<path d="M38480 7875 l0 -3715 2000 0 2000 0 0 855 0 855 -1035 0 -1035 0 0
2860 0 2860 -965 0 -965 0 0 -3715z"/>
<path d="M11739 7364 c-1487 -1439 -2757 -2668 -2822 -2733 l-117 -116 105
-63 c506 -304 1070 -491 1680 -559 207 -23 636 -22 840 1 877 99 1640 434
2285 1002 764 673 1237 1599 1335 2613 17 178 19 521 5 696 -40 465 -167 935
-367 1355 -68 144 -222 420 -233 420 -4 0 -1224 -1177 -2711 -2616z"/>
<path d="M17006 2410 c-6 -23 -356 -2263 -356 -2275 0 -3 58 -5 129 -5 l128 0
103 733 c57 402 106 736 110 740 4 4 167 -344 363 -775 196 -431 360 -782 364
-782 4 1 170 353 368 782 198 429 363 783 366 786 2 3 49 -330 104 -740 l99
-744 128 0 c70 0 128 3 128 7 0 19 -333 2288 -336 2292 -2 2 -6 2 -8 0 -2 -2
-191 -409 -420 -904 -230 -495 -421 -904 -425 -908 -4 -4 -189 392 -411 880
-221 488 -409 899 -416 913 l-12 25 -6 -25z"/>
<path d="M28377 2420 c-5 -11 -214 -1350 -354 -2252 l-6 -38 130 0 129 0 104
740 c57 407 107 740 110 740 3 0 165 -351 360 -780 195 -429 359 -780 365
-781 5 -1 172 350 369 780 198 430 363 781 366 781 3 0 40 -264 83 -588 44
-323 88 -656 99 -739 l21 -153 130 0 c129 0 129 0 125 22 -2 13 -78 530 -169
1150 -90 621 -166 1128 -169 1128 -3 0 -195 -408 -427 -907 -232 -500 -425
-907 -429 -906 -4 1 -186 397 -405 880 -478 1053 -426 941 -432 923z"/>
<path d="M26317 1277 c-273 -623 -497 -1136 -497 -1140 0 -4 60 -7 134 -7
l134 0 75 178 c41 97 99 234 128 305 l54 127 464 -2 464 -3 126 -302 126 -303
138 0 c83 0 137 4 135 9 -18 52 -974 2271 -979 2271 -3 0 -229 -510 -502
-1133z m677 127 l174 -419 -351 -3 c-192 -1 -352 0 -355 3 -3 2 76 193 174
424 98 231 180 418 181 417 1 -1 81 -191 177 -422z"/>
<path d="M37917 1277 c-273 -623 -497 -1136 -497 -1140 0 -4 60 -7 134 -7
l134 0 77 183 c42 100 100 237 129 304 l51 123 464 -3 464 -2 126 -302 126
-303 139 0 c121 0 137 2 132 16 -33 85 -972 2264 -976 2264 -3 0 -230 -510
-503 -1133z m677 127 l174 -419 -351 -3 c-192 -1 -352 0 -355 3 -3 2 76 193
174 424 98 231 180 418 181 417 1 -1 81 -191 177 -422z"/>
<path d="M21920 1265 l0 -1135 125 0 125 0 2 833 3 832 840 -882 c462 -485
843 -882 848 -882 4 -1 7 512 7 1139 l0 1140 -130 0 -130 0 -2 -837 -3 -836
-839 881 c-461 485 -840 882 -842 882 -2 0 -4 -511 -4 -1135z"/>
<path d="M39700 1268 l0 -1138 125 0 125 0 2 831 3 831 765 -803 c421 -441
800 -838 842 -883 l77 -81 1 1143 0 1142 -125 0 -125 0 -2 -838 -3 -839 -765
803 c-421 442 -800 841 -842 886 l-78 83 0 -1137z"/>
<path d="M1008 2340 c-434 -51 -829 -379 -957 -795 -121 -391 -24 -795 262
-1101 164 -176 419 -310 656 -344 112 -17 323 -8 426 18 322 82 599 309 710
585 47 115 66 219 72 385 l6 142 -462 0 -461 0 0 -120 0 -120 326 0 326 0 -7
-56 c-18 -146 -74 -254 -189 -370 -95 -95 -187 -151 -316 -194 -278 -94 -537
-47 -792 142 -248 183 -381 489 -347 794 44 396 338 718 723 791 100 19 300
13 396 -12 176 -46 363 -177 491 -344 32 -40 30 -41 134 57 l77 72 -18 28
c-32 50 -188 196 -267 250 -231 159 -502 225 -789 192z"/>
<path d="M13570 2339 c-160 -18 -344 -86 -486 -177 -607 -393 -695 -1231 -184
-1742 143 -144 313 -244 507 -298 90 -25 112 -27 278 -26 153 0 192 3 258 22
200 55 365 149 498 281 189 189 270 395 273 691 l1 135 -455 0 -455 0 0 -115
0 -115 323 -3 c177 -1 322 -6 322 -10 0 -27 -23 -141 -36 -180 -38 -112 -146
-248 -258 -324 -79 -54 -206 -112 -290 -133 -86 -21 -246 -22 -342 -2 -300 63
-555 288 -655 580 -148 433 53 912 463 1102 130 60 224 79 383 79 104 0 157
-4 204 -18 176 -48 326 -149 458 -307 l65 -78 89 81 c49 45 89 86 89 90 0 18
-189 203 -270 264 -227 171 -481 237 -780 203z"/>
<path d="M24935 2344 c-308 -50 -525 -279 -525 -556 0 -186 78 -325 247 -438
76 -51 115 -71 353 -180 228 -104 318 -169 368 -265 25 -45 27 -60 27 -160 0
-94 -3 -117 -23 -160 -77 -168 -219 -257 -412 -257 -199 0 -330 100 -401 305
-15 43 -29 81 -32 84 -8 7 -237 -59 -237 -69 0 -26 56 -171 87 -227 44 -80
154 -196 226 -239 97 -59 187 -84 323 -89 152 -7 240 11 366 74 129 65 230
167 292 295 56 119 71 179 71 303 0 282 -146 449 -540 620 -378 165 -460 236
-459 400 2 111 48 198 137 259 119 81 308 86 424 13 44 -28 110 -98 138 -145
11 -17 23 -32 28 -32 5 0 51 27 103 61 l94 61 -18 30 c-74 127 -215 242 -345
283 -80 26 -224 39 -292 29z"/>
<path d="M34325 2339 c-538 -72 -963 -528 -992 -1064 -29 -538 322 -1008 864
-1157 66 -18 106 -22 263 -22 164 -1 195 2 274 22 208 56 382 155 532 306 236
236 345 515 331 844 -21 520 -400 953 -927 1062 -77 15 -262 21 -345 9z m378
-264 c318 -92 542 -329 624 -663 25 -101 22 -312 -6 -417 -28 -109 -108 -266
-175 -347 -169 -204 -412 -319 -677 -319 -151 -1 -260 25 -394 91 -377 187
-567 614 -459 1033 60 236 238 454 459 564 190 95 427 117 628 58z"/>
<path d="M2580 1215 l0 -1096 123 3 122 3 3 478 2 478 27 -3 c24 -3 71 -66
356 -480 l329 -478 149 0 c82 0 149 3 149 8 0 4 -153 222 -340 485 -187 263
-340 480 -340 482 0 2 35 11 78 20 220 48 380 200 438 415 20 79 23 249 5 335
-20 93 -68 182 -136 250 -146 146 -335 195 -751 195 l-214 0 0 -1095z m427
855 c208 -14 311 -54 373 -145 46 -66 63 -142 58 -259 -3 -86 -8 -110 -31
-158 -65 -133 -191 -189 -454 -204 l-123 -7 0 392 c0 366 1 391 18 391 9 0 81
-5 159 -10z"/>
<path d="M4120 1608 c0 -392 5 -754 10 -817 21 -229 64 -328 209 -472 84 -83
111 -103 192 -142 145 -70 198 -82 379 -82 149 1 159 2 250 33 135 47 221 101
321 201 69 69 94 104 127 171 76 156 74 137 79 1023 l5 787 -131 0 -131 0 0
-767 c0 -829 -1 -844 -54 -955 -83 -175 -326 -291 -545 -260 -211 30 -358 142
-423 323 l-23 64 -3 798 -3 797 -129 0 -130 0 0 -702z"/>
<path d="M6152 1219 l3 -1094 123 -3 122 -3 0 481 0 480 146 0 c232 0 360 27
471 99 166 107 263 298 263 515 -1 300 -177 529 -455 592 -52 12 -150 17 -373
21 l-302 5 2 -1093z m589 836 c102 -21 164 -51 214 -107 57 -63 79 -132 78
-248 0 -276 -154 -390 -529 -390 l-104 0 0 386 0 385 138 -6 c75 -4 167 -13
203 -20z"/>
<path d="M7662 1219 l3 -1094 120 0 120 0 3 476 2 477 188 5 c285 7 386 41
517 172 283 283 211 803 -136 978 -119 60 -175 68 -517 74 l-302 5 2 -1093z
m572 839 c139 -23 225 -78 273 -176 26 -53 28 -65 28 -182 0 -154 -18 -203
-101 -279 -88 -80 -204 -111 -420 -111 l-104 0 0 386 0 385 133 -6 c72 -4 159
-11 191 -17z"/>
<path d="M9162 1218 l3 -1093 565 0 565 0 0 115 0 115 -442 3 -443 2 0 420 0
420 430 0 430 0 0 120 0 120 -430 0 -430 0 0 320 0 320 445 0 445 0 0 115 0
115 -570 0 -570 0 2 -1092z"/>
<path d="M15160 1220 l0 -1090 565 0 565 0 0 115 0 115 -440 0 -440 0 0 420 0
420 428 2 427 3 0 115 0 115 -427 3 -428 2 0 320 0 320 440 0 440 0 0 115 0
115 -565 0 -565 0 0 -1090z"/>
<path d="M19540 1220 l0 -1090 565 0 565 0 0 115 0 115 -440 0 -440 0 0 420 0
420 430 0 430 0 0 120 0 120 -430 0 -430 0 0 320 0 320 440 0 440 0 0 115 0
115 -565 0 -565 0 0 -1090z"/>
<path d="M21110 1220 l0 -1090 130 0 130 0 0 1090 0 1090 -130 0 -130 0 0
-1090z"/>
<path d="M31473 2278 c7 -18 206 -538 442 -1156 236 -617 432 -1119 436 -1115
4 5 199 510 434 1123 235 613 433 1130 440 1148 l14 32 -138 0 -138 0 -306
-822 c-268 -723 -307 -820 -316 -798 -9 20 -559 1499 -593 1593 l-10 27 -139
0 -139 0 13 -32z"/>
<path d="M36040 1221 l0 -1091 125 0 125 0 0 476 0 475 31 -3 c28 -3 56 -41
353 -473 l323 -470 152 -3 c83 -1 151 0 151 3 0 3 -152 220 -339 482 l-339
477 89 22 c122 31 200 75 284 159 115 114 165 243 165 425 0 173 -56 315 -170
429 -75 76 -155 120 -275 153 -71 19 -113 22 -377 26 l-298 4 0 -1091z m588
834 c167 -40 260 -134 281 -285 18 -135 -20 -271 -96 -347 -78 -78 -184 -111
-385 -120 l-138 -6 0 393 0 393 138 -6 c75 -4 165 -13 200 -22z"/>
<path d="M11393 1289 c-89 -57 -103 -181 -29 -255 70 -70 167 -67 238 7 69 72
58 180 -25 240 -51 37 -133 41 -184 8z"/>
<path d="M42298 420 c-75 -23 -118 -84 -118 -168 0 -63 40 -122 99 -146 53
-20 76 -20 126 3 105 47 135 165 64 255 -38 48 -116 74 -171 56z"/>
</g>
</svg>
