<?xml version="1.0" encoding="UTF-8"?>
<!-- Generator: Adobe Illustrator 21.0.0, SVG Export Plug-In . SVG Version: 6.00 Build 0)  -->
<svg version="1.1" id="Ebene_1" xmlns="http://www.w3.org/2000/svg" xmlns:xlink="http://www.w3.org/1999/xlink" x="0px" y="0px" viewBox="0 0 261 32" style="enable-background:new 0 0 261 32;" xml:space="preserve">
<style type="text/css">
	.st0{fill:#212220;stroke:#1D1D1B;stroke-width:0.7087;stroke-miterlimit:3.8637;}
	.st1{fill:#e21517;}
	.st2{fill-rule:evenodd;clip-rule:evenodd;fill:#212220;}
	.st3{fill:#212220;}
</style>
<g>
	<path class="st0" d="M3,3h255.1 M3,28.4h255.1"/>
	<polygon class="st1" points="258.1,5.4 128.6,5.4 123.6,15.4 128.9,26 258.1,26 258.1,5.4  "/>
	<path class="st2" d="M17,19.8c-0.3,0.5-1.1,1.6-1.1,1.6c-0.4,0.5-1.2,1.6-1.3,1.6c-0.4,0.5-0.8,0.9-1.2,1.4   c-0.2,0.2-0.5,0.5-0.8,0.7c-0.4-0.3-0.9-0.8-1.2-1.2c-0.7-0.8-1.3-1.5-1.9-2.3c-0.2-0.3-0.5-0.6-0.7-0.9c-0.5-0.8-1.1-1.7-1.5-2.6   c-0.3-0.5-0.5-1.1-0.8-1.6c-0.1-0.2-0.3-0.7-0.4-0.9L17,19.8L17,19.8z M18.2,17.7c-0.2,0.4-0.3,0.5-0.5,1L5.6,14.1   c-0.1-0.3-0.3-0.9-0.4-1.3L18.2,17.7L18.2,17.7z M21,6.3c0,0,0,0.2,0,0.3c0,1.9-0.3,3.4-0.7,5.5c-0.2,0.9-0.5,1.7-0.7,2.5   c-0.2,0.6-0.4,1.3-0.7,1.8l-0.5-0.2c0,0,0-0.4-0.1-0.5c-0.1-0.6-0.2-1.3-0.2-1.9c0-0.2-0.2-0.2-0.2-0.4c-0.5-0.7-0.5-1.5-0.7-2.3   c0-0.2,0.2-0.2,0.4-0.3c0.4-0.2,0.9-0.5,1-1c0.1-0.5-0.2-1-0.3-1.5c0-0.4,0.2-0.8,0.5-1.1c0.2-0.2,0.4-0.3,0.6-0.4   c0-0.2-0.2-0.1-0.3-0.1c-0.3,0-0.5,0.1-0.7,0.2c-0.5,0.3-0.8,0.8-0.8,1.4c0,0.5,0.2,0.8,0.3,1.3c0.1,0.4-0.1,0.7-0.4,1   c-0.2,0.1-0.3,0.2-0.5,0.2c-0.5-0.3-1-0.3-1.5-0.4c-0.7-0.2-1.5-0.3-2.3-0.4c-0.6-0.1-1.3-0.2-1.9-0.4c-0.2-0.1-0.4-0.3-0.6-0.4   c-0.5-0.5-1.1-0.9-1.6-1.3C8.9,7.5,8.6,7.3,8.3,7.3c-0.3,0-0.6,0-0.7,0.3c0,0.1-0.1,0.1-0.2,0.2c-0.3,0-0.7,0-1,0   c-0.2,0.1,0,0.3,0,0.5c0.1,0.3,0.5,0.3,0.7,0.3c0.3,0.1,0.5,0.2,0.8,0.2c0.2,0.2,0.4,0.4,0.6,0.6c0.3,0.5,0.7,0.9,1,1.4   C9.2,10.9,9,11,8.7,11c-0.8,0.2-1.7,0.2-2.5,0.3c-0.2,0-0.4,0.1-0.6,0.2l-0.7-0.2c-0.1-0.4,0-0.3-0.2-0.9C4.4,8.7,4.4,8.2,4.3,6.3   L21,6.3L21,6.3z M9.2,11.7c0.6,0.1,1.1,0.2,1.7,0.2c0.2,0,0.3-0.2,0.5-0.2c0.2,0,0.4,0.1,0.6,0.1c0.7,0.1,1.4,0,2-0.1   c0.4,0,0.8,0,1.2,0c0.1,0,0.2,0.1,0.2,0.1c0.3,0.5,0.7,1,1.2,1.4c0.5,0.5,1,1.1,1.2,1.7c0.1,0.4-0.1,0.7-0.4,0.9l-11-4   c0.2-0.3,0.4-0.3,0.6-0.4C7.8,11.3,8.5,11.6,9.2,11.7L9.2,11.7z M22.3,5c0,1.3,0,3-0.2,4.2c-0.2,1.7-0.6,3.2-1.1,4.8   c-0.4,1.5-1,2.9-1.7,4.3c-0.6,1.1-1.2,2.3-1.9,3.3c-0.2,0.3-0.4,0.6-0.6,0.9c-0.1,0.2-0.5,0.6-0.5,0.6c-0.5,0.7-1.1,1.4-1.7,2   c-0.6,0.6-1.4,1.3-2.1,1.8c-0.8-0.5-2.7-2.5-3.8-3.9c-0.4-0.6-1.4-2-1.6-2.4c-0.8-1.3-1.6-2.7-2.1-4.2c-0.6-1.4-1.1-3.3-1.3-4.2   c-0.4-1.9-0.6-3-0.6-4.7C3.1,7.2,3,5.9,3,5L22.3,5L22.3,5z"/>
	<path class="st3" d="M55.3,6.6c1,1.5,0.5,3.6,0.6,5.4h-3.5c-0.1-2.1,0.3-3.1-0.7-3.7c-0.4-0.2-1.2-0.1-1.6,0   c-0.5,0.3-0.5,0.6-0.5,1.1l0,12.4c0,0.5,0.1,0.8,0.4,1.2c0.4,0.3,0.9,0.5,1.9,0.2c0.4-0.2,0.5-0.9,0.6-1.3v-3.2h3.4l0,0   c0,2.3,0.2,5.7-1.2,6.8c-1.3,1.2-2.5,1.3-4.3,1.2c-1.9-0.1-3.6-1-4.1-2.6l-0.1-1.1V8.1c0.1-1.5,1.4-2.6,2.6-3   C50.9,4.4,54,4.5,55.3,6.6L55.3,6.6z"/>
	<path class="st3" d="M42.7,5.6c0.7,0.4,1.4,1.3,1.5,2.3l0,4.2h-3.6V9.2c-0.2-1.1-1.7-0.8-1.9-0.8c-0.4,0.1-0.5,0.2-0.7,0.6   c-0.2,0.6-0.1,1.6-0.1,2.4c0,0,4.6,5.1,6,6.5c0.6,1.1,0.4,2.8,0.4,3.9c0,1.8-0.6,3.2-1.9,4c-1.6,0.8-3.9,0.8-5.6,0.1   c-1.3-0.5-2.3-1.8-2.4-3.3v-3.4h3.5c0,0.7-0.1,2.5,0.1,3.2c0.4,0.7,1.3,0.5,1.9,0.5c0.2,0,0.5-0.1,0.6-0.5c0.1-0.8,0-2.7,0-2.7   s-3.8-3.9-5.8-6.1c-0.9-1.4-0.4-3.1-0.5-5.2c0.2-1.4,1.1-2.6,2.1-3C37.5,5,38.5,5,40.7,5.1C41.4,5.1,42.1,5.3,42.7,5.6L42.7,5.6z"/>
	<polygon class="st3" points="68.2,26 64.7,26 64.6,16.8 61.4,16.7 61.4,26 57.9,26 57.9,5.4 61.4,5.4 61.4,13.1 64.7,13.1    64.7,5.4 68.2,5.4 68.2,26  "/>
	<path class="st3" d="M73.1,5.4c0.5,3,1.6,9.2,1.6,9.2l1.9-9.2h3.8l2,9.2l1.5-9.2h3.5L84.4,26H81l-2.5-11.9L76,26h-3.4L69.7,5.4   H73.1L73.1,5.4z"/>
	<polygon class="st3" points="96.5,5.4 96.5,8.7 92.5,8.7 92.5,13.4 96.1,13.4 96,16.7 92.5,16.7 92.5,22.9 96.5,22.9 96.5,26    88.9,26 88.9,5.4 96.5,5.4  "/>
	<polygon class="st3" points="110.6,5.4 110.6,26 106.5,26 102.3,14.7 102.3,26 98.7,26 98.7,5.4 102.9,5.4 106.9,15.8 106.9,5.4    110.6,5.4  "/>
	<polygon class="st3" points="117.1,5.4 117.1,13.6 121.1,5.4 125.1,5.4 120.1,15.4 125.4,26 121.4,26 117.2,17.6 117.2,26    113.5,26 113.5,5.4 117.1,5.4  "/>
</g>
</svg>