<svg width="652" height="245" viewBox="0 0 652 245" fill="none" xmlns="http://www.w3.org/2000/svg">
<path d="M175.9 63.5L158.4 106.3C158.4 106.3 144.6 141.8 123.4 137.3C109.8 134.5 117.9 115.8 117.9 115.8L137.7 63.4H175.9V63.5Z" fill="#004F9F"/>
<path d="M102.8 63.5L83.5 114.4C78.5 127.7 68.6 161.1 106.3 164.8C155.4 167.7 177.1 135.7 177.1 135.7V225.9H16.5V63.5H102.8Z" fill="#004F9F"/>
<path d="M192.4 153.6L245.1 22.1H277L224.3 153.6H192.4Z" fill="#004F9F"/>
<path d="M300.6 114.2L284.8 153.6H253C271.7 106.3 279.7 88.8 288.4 62.7H317.4L312.3 76L309.8 81.2C309.3 82.3 310.6 81.3 310.6 81.3L312.2 78.8C312.2 78.8 327 54 355.2 63.2L343.4 89.7C318.2 81 306.9 98.7 300.6 114.2Z" fill="#004F9F"/>
<path d="M388.1 26.1H420L411 48.4H379.1L388.1 26.1Z" fill="#004F9F"/>
<path d="M373.5 62.6H405.3L368.8 153.6H337L373.5 62.6Z" fill="#004F9F"/>
<path d="M472.3 150.9C472.3 150.9 452.8 156.6 438.4 154.7C438.4 154.7 392.2 150.2 413.1 98.6C430.7 60.4 465.7 60.1 476.5 60.2C489.8 60.6 495.6 61.9 505.2 65.5L494.2 87.8C494.2 87.8 486.4 83.4 476.1 83.2C455.5 82.5 446 98.2 443.5 105.1C435.1 129.8 456.2 132.2 463 131.5C471.1 131 480.2 127.3 480.2 127.3L472.3 150.9Z" fill="#004F9F"/>
<path d="M543 111.9L526.3 153.6H494.4L547 22.1H578.9L559.8 69.7L557.1 75C557 75.8 558.1 74.9 558.1 74.9C558.1 74.9 559.3 73.6 562.1 70.5C562.1 70.5 580.4 54.7 600.6 60.9C625.9 69.3 613.6 97.6 613.6 97.6L591.2 153.3H559.3L581.2 98.9C582.9 95.3 585.1 85 573.8 84.6C552.7 83.3 543 111.9 543 111.9Z" fill="#004F9F"/>
<path d="M221.8 190.2H228V195.4H228.1C229.3 193.3 230.9 191.8 232.7 190.8C234.5 189.8 236.8 189.3 239.5 189.3C241.6 189.3 243.5 189.9 245.4 191C247.3 192.1 248.7 193.9 249.6 196.3C250.2 195.1 250.9 194 251.9 193C252.9 192.2 253.8 191.4 254.8 190.8C255.8 190.2 256.9 189.8 257.8 189.6C258.8 189.4 259.7 189.2 260.6 189.2C262.9 189.2 264.8 189.6 266.4 190.3C268 191 269.2 192 270.3 193.2C271.3 194.4 272 195.9 272.5 197.6C273 199.3 273.1 201.1 273.1 203.1V226H266.6V204.7C266.6 203.6 266.5 202.4 266.4 201.3C266.3 200.1 265.9 199.1 265.4 198.1C264.9 197.1 264.3 196.4 263.5 195.7C262.7 195.1 261.6 194.7 260.2 194.7C258.5 194.7 257 195.1 255.8 195.8C254.6 196.5 253.6 197.5 252.9 198.8C252.2 200 251.6 201.5 251.2 203C250.8 204.6 250.7 206.3 250.7 208V226.1H244.2V204.8C244.2 203.7 244.1 202.5 244 201.4C243.9 200.2 243.5 199.2 243 198.2C242.5 197.2 241.9 196.5 241.1 195.8C240.3 195.2 239.2 194.8 237.8 194.8C236.1 194.8 234.6 195.2 233.4 195.9C232.2 196.6 231.2 197.6 230.5 198.9C229.8 200.1 229.2 201.6 228.8 203.1C228.4 204.7 228.3 206.4 228.3 208.1V226.2H221.8V190.2Z" fill="#004F9F"/>
<path d="M332.7 224.5C332.1 224.7 331.4 225 330.6 225.2C329.9 225.4 329.1 225.7 328.3 225.9C327.5 226.1 326.5 226.4 325.3 226.5C324.2 226.6 322.9 226.7 321.4 226.7C318.2 226.7 315.5 226.2 313.2 225.2C310.9 224.2 309 222.9 307.5 221.3C305.9 219.6 304.8 217.5 304.1 215.2C303.4 212.8 303 210.2 303 207.3C303 204.6 303.4 202.2 304.2 200C305 197.8 306.1 195.9 307.6 194.3C309.1 192.7 310.9 191.4 312.9 190.5C315 189.7 317.3 189.2 319.8 189.2C322.8 189.2 325.3 189.7 327.3 190.8C329.4 191.8 330.9 193.2 332.1 195C333.3 196.8 334.2 199 334.8 201.4C335.3 203.8 335.6 206.5 335.6 209.4H310C310 211.2 310.4 212.8 311 214.2C311.6 215.6 312.5 216.9 313.5 218C314.6 219.1 315.8 219.8 317.3 220.4C318.8 221 320.2 221.2 321.8 221.2C322.9 221.2 324 221.1 325.2 220.8C326.3 220.6 327.4 220.2 328.5 219.8C329.5 219.4 330.4 219.1 331.2 218.6C331.9 218.2 332.5 217.8 333 217.5V224H332.7V224.5ZM328.5 204.6C328.5 203.3 328.3 201.9 327.9 200.7C327.5 199.5 326.9 198.4 326.2 197.5C325.5 196.5 324.5 195.9 323.4 195.3C322.3 194.8 321 194.6 319.6 194.6C317.9 194.6 316.6 195 315.5 195.6C314.4 196.2 313.4 196.9 312.6 197.9C311.9 198.9 311.3 200 310.9 201.1C310.5 202.3 310.3 203.4 310.1 204.6H328.5Z" fill="#004F9F"/>
<path d="M390.7 221H390.6C390.2 221.6 389.6 222.3 388.9 223.1C388.2 223.9 387.3 224.4 386.2 225C385.2 225.6 384 226 382.7 226.5C381.4 226.9 379.9 227.1 378.3 227.1C375.6 227.1 373.2 226.5 371.3 225.4C369.4 224.3 367.8 222.9 366.6 221C365.4 219.2 364.4 217.1 363.8 214.8C363.2 212.5 363 210.1 363 207.6C363 205.2 363.4 202.9 364 200.7C364.6 198.5 365.6 196.6 366.9 194.9C368.2 193.2 369.8 191.9 371.7 190.9C373.6 189.9 375.9 189.4 378.5 189.4C381.7 189.4 384.1 190 386 191.1C387.8 192.2 389.3 193.5 390.4 195.2H390.5V173.5H397V226.1H390.7V221ZM369.9 207.9C369.9 209.4 370 210.8 370.4 212.4C370.8 214 371.4 215.4 372.1 216.8C372.8 218.1 373.9 219.2 375.1 220.1C376.3 220.9 377.9 221.4 379.7 221.4C381.5 221.4 383.2 221 384.5 220.2C385.8 219.4 386.9 218.3 387.8 217C388.7 215.7 389.3 214.2 389.6 212.6C389.9 211 390.2 209.4 390.2 208C390.2 206.3 390 204.7 389.5 203C389 201.4 388.4 200 387.6 198.6C386.8 197.4 385.7 196.3 384.3 195.6C383 194.9 381.4 194.4 379.7 194.4C377.9 194.4 376.4 194.8 375.1 195.6C373.8 196.4 372.8 197.4 372.1 198.6C371.3 199.8 370.8 201.3 370.4 202.8C370.1 204.5 369.9 206.3 369.9 207.9Z" fill="#004F9F"/>
<path d="M437.1 182.2H429.7V174.8H437.1V182.2ZM430 190.2H436.5V226H430V190.2Z" fill="#004F9F"/>
<path d="M492.6 196.2C491.4 195.7 490.1 195.4 488.8 195C487.6 194.8 486.5 194.6 485.4 194.6C483.6 194.6 482 195 480.6 195.7C479.1 196.4 477.9 197.4 477 198.7C476 200 475.3 201.4 474.7 203.1C474.1 204.8 474 206.4 474 208.1C474 209.7 474.2 211.3 474.7 212.8C475.2 214.4 475.8 215.8 476.8 217.2C477.8 218.5 479 219.5 480.6 220.4C482.2 221.2 483.9 221.6 486.1 221.6C487.2 221.6 488.4 221.5 489.7 221.1C491 220.7 492.1 220.3 493.2 219.6L493.7 225.5C492.4 226.1 490.9 226.6 489.5 226.7C488 226.8 486.7 226.9 485.5 226.9C482.8 226.9 480.3 226.4 478.1 225.4C475.9 224.4 474 223.1 472.4 221.4C470.8 219.7 469.5 217.8 468.6 215.5C467.7 213.2 467.3 210.8 467.3 208.2C467.3 205.5 467.8 203 468.6 200.7C469.4 198.4 470.7 196.5 472.4 194.8C474 193.1 475.9 191.9 478.1 190.9C480.3 189.9 482.8 189.4 485.6 189.4C486.9 189.4 488.4 189.5 490 189.8C491.6 190.1 492.8 190.4 493.6 190.8L492.6 196.2Z" fill="#004F9F"/>
<path d="M523.6 192.7C525.3 191.7 527 190.9 529.1 190.3C531 189.7 533.2 189.3 535.5 189.3C540.6 189.3 544.3 190.5 546.5 193.1C548.7 195.5 549.8 199.3 549.8 204.1V218.9C549.8 221 549.8 222.5 549.9 223.5C549.9 224.6 550 225.3 550.1 225.8H544V221.2H543.9C543.5 221.8 543.1 222.4 542.3 223C541.7 223.6 540.8 224.2 540 224.7C539 225.2 538.1 225.7 536.8 226C535.6 226.4 534.3 226.6 532.8 226.6C530.9 226.6 529.2 226.4 527.5 226C525.9 225.6 524.5 224.9 523.4 224.1C522.2 223.1 521.3 222 520.7 220.6C520.1 219.2 519.7 217.6 519.7 215.5C519.7 213.2 520.3 211.4 521.4 209.9C522.5 208.4 523.8 207.2 525.5 206.3C527.1 205.3 528.9 204.7 531 204.4C532.9 204 534.8 203.8 536.5 203.8C537.8 203.8 538.9 203.8 540 203.8C541.1 203.8 542.2 203.8 543.5 203.9C543.5 200.9 542.9 198.4 541.6 196.9C540.3 195.3 538 194.6 534.7 194.6C532.9 194.6 530.9 195 529.1 195.6C527.3 196.2 525.7 197.2 524.3 198.3L523.6 192.7ZM543.2 209C542.5 209 541.7 209 541.1 208.9C540.4 208.9 539.6 208.8 539 208.8C538.2 208.8 536.9 208.8 535.6 208.9C534.1 209 532.8 209.3 531.5 209.7C530.2 210.2 529.1 210.9 528.1 211.8C527.1 212.8 526.6 214 526.6 215.6C526.6 216.6 526.8 217.4 527.2 218.1C527.6 218.8 528.2 219.4 528.8 219.9C529.4 220.4 530.1 220.7 531 221C531.9 221.3 532.6 221.4 533.3 221.4C536.6 221.4 539 220.6 540.7 218.7C542.4 216.9 543.2 214.7 543.2 212V209Z" fill="#004F9F"/>
<path d="M582.9 173.3H589.4V225.9H582.9V173.3Z" fill="#004F9F"/>
</svg>
