<?xml version="1.0" encoding="UTF-8"?>
<!-- Generator: Adobe Illustrator 25.2.1, SVG Export Plug-In . SVG Version: 6.00 Build 0)  -->
<svg xmlns:xlink="http://www.w3.org/1999/xlink" version="1.1" id="Ebene_1" xmlns="http://www.w3.org/2000/svg" x="0px" y="0px" viewBox="0 0 144.567 33.92" enable-background="new 0 0 144.567 33.92" xml:space="preserve">
<path fill="#394147" d="M143.392,1.595c0-0.351-0.237-0.599-0.632-0.599h-0.889v1.985h0.395v-0.76h0.346l0.434,0.76h0.445  l-0.484-0.807C143.223,2.088,143.392,1.899,143.392,1.595z M142.967,1.718c0,0.133-0.079,0.2-0.227,0.2h-0.474V1.31h0.474  c0.148,0,0.227,0.075,0.227,0.199V1.718z"/>
    <path fill="#394147" d="M142.612,0c-1.067,0-1.955,0.844-1.955,1.955c0,1.111,0.888,1.956,1.955,1.956  c1.066,0,1.955-0.844,1.955-1.956C144.567,0.844,143.678,0,142.612,0z M142.612,3.531c-0.899,0-1.53-0.712-1.53-1.471V1.851  c0-0.759,0.631-1.472,1.53-1.472c0.898,0,1.53,0.712,1.53,1.472V2.06C144.142,2.819,143.51,3.531,142.612,3.531z"/>
    <rect x="43.653" y="0" fill="#394147" width="3.968" height="13.89"/>
    <rect x="0" y="0" fill="#394147" width="3.969" height="13.89"/>
    <rect x="14.882" y="0" fill="#394147" width="3.968" height="13.89"/>
    <path fill="#394147" d="M0,17.959c0,1.046,0.922,1.883,1.984,1.883c0.082,0,14.663,0,14.882,0c1.062,0,1.984-0.834,1.984-1.884  c0-0.253,0-2.085,0-2.085H0C0,15.874,0,17.813,0,17.959z"/>
    <polygon fill="#394147" points="23.741,13.89 29.654,13.89 40.677,3.969 40.677,0 21.827,0 21.827,3.969 34.754,3.969 "/>
    <path fill="#394147" d="M23.811,19.843c0.081,0,14.662,0,14.881,0c1.062,0,1.985-0.834,1.985-1.884c0-0.253,0-2.085,0-2.085h-18.85  c0,0,0,1.938,0,2.085C21.827,19.006,22.749,19.843,23.811,19.843z"/>
    <rect x="65.906" y="0" fill="#394147" width="3.968" height="13.89"/>
    <polygon fill="#394147" points="51.024,0 51.024,13.89 54.993,13.89 54.993,6.39 60.886,13.89 65.906,13.89 54.993,0 "/>
    <rect x="51.024" y="15.874" fill="#394147" width="3.969" height="3.968"/>
    <path fill="#394147" d="M65.569,19.843c0,0,2.198,0,2.322,0c1.062,0,1.984-0.834,1.984-1.884c0-0.253,0-2.085,0-2.085h-7.424  L65.569,19.843z"/>
    <rect x="79.469" y="0" fill="#394147" width="3.967" height="13.89"/>
    <rect x="94.349" y="0" fill="#394147" width="3.969" height="13.89"/>
    <path fill="#394147" d="M98.319,17.959c0-0.253,0-2.085,0-2.085h-18.85c0,0,0,1.938,0,2.085c0,1.046,0.921,1.883,1.984,1.883  c0.081,0,14.662,0,14.882,0C97.396,19.843,98.319,19.009,98.319,17.959z"/>
    <polygon fill="#394147" points="120.046,3.969 132.973,3.969 121.96,13.89 127.874,13.89 138.896,3.969 138.896,0 120.046,0 "/>
    <path fill="#394147" d="M120.046,17.959c0,1.046,0.923,1.883,1.986,1.883c0.082,0,14.661,0,14.88,0c1.062,0,1.985-0.834,1.985-1.884  c0-0.253,0-2.085,0-2.085h-18.851C120.046,15.874,120.046,17.813,120.046,17.959z"/>
    <rect x="107.248" y="15.874" fill="#394147" width="3.968" height="3.968"/>
    <polygon fill="#394147" points="107.248,13.89 111.216,13.89 111.216,3.969 118.359,3.969 118.359,0 100.104,0 100.104,3.969  107.248,3.969 "/>
    <rect x="43.653" y="15.874" fill="#394147" width="3.968" height="3.968"/>
    <polygon fill="#394147" points="2.46,30.691 2.435,30.691 0.829,27.79 0,27.79 2.071,31.434 2.071,33.816 2.797,33.816  2.797,31.407 4.895,27.79 4.067,27.79 "/>
    <path fill="#394147" d="M10.978,28.489c-0.222-0.265-0.491-0.465-0.807-0.599c-0.316-0.136-0.667-0.203-1.053-0.203  c-0.392,0-0.744,0.068-1.058,0.203c-0.314,0.135-0.582,0.335-0.803,0.599c-0.222,0.265-0.393,0.591-0.513,0.976  c-0.121,0.386-0.181,0.832-0.181,1.339c0,0.505,0.06,0.953,0.181,1.342c0.121,0.389,0.291,0.715,0.513,0.976  c0.221,0.262,0.489,0.461,0.803,0.595c0.313,0.136,0.665,0.203,1.058,0.203c0.386,0,0.737-0.068,1.053-0.203  c0.316-0.135,0.585-0.334,0.807-0.595c0.221-0.261,0.393-0.587,0.513-0.976c0.121-0.389,0.181-0.837,0.181-1.342  c0-0.507-0.06-0.953-0.181-1.339C11.37,29.08,11.199,28.754,10.978,28.489z M10.895,31.306c0,0.3-0.043,0.572-0.129,0.814  c-0.086,0.243-0.209,0.451-0.367,0.624c-0.159,0.173-0.347,0.306-0.565,0.399c-0.22,0.092-0.457,0.138-0.716,0.138  c-0.26,0-0.498-0.046-0.717-0.138c-0.219-0.092-0.406-0.225-0.566-0.399c-0.158-0.173-0.28-0.381-0.367-0.624  c-0.086-0.242-0.13-0.513-0.13-0.814v-1.005c0-0.3,0.044-0.572,0.13-0.815c0.087-0.242,0.209-0.451,0.367-0.624  c0.159-0.173,0.347-0.306,0.566-0.398c0.219-0.092,0.457-0.139,0.717-0.139c0.26,0,0.497,0.047,0.716,0.139  c0.219,0.092,0.407,0.225,0.565,0.398c0.158,0.173,0.281,0.382,0.367,0.624c0.086,0.242,0.129,0.514,0.129,0.815V31.306z"/>
    <path fill="#394147" d="M17.854,31.526c0,0.576-0.107,1.013-0.32,1.31c-0.214,0.296-0.587,0.445-1.122,0.445  c-0.535,0-0.909-0.149-1.122-0.445c-0.214-0.296-0.32-0.733-0.32-1.31V27.79h-0.725v3.557c0,0.438,0.036,0.817,0.109,1.14  c0.071,0.322,0.191,0.59,0.357,0.803c0.167,0.214,0.387,0.371,0.66,0.475c0.274,0.104,0.612,0.155,1.015,0.155  c0.403,0,0.743-0.052,1.023-0.155c0.279-0.103,0.505-0.261,0.678-0.475c0.172-0.213,0.297-0.481,0.375-0.803  c0.077-0.323,0.116-0.702,0.116-1.14V27.79h-0.724V31.526z"/>
    <path fill="#394147" d="M25.231,30.592c0.204-0.286,0.306-0.649,0.306-1.092c0-0.552-0.148-0.975-0.445-1.269  c-0.296-0.293-0.709-0.44-1.239-0.44h-2.401v6.026h0.726v-2.59h1.408l1.303,2.59h0.82l-1.381-2.659  C24.726,31.065,25.027,30.876,25.231,30.592z M22.179,30.604v-2.175h1.675c0.288,0,0.51,0.076,0.669,0.224  c0.159,0.15,0.237,0.364,0.237,0.64v0.448c0,0.276-0.078,0.489-0.237,0.639c-0.159,0.15-0.381,0.224-0.669,0.224H22.179z"/>
    <polygon fill="#394147" points="31.641,33.816 32.367,33.816 32.367,31.088 34.982,31.088 34.982,30.449 32.367,30.449  32.367,28.429 35.233,28.429 35.233,27.79 31.641,27.79 "/>
    <polygon fill="#394147" points="38.505,27.79 37.779,27.79 37.779,33.816 41.069,33.816 41.069,33.177 38.505,33.177 "/>
    <path fill="#394147" d="M47.272,28.489c-0.222-0.265-0.491-0.465-0.807-0.599c-0.316-0.136-0.668-0.203-1.053-0.203  c-0.392,0-0.745,0.068-1.058,0.203c-0.314,0.135-0.581,0.335-0.803,0.599c-0.222,0.265-0.393,0.591-0.514,0.976  c-0.121,0.386-0.181,0.832-0.181,1.339c0,0.505,0.061,0.953,0.181,1.342c0.121,0.389,0.292,0.715,0.514,0.976  c0.221,0.262,0.489,0.461,0.803,0.595c0.313,0.136,0.666,0.203,1.058,0.203c0.385,0,0.736-0.068,1.053-0.203  c0.317-0.135,0.585-0.334,0.807-0.595c0.221-0.261,0.393-0.587,0.513-0.976c0.121-0.389,0.181-0.837,0.181-1.342  c0-0.507-0.06-0.953-0.181-1.339C47.665,29.08,47.494,28.754,47.272,28.489z M47.19,31.306c0,0.3-0.043,0.572-0.13,0.814  c-0.086,0.243-0.209,0.451-0.366,0.624c-0.158,0.173-0.347,0.306-0.565,0.399c-0.219,0.092-0.458,0.138-0.716,0.138  c-0.26,0-0.499-0.046-0.717-0.138c-0.219-0.092-0.408-0.225-0.565-0.399c-0.159-0.173-0.281-0.381-0.367-0.624  c-0.087-0.242-0.131-0.513-0.131-0.814v-1.005c0-0.3,0.044-0.572,0.131-0.815c0.086-0.242,0.208-0.451,0.367-0.624  c0.157-0.173,0.347-0.306,0.565-0.398c0.218-0.092,0.457-0.139,0.717-0.139c0.258,0,0.497,0.047,0.716,0.139  c0.219,0.092,0.407,0.225,0.565,0.398c0.157,0.173,0.281,0.382,0.366,0.624c0.087,0.242,0.13,0.514,0.13,0.815V31.306z"/>
    <path fill="#394147" d="M54.697,28.489c-0.222-0.265-0.491-0.465-0.808-0.599c-0.317-0.136-0.668-0.203-1.053-0.203  c-0.392,0-0.744,0.068-1.057,0.203c-0.314,0.135-0.582,0.335-0.803,0.599c-0.222,0.265-0.393,0.591-0.514,0.976  c-0.121,0.386-0.181,0.832-0.181,1.339c0,0.505,0.06,0.953,0.181,1.342c0.121,0.389,0.291,0.715,0.514,0.976  c0.221,0.262,0.489,0.461,0.803,0.595c0.313,0.136,0.665,0.203,1.057,0.203c0.385,0,0.736-0.068,1.053-0.203  c0.317-0.135,0.585-0.334,0.808-0.595c0.221-0.261,0.392-0.587,0.513-0.976c0.121-0.389,0.182-0.837,0.182-1.342  c0-0.507-0.06-0.953-0.182-1.339C55.089,29.08,54.918,28.754,54.697,28.489z M54.614,31.306c0,0.3-0.042,0.572-0.129,0.814  c-0.086,0.243-0.208,0.451-0.367,0.624c-0.158,0.173-0.347,0.306-0.565,0.399c-0.219,0.092-0.457,0.138-0.716,0.138  c-0.259,0-0.498-0.046-0.716-0.138c-0.219-0.092-0.407-0.225-0.566-0.399c-0.159-0.173-0.281-0.381-0.367-0.624  c-0.087-0.242-0.13-0.513-0.13-0.814v-1.005c0-0.3,0.043-0.572,0.13-0.815c0.086-0.242,0.208-0.451,0.367-0.624  c0.158-0.173,0.347-0.306,0.566-0.398c0.218-0.092,0.457-0.139,0.716-0.139c0.259,0,0.497,0.047,0.716,0.139  c0.219,0.092,0.408,0.225,0.565,0.398c0.158,0.173,0.281,0.382,0.367,0.624c0.087,0.242,0.129,0.514,0.129,0.815V31.306z"/>
    <path fill="#394147" d="M61.785,30.592c0.205-0.286,0.307-0.649,0.307-1.092c0-0.552-0.148-0.975-0.444-1.269  c-0.297-0.293-0.71-0.44-1.239-0.44h-2.4v6.026h0.726v-2.59h1.407l1.303,2.59h0.821l-1.382-2.659  C61.28,31.065,61.58,30.876,61.785,30.592z M58.733,30.604v-2.175h1.674c0.287,0,0.511,0.076,0.669,0.224  c0.158,0.15,0.237,0.364,0.237,0.64v0.448c0,0.276-0.08,0.489-0.237,0.639c-0.158,0.15-0.382,0.224-0.669,0.224H58.733z"/>
    <path fill="#394147" d="M65.216,32.806c-0.184,0-0.317,0.046-0.401,0.138c-0.083,0.092-0.126,0.213-0.126,0.363v0.112  c0,0.149,0.042,0.271,0.126,0.363c0.084,0.092,0.217,0.138,0.401,0.138c0.184,0,0.319-0.046,0.402-0.138  c0.083-0.092,0.125-0.213,0.125-0.363v-0.112c0-0.15-0.042-0.271-0.125-0.363C65.535,32.853,65.4,32.806,65.216,32.806z"/>
    <path fill="#394147" d="M75.97,28.489c-0.222-0.265-0.491-0.465-0.807-0.599c-0.317-0.136-0.668-0.203-1.053-0.203  c-0.391,0-0.744,0.068-1.058,0.203c-0.314,0.135-0.582,0.335-0.803,0.599s-0.393,0.591-0.514,0.976  c-0.121,0.386-0.181,0.832-0.181,1.339c0,0.505,0.06,0.953,0.181,1.342c0.121,0.389,0.293,0.715,0.514,0.976  c0.221,0.262,0.489,0.461,0.803,0.595c0.313,0.136,0.666,0.203,1.058,0.203c0.385,0,0.736-0.068,1.053-0.203  c0.316-0.135,0.585-0.334,0.807-0.595c0.221-0.261,0.392-0.587,0.514-0.976c0.121-0.389,0.181-0.837,0.181-1.342  c0-0.507-0.06-0.953-0.181-1.339C76.362,29.08,76.191,28.754,75.97,28.489z M75.887,31.306c0,0.3-0.043,0.572-0.13,0.814  c-0.086,0.243-0.208,0.451-0.367,0.624c-0.158,0.173-0.347,0.306-0.566,0.399c-0.218,0.092-0.457,0.138-0.716,0.138  c-0.259,0-0.498-0.046-0.716-0.138c-0.219-0.092-0.407-0.225-0.566-0.399c-0.159-0.173-0.281-0.381-0.367-0.624  c-0.087-0.242-0.13-0.513-0.13-0.814v-1.005c0-0.3,0.042-0.572,0.13-0.815c0.086-0.242,0.208-0.451,0.367-0.624  c0.158-0.173,0.346-0.306,0.566-0.398c0.219-0.092,0.457-0.139,0.716-0.139c0.259,0,0.498,0.047,0.716,0.139  c0.219,0.092,0.407,0.225,0.566,0.398c0.159,0.173,0.281,0.382,0.367,0.624c0.086,0.242,0.13,0.514,0.13,0.815V31.306z"/>
    <path fill="#394147" d="M82.845,31.526c0,0.576-0.106,1.013-0.319,1.31c-0.212,0.296-0.587,0.445-1.122,0.445  c-0.535,0-0.91-0.149-1.123-0.445c-0.213-0.296-0.319-0.733-0.319-1.31V27.79h-0.725v3.557c0,0.438,0.036,0.817,0.108,1.14  c0.071,0.322,0.192,0.59,0.359,0.803c0.167,0.214,0.387,0.371,0.66,0.475c0.273,0.104,0.611,0.155,1.014,0.155  c0.403,0,0.744-0.052,1.023-0.155c0.28-0.103,0.505-0.261,0.678-0.475c0.173-0.213,0.297-0.481,0.375-0.803  c0.078-0.323,0.118-0.702,0.118-1.14V27.79h-0.727V31.526z"/>
    <path fill="#394147" d="M90.224,30.592c0.203-0.286,0.305-0.649,0.305-1.092c0-0.552-0.148-0.975-0.443-1.269  c-0.298-0.293-0.711-0.44-1.239-0.44h-2.4v6.026h0.724v-2.59h1.408l1.304,2.59h0.82l-1.381-2.659  C89.719,31.065,90.019,30.876,90.224,30.592z M87.171,30.604v-2.175h1.676c0.287,0,0.51,0.076,0.669,0.224  c0.158,0.15,0.237,0.364,0.237,0.64v0.448c0,0.276-0.079,0.489-0.237,0.639c-0.159,0.15-0.381,0.224-0.669,0.224H87.171z"/>
    <path fill="#394147" d="M99.033,27.79h-2.4v6.026h0.726v-2.573h1.674c0.541,0,0.957-0.153,1.247-0.461  c0.291-0.309,0.436-0.73,0.436-1.266c0-0.535-0.145-0.957-0.436-1.264C99.99,27.945,99.575,27.79,99.033,27.79z M99.941,29.741  c0,0.276-0.079,0.489-0.238,0.639c-0.158,0.15-0.381,0.224-0.669,0.224h-1.674v-2.175h1.674c0.288,0,0.511,0.076,0.669,0.224  c0.159,0.15,0.238,0.364,0.238,0.64V29.741z"/>
    <path fill="#394147" d="M104.291,27.79l-2.106,6.026h0.734l0.603-1.779h2.436l0.604,1.779h0.759l-2.106-6.026H104.291z   M103.696,31.399l1.018-2.936h0.044l1.017,2.936H103.696z"/>
    <path fill="#394147" d="M111.716,30.424l-0.492-0.113c-0.38-0.086-0.663-0.203-0.851-0.349c-0.186-0.147-0.28-0.364-0.28-0.652  c0-0.328,0.11-0.574,0.332-0.738c0.222-0.164,0.525-0.246,0.91-0.246c0.352,0,0.645,0.066,0.88,0.199  c0.237,0.132,0.438,0.313,0.605,0.544l0.544-0.397c-0.224-0.322-0.5-0.567-0.825-0.733c-0.325-0.167-0.716-0.251-1.169-0.251  c-0.294,0-0.563,0.036-0.807,0.108c-0.245,0.072-0.455,0.177-0.631,0.315c-0.175,0.138-0.311,0.311-0.41,0.518  c-0.098,0.208-0.148,0.444-0.148,0.708c0,0.466,0.147,0.828,0.437,1.084c0.29,0.256,0.712,0.447,1.264,0.574l0.493,0.112  c0.396,0.092,0.682,0.216,0.855,0.371c0.172,0.155,0.258,0.376,0.258,0.665c0,0.345-0.114,0.621-0.341,0.828  c-0.227,0.207-0.557,0.311-0.989,0.311c-0.351,0-0.655-0.074-0.915-0.22c-0.259-0.146-0.495-0.361-0.709-0.643l-0.535,0.45  c0.243,0.328,0.535,0.584,0.882,0.772c0.345,0.187,0.761,0.28,1.252,0.28c0.322,0,0.611-0.043,0.867-0.13  c0.256-0.086,0.474-0.207,0.651-0.362c0.179-0.156,0.316-0.345,0.411-0.57c0.095-0.224,0.143-0.475,0.143-0.751  c0-0.448-0.133-0.808-0.397-1.079C112.738,30.757,112.309,30.556,111.716,30.424z"/>
    <path fill="#394147" d="M117.958,30.424l-0.492-0.113c-0.38-0.086-0.663-0.203-0.85-0.349c-0.188-0.147-0.282-0.364-0.282-0.652  c0-0.328,0.112-0.574,0.332-0.738c0.222-0.164,0.526-0.246,0.912-0.246c0.351,0,0.643,0.066,0.88,0.199  c0.235,0.132,0.436,0.313,0.604,0.544l0.544-0.397c-0.224-0.322-0.499-0.567-0.824-0.733c-0.326-0.167-0.715-0.251-1.17-0.251  c-0.293,0-0.562,0.036-0.808,0.108c-0.243,0.072-0.453,0.177-0.629,0.315c-0.176,0.138-0.313,0.311-0.41,0.518  c-0.099,0.208-0.147,0.444-0.147,0.708c0,0.466,0.145,0.828,0.435,1.084c0.291,0.256,0.713,0.447,1.266,0.574l0.493,0.112  c0.396,0.092,0.682,0.216,0.854,0.371c0.173,0.155,0.259,0.376,0.259,0.665c0,0.345-0.114,0.621-0.341,0.828  c-0.227,0.207-0.558,0.311-0.989,0.311c-0.351,0-0.655-0.074-0.915-0.22c-0.26-0.146-0.495-0.361-0.708-0.643l-0.535,0.45  c0.241,0.328,0.535,0.584,0.88,0.772c0.345,0.187,0.763,0.28,1.251,0.28c0.323,0,0.612-0.043,0.867-0.13  c0.257-0.086,0.474-0.207,0.653-0.362c0.177-0.156,0.314-0.345,0.41-0.57c0.095-0.224,0.142-0.475,0.142-0.751  c0-0.448-0.133-0.808-0.397-1.079C118.98,30.757,118.551,30.556,117.958,30.424z"/>
    <polygon fill="#394147" points="121.92,28.394 122.768,28.394 122.768,33.212 121.92,33.212 121.92,33.816 124.338,33.816  124.338,33.212 123.494,33.212 123.494,28.394 124.338,28.394 124.338,27.79 121.92,27.79 "/>
    <path fill="#394147" d="M131.085,28.489c-0.222-0.265-0.491-0.465-0.806-0.599c-0.317-0.136-0.668-0.203-1.054-0.203  c-0.392,0-0.744,0.068-1.058,0.203c-0.313,0.135-0.582,0.335-0.804,0.599c-0.222,0.265-0.392,0.591-0.513,0.976  c-0.121,0.386-0.181,0.832-0.181,1.339c0,0.505,0.06,0.953,0.181,1.342c0.121,0.389,0.291,0.715,0.513,0.976  c0.222,0.262,0.491,0.461,0.804,0.595c0.313,0.136,0.666,0.203,1.058,0.203c0.386,0,0.736-0.068,1.054-0.203  c0.315-0.135,0.583-0.334,0.806-0.595c0.221-0.261,0.393-0.587,0.514-0.976c0.121-0.389,0.181-0.837,0.181-1.342  c0-0.507-0.06-0.953-0.181-1.339C131.478,29.08,131.306,28.754,131.085,28.489z M131.002,31.306c0,0.3-0.043,0.572-0.128,0.814  c-0.086,0.243-0.209,0.451-0.368,0.624c-0.158,0.173-0.347,0.306-0.565,0.399c-0.218,0.092-0.457,0.138-0.716,0.138  s-0.498-0.046-0.716-0.138c-0.22-0.092-0.407-0.225-0.567-0.399c-0.158-0.173-0.28-0.381-0.365-0.624  c-0.087-0.242-0.131-0.513-0.131-0.814v-1.005c0-0.3,0.043-0.572,0.131-0.815c0.086-0.242,0.207-0.451,0.365-0.624  c0.16-0.173,0.347-0.306,0.567-0.398c0.219-0.092,0.457-0.139,0.716-0.139s0.498,0.047,0.716,0.139  c0.219,0.092,0.407,0.225,0.565,0.398c0.159,0.173,0.281,0.382,0.368,0.624c0.085,0.242,0.128,0.514,0.128,0.815V31.306z"/>
    <polygon fill="#394147" points="138.185,32.806 138.159,32.806 137.434,31.468 135.234,27.79 134.397,27.79 134.397,33.816  135.103,33.816 135.103,28.8 135.13,28.8 135.855,30.138 138.058,33.816 138.894,33.816 138.894,27.79 138.185,27.79 "/>
    <path fill="#394147" d="M142.183,32.806c-0.185,0-0.318,0.046-0.401,0.138c-0.083,0.092-0.127,0.213-0.127,0.363v0.112  c0,0.149,0.044,0.271,0.127,0.363c0.083,0.092,0.216,0.138,0.401,0.138c0.183,0,0.318-0.046,0.401-0.138  c0.081-0.092,0.125-0.213,0.125-0.363v-0.112c0-0.15-0.044-0.271-0.125-0.363C142.501,32.853,142.366,32.806,142.183,32.806z"/>
</svg>