<svg width="524" height="111" viewBox="0 0 524 111" fill="none" xmlns="http://www.w3.org/2000/svg">
<g clip-path="url(#clip0_1_28)">
<path d="M94.1 30L79.5 71L64.1 30H53.2L37.4 71.4L22.8 30H5L31.2 102.8H42.6L58.5 61.3L74 102.8H85.6L112.1 30H94.1Z" fill="#E42313"/>
<path d="M120.4 102.8H138.6V30H120.4V102.8ZM121.3 3.4C119.1 5.6 117.9 8.5 117.9 11.6C117.9 14.8 119.1 17.9 121.4 20.2C125.8 24.8 133.1 24.9 137.7 20.4L137.8 20.3C140 18.1 141.2 15 141.2 11.9C141.2 8.7 140 5.7 137.7 3.5C133.3 -1.1 126 -1.2 121.4 3.3C121.4 3.3 121.3 3.4 121.3 3.4Z" fill="#E42313"/>
<path d="M170.2 57.3C172.3 52.8 174.5 49.7 176.9 47.9C180.8 45 185.5 43.5 190.3 43.6C194.7 43.5 199 44.9 202.6 47.4C206.1 49.8 208.6 53.3 209.7 57.3H170.2ZM228 68.2C228 56.2 224.4 46.5 217.3 39.1C210.2 31.7 200.8 28.1 189.4 28.1C178 28.1 169.6 31.8 162.5 39.1C155.4 46.4 151.8 55.7 151.8 66.8C151.8 77.9 155.4 86.7 162.5 93.9C169.6 101.1 179 104.7 190.4 104.7C197.7 104.7 204.1 103.4 209.4 100.8C215 98 219.7 93.8 223.2 88.7L207.8 81.5C203.1 86.2 196.8 88.7 190.2 88.6C184.5 88.6 179.9 87.1 176.2 84.1C172.5 80.9 170.1 76.5 169.4 71.7H228V68.2Z" fill="#E42313"/>
<path d="M259.1 1.89999H240.9V102.9H259.1V1.89999Z" fill="#E42313"/>
<path d="M324.1 50.9C327.9 54.8 329.7 59.9 329.7 66.3C329.7 72.7 327.9 78 324.1 82C316.6 89.8 304.2 90 296.4 82.5C296.2 82.3 296 82.1 295.8 81.9C292 77.8 290.1 72.6 290.1 66.3C290.1 60.1 292 55 295.7 51C299.3 47.1 304.5 44.9 309.8 45C315.2 44.9 320.4 47 324.1 50.9ZM328.9 38C325.9 34.8 322.3 32.3 318.3 30.6C314.5 28.9 310.3 28.1 306.1 28.1C296.8 28 288 31.9 281.9 38.9C275.3 46.1 272 55.3 272 66.5C272 77.4 275.4 86.5 282.3 93.8C289.2 101.1 297.2 104.7 306.6 104.7C310.6 104.8 314.5 104 318.2 102.5C322.2 100.7 325.8 98.2 328.9 95.1V102.8H347.2V30H328.9V38Z" fill="#E42313"/>
<path d="M365.6 102.8H383.8V73.6C383.8 66 384.1 61.1 384.6 58.8C385.4 54.9 387.3 51.4 390.1 48.6C392.7 46.2 396.1 44.8 399.6 44.9C402.2 44.8 404.7 45.6 406.8 47.1C408.8 48.8 410.2 51.1 410.8 53.6C411.6 56.5 412 62.2 412 70.9V102.8H430V54.7C430 46.3 427.9 40 423.7 35.7C418.9 30.7 412.3 28 405.4 28.1C401.9 28.1 398.4 28.8 395.1 30.2C391.7 31.5 388 34 383.8 37.5V30H365.6V102.8Z" fill="#E42313"/>
<path d="M495 50.9C498.8 54.8 500.6 59.9 500.6 66.3C500.6 72.7 498.8 78 495 82C487.5 89.8 475.1 90 467.3 82.5C467.1 82.3 466.9 82.1 466.7 81.9C463 77.8 461.1 72.6 461.1 66.3C461.1 60 462.9 55 466.6 51C470.2 47.1 475.4 44.9 480.7 45C486.1 44.9 491.3 47 495 50.9ZM499.8 38C496.8 34.8 493.2 32.3 489.2 30.6C485.4 28.9 481.2 28.1 477 28.1C467.5 28.1 459.5 31.7 452.8 38.9C446.1 46.1 442.9 55.3 442.9 66.5C442.9 77.7 446.3 86.5 453.2 93.8C460.1 101.1 468.1 104.7 477.5 104.7C481.5 104.8 485.4 104 489.1 102.5C493.1 100.7 496.7 98.2 499.8 95.1V102.8H518.1V1.89999H499.8V38Z" fill="#E42313"/>
</g>
<defs>
<clipPath id="clip0_1_28">
<rect width="524" height="111" fill="white"/>
</clipPath>
</defs>
</svg>
