<?xml version="1.0" encoding="UTF-8"?>
<!-- Generator: Adobe Illustrator 26.2.0, SVG Export Plug-In . SVG Version: 6.00 Build 0)  -->
<svg version="1.1" id="Ebene_1" xmlns="http://www.w3.org/2000/svg" xmlns:xlink="http://www.w3.org/1999/xlink" x="0px" y="0px" viewBox="0 0 512 156" style="enable-background:new 0 0 512 156;" xml:space="preserve">
<style type="text/css">
	.st0{fill:#0F408E;}
	.st1{fill:#0097D8;}
</style>
<g>
	<path class="st0" d="M18.4,78.2c-4.3,0-8.7-0.2-13.2-0.6L3,77.3V31.7l2.2-0.2c3.4-0.3,7.4-0.4,11.9-0.4c6.8,0,12.6,2.2,17.3,6.5   c4.7,4.4,7,10.4,7,17.8c0,7.4-2.2,13.2-6.6,17C30.6,76.2,25,78.2,18.4,78.2L18.4,78.2z M10.8,70.5c2.1,0.2,4.6,0.2,7.6,0.2   c4.8,0,8.4-1.2,11.2-3.8c2.7-2.5,4.1-6.2,4.1-11.5c0-5.3-1.5-9.3-4.7-12.3c-3.2-3.1-7.1-4.6-11.8-4.6c-2.5,0-4.6,0-6.3,0.1V70.5   L10.8,70.5z"/>
	<polygon class="st0" points="55.6,77.6 47.9,77.6 47.9,31.5 55.6,31.5 55.6,77.6  "/>
	<polygon class="st0" points="90.6,77.6 66.3,77.6 66.3,31.5 90,31.5 90,38.9 74,38.9 74,49.1 88.5,49.1 88.5,56.4 74,56.4 74,70.2    90.6,70.2 90.6,77.6  "/>
	<polygon class="st0" points="115.6,77.6 108.2,77.6 108.2,38.9 95.2,38.9 95.2,31.5 128.7,31.5 128.7,38.9 115.6,38.9 115.6,77.6     "/>
	<polygon class="st0" points="159,77.6 134.7,77.6 134.7,31.5 158.4,31.5 158.4,38.9 142.3,38.9 142.3,49.1 156.8,49.1 156.8,56.4    142.3,56.4 142.3,70.2 159,70.2 159,77.6  "/>
	<polygon class="st0" points="205.5,77.9 200.6,77.9 175.3,46.7 175.3,77.6 167.8,77.6 167.8,31.3 172.7,31.3 198,62.6 198,31.5    205.5,31.5 205.5,77.9  "/>
	<path class="st0" d="M229.5,78c-4.2,0-8.1-0.2-11.4-0.5l-2.2-0.2V31.9l2.2-0.2c3.1-0.3,6.3-0.4,9.5-0.4c3.7,0,6.9,0.9,9.5,2.7   c2.9,2,4.5,5,4.5,8.7c0,2.7-0.7,5.1-2.2,7.4c-0.5,0.9-1.1,1.6-1.8,2.3c1.5,0.9,2.9,2,4.1,3.4c2.2,2.5,3.3,5.4,3.3,8.6   c0,4.4-1.5,7.8-4.4,10.1C238,76.8,234.2,78,229.5,78L229.5,78z M223.7,70.5c1.7,0.1,3.8,0.1,6.5,0.1c2.2,0,3.9-0.6,5.3-1.7l0,0   c1.3-1.1,1.9-2.4,1.9-4c0-1.7-0.7-3.2-2-4.5c-1.5-1.5-3.5-2.5-5.9-3.1c-1.3-0.3-3-0.4-5.2-0.4l-0.5,0V70.5L223.7,70.5z M223.7,49.6   c2.3,0,4.3,0.1,5.9,0.2c1.1-0.7,2.1-1.7,3-2.9c1-1.3,1.4-2.7,1.4-4.3c0-1.3-0.5-2.1-1.5-2.8c-1.4-0.9-3-1.3-4.9-1.3   c-1.4,0-2.7,0-3.9,0.1V49.6L223.7,49.6z"/>
	<path class="st0" d="M290.7,78.1l-2.4,0c-2.7,0-4.9-0.5-6.7-1.3c-1.8-0.8-3.5-2.1-5.2-3.9c-1.5-1.6-4.5-5.5-9.1-11.9   c-2.2,0-4.4-0.1-6.5-0.2v16.8h-7.7V31.9l2.2-0.2c3.7-0.3,6.9-0.5,9.5-0.5c4.4,0,8.2,1.2,11.2,3.5c3.1,2.5,4.7,6,4.7,10.5   c0,3-0.9,5.8-2.6,8.3c-1.1,1.6-2.3,3-3.6,4.2c4.2,5.5,6.8,8.9,7.8,10c2,2.1,4.1,3.2,6.4,3.5l2.2,0.3L290.7,78.1L290.7,78.1z    M260.8,53.7c2.2,0.1,4.2,0.2,6.1,0.2c0.9,0,2.2-0.9,3.5-2.5c1.5-1.8,2.3-3.8,2.3-6.1c0-2.2-0.7-3.7-2.1-4.8   c-1.6-1.2-3.7-1.8-6.3-1.8c-1.1,0-2.3,0-3.6,0.1V53.7L260.8,53.7z"/>
	<path class="st0" d="M313.9,78.3c-6.4,0-11.9-2.3-16.3-6.9c-4.3-4.6-6.5-10.2-6.5-16.8c0-6.6,2.2-12.2,6.5-16.8   c4.4-4.6,9.8-6.9,16.3-6.9c6.4,0,11.9,2.3,16.3,6.9c4.3,4.6,6.5,10.2,6.5,16.8c0,6.6-2.2,12.2-6.5,16.8   C325.8,76,320.3,78.3,313.9,78.3L313.9,78.3z M313.9,38.3c-4.4,0-7.9,1.5-10.7,4.6c-2.9,3.2-4.3,7-4.3,11.7c0,4.7,1.4,8.5,4.3,11.6   c2.9,3.1,6.4,4.6,10.7,4.6c4.4,0,7.8-1.5,10.7-4.6l0,0c2.9-3.2,4.3-7,4.3-11.6c0-4.7-1.4-8.5-4.3-11.7   C321.7,39.8,318.2,38.3,313.9,38.3L313.9,38.3z"/>
	<polygon class="st0" points="381,77.9 376.2,77.9 350.8,46.7 350.8,77.6 343.4,77.6 343.4,31.3 348.2,31.3 373.5,62.6 373.5,31.5    381,31.5 381,77.9  "/>
	<polygon class="st0" points="428.6,77.9 423.8,77.9 398.5,46.7 398.5,77.6 391,77.6 391,31.3 395.8,31.3 421.1,62.6 421.1,31.5    428.6,31.5 428.6,77.9  "/>
	<polygon class="st0" points="462.8,77.6 438.5,77.6 438.5,31.5 462.2,31.5 462.2,38.9 446.1,38.9 446.1,49.1 460.6,49.1    460.6,56.4 446.1,56.4 446.1,70.2 462.8,70.2 462.8,77.6  "/>
	<path class="st0" d="M509.1,78.1l-2.4,0c-2.7,0-4.9-0.5-6.7-1.3c-1.8-0.8-3.5-2.1-5.2-3.9c-1.5-1.6-4.5-5.5-9.1-11.9   c-2.2,0-4.4-0.1-6.5-0.2v16.8h-7.7V31.9l2.2-0.2c3.7-0.3,6.9-0.5,9.5-0.5c4.4,0,8.2,1.2,11.2,3.5c3.1,2.5,4.7,6,4.7,10.5   c0,3-0.9,5.8-2.6,8.3c-1.1,1.6-2.3,3-3.6,4.2c4.1,5.5,6.8,8.8,7.8,10c2,2.1,4.1,3.3,6.4,3.5l2.2,0.3L509.1,78.1L509.1,78.1z    M479.2,53.7c2.2,0.1,4.2,0.2,6.1,0.2c0.9,0,2.2-0.9,3.5-2.5c1.5-1.8,2.3-3.8,2.3-6.1c0-2.2-0.7-3.7-2.1-4.8   c-1.6-1.2-3.7-1.8-6.3-1.8c-1.1,0-2.3,0-3.6,0.1V53.7L479.2,53.7z"/>
	<path class="st1" d="M177.9,127.2h-3.7l-2.5-17.4l-7.6,16.2h-2.2l-6.6-16l-2.6,17.2H149l4.2-25.6h2.5l7.5,17.9c0,0,0,0,0,0   c0,0,0,0,0,0l8.4-17.9h2.4L177.9,127.2L177.9,127.2z"/>
	<polygon class="st1" points="189.4,127.1 185.8,127.1 185.8,101.8 189.4,101.8 189.4,127.1  "/>
	<path class="st1" d="M220.7,127.4h-2.2L202.9,109c-0.1-0.1-0.1-0.1-0.2-0.2l0,0.5l0,17.9h-3.6v-25.6h2.2l15.4,18.1   c0.2,0.2,0.3,0.4,0.4,0.5c0-0.2,0-0.3,0-0.5v-17.9h3.6V127.4L220.7,127.4z"/>
	<polygon class="st1" points="243.2,127.1 229.9,127.1 229.9,101.8 242.8,101.8 242.8,105.2 233.6,105.2 233.6,111.7 241.9,111.7    241.9,115.1 233.6,115.1 233.6,123.7 243.2,123.7 243.2,127.1  "/>
	<path class="st1" d="M272.6,127.5l-1,0c-1.5,0-2.7-0.3-3.6-0.7c-0.9-0.4-1.8-1.1-2.7-2c-0.8-0.8-2.5-3.1-5.4-7c-1.5,0-3,0-4.3-0.1   v9.5h-3.6V102l0.9-0.1c2.1-0.2,3.9-0.2,5.3-0.2c2.4,0,4.5,0.7,6.1,1.9c1.7,1.3,2.5,3.2,2.5,5.6c0,1.6-0.5,3.1-1.4,4.5   c-0.7,1-1.4,1.8-2.2,2.5c0.7,0.9,1.5,2,2.4,3.1c1.4,1.9,2,2.6,2.3,2.8c1.1,1.2,2.4,1.9,3.9,2.1l0.9,0.1L272.6,127.5L272.6,127.5z    M255.7,114.3c1.4,0.1,2.6,0.1,3.8,0.1c0.6,0,1.4-0.5,2.3-1.5c0.9-1.1,1.4-2.3,1.4-3.7c0-1.3-0.4-2.3-1.3-3   c-0.9-0.7-2.2-1.1-3.8-1.1c-0.7,0-1.5,0-2.4,0.1V114.3L255.7,114.3z"/>
	<path class="st1" d="M300.4,127.2h-4l-3.4-8.1h-9.1l-3.4,8.1h-3.9l10.7-25.5h2.3L300.4,127.2L300.4,127.2z M285.3,115.7h6.3l-3-7.2   c-0.1-0.1-0.1-0.2-0.2-0.3c0,0.1-0.1,0.2-0.1,0.3L285.3,115.7L285.3,115.7z"/>
	<polygon class="st1" points="319.3,127.1 305,127.1 305,101.8 308.6,101.8 308.6,123.7 319.3,123.7 319.3,127.1  "/>
	<path class="st1" d="M331.4,127.4l0-0.1H330l-8.6-25.6h3.8l6,18.3c0,0.1,0.1,0.1,0.1,0.2c0,0,0-0.1,0.1-0.1l6.8-17.9h2.4l5.9,17.8   l6-18.3h3.7l-8.6,25.6h-2.4l-6-17.9l-6.8,17.9h-0.8L331.4,127.4L331.4,127.4z"/>
	<path class="st1" d="M381,127.2h-4l-3.4-8.1h-9.1l-3.4,8.1h-3.9l10.7-25.5h2.3L381,127.2L381,127.2z M366,115.7h6.3l-3-7.2   c-0.1-0.1-0.1-0.2-0.2-0.3c0,0.1-0.1,0.2-0.1,0.3L366,115.7L366,115.7z"/>
	<path class="st1" d="M391.6,127.6c-2.5,0-4.8-0.7-6.6-2l-0.8-0.6l1.9-2.8l0.8,0.6c1.4,0.9,2.9,1.4,4.6,1.4c1.6,0,2.9-0.3,3.7-0.9   c0.7-0.6,1.1-1.3,1.1-2.4c0-0.7-0.3-1.4-0.8-2.1c-0.7-0.8-1.5-1.5-2.4-2.2c-1-0.7-2.1-1.4-3.1-2.2c-1.1-0.8-2.1-1.8-2.8-2.9   c-0.8-1.2-1.3-2.5-1.3-3.9c0-1.9,0.7-3.4,2.1-4.5c1.3-1,3.1-1.6,5.3-1.6c2.1,0,4.1,0.4,5.9,1.3l0.9,0.4l-1.4,3.1l-0.9-0.4   c-1.5-0.6-2.9-0.9-4.3-0.9c-3.7,0-3.7,1.8-3.7,2.5c0,0.8,0.3,1.5,0.8,2.2c0.6,0.8,1.5,1.5,2.4,2.1c1,0.7,2.1,1.4,3.1,2.1   c1.1,0.8,2.1,1.7,2.9,2.8c0.8,1.2,1.3,2.5,1.3,3.9c0,2.3-0.8,4.1-2.4,5.3C396.2,127,394.1,127.6,391.6,127.6L391.6,127.6z"/>
	<path class="st1" d="M412.2,127.6c-2.5,0-4.8-0.7-6.6-2l-0.8-0.6l1.9-2.8l0.8,0.6c1.4,0.9,2.9,1.4,4.6,1.4c1.6,0,2.9-0.3,3.7-0.9   c0.7-0.6,1.1-1.3,1.1-2.4c0-0.7-0.3-1.4-0.8-2.1c-0.7-0.8-1.5-1.5-2.4-2.2c-1-0.7-2.1-1.4-3.1-2.2c-1.1-0.8-2.1-1.8-2.8-2.9   c-0.8-1.2-1.3-2.5-1.3-3.9c0-1.9,0.7-3.4,2.1-4.5c1.3-1,3.1-1.6,5.3-1.6c2.1,0,4.1,0.4,5.9,1.3l0.9,0.4l-1.4,3.1l-0.9-0.4   c-1.5-0.6-2.9-0.9-4.3-0.9c-3.7,0-3.7,1.8-3.7,2.5c0,0.8,0.3,1.5,0.8,2.2c0.6,0.8,1.5,1.5,2.4,2.1c1,0.7,2.1,1.4,3.1,2.1   c1.1,0.8,2.1,1.7,2.9,2.8c0.8,1.2,1.3,2.5,1.3,3.9c0,2.3-0.8,4.1-2.4,5.3C416.8,127,414.8,127.6,412.2,127.6L412.2,127.6z"/>
	<polygon class="st1" points="441.5,127.1 428.3,127.1 428.3,101.8 441.2,101.8 441.2,105.2 431.9,105.2 431.9,111.7 440.3,111.7    440.3,115.1 431.9,115.1 431.9,123.7 441.5,123.7 441.5,127.1  "/>
	<path class="st1" d="M469.6,127.5l-1,0c-1.5,0-2.7-0.3-3.6-0.7c-0.9-0.4-1.8-1.1-2.7-2c-0.8-0.8-2.5-3.1-5.4-7c-1.5,0-3,0-4.3-0.1   v9.5H449V102l0.9-0.1c2.1-0.2,3.9-0.2,5.3-0.2c2.4,0,4.5,0.7,6.1,1.9c1.7,1.3,2.5,3.2,2.5,5.6c0,1.6-0.5,3.1-1.4,4.5   c-0.7,1-1.4,1.8-2.2,2.5c0.7,0.9,1.5,2,2.4,3.1c1.4,1.9,2,2.6,2.3,2.8c1.2,1.2,2.4,1.9,3.9,2.1l0.9,0.1L469.6,127.5L469.6,127.5z    M452.6,114.3c1.4,0.1,2.6,0.1,3.8,0.1c0.6,0,1.4-0.5,2.3-1.5c0.9-1.1,1.4-2.3,1.4-3.7c0-1.3-0.4-2.3-1.3-3   c-0.9-0.7-2.2-1.1-3.8-1.1c-0.7,0-1.5,0-2.4,0.1V114.3L452.6,114.3z"/>
</g>
</svg>