<svg width="878" height="602" viewBox="0 0 878 602" fill="none" xmlns="http://www.w3.org/2000/svg">
<circle cx="93.5" cy="509.5" r="83.5" fill="#D91A3C"/>
<circle cx="221.5" cy="402.5" r="71.5" fill="#D91A3C"/>
<circle cx="331.5" cy="310.5" r="60.5" fill="#D91A3C"/>
<path d="M479 231.5C479 260.495 455.495 284 426.5 284C397.505 284 374 260.495 374 231.5C374 202.505 397.505 179 426.5 179C455.495 179 479 202.505 479 231.5Z" fill="#D91A3C"/>
<path d="M554 162.5C554 187.077 534.077 207 509.5 207C484.923 207 465 187.077 465 162.5C465 137.923 484.923 118 509.5 118C534.077 118 554 137.923 554 162.5Z" fill="#D91A3C"/>
<path d="M610 105.5C610 123.449 595.449 138 577.5 138C559.551 138 545 123.449 545 105.5C545 87.5507 559.551 73 577.5 73C595.449 73 610 87.5507 610 105.5Z" fill="#D91A3C"/>
<path d="M653 62C653 75.2548 642.255 86 629 86C615.745 86 605 75.2548 605 62C605 48.7452 615.745 38 629 38C642.255 38 653 48.7452 653 62Z" fill="#D91A3C"/>
<path d="M688 28C688 37.9411 679.941 46 670 46C660.059 46 652 37.9411 652 28C652 18.0589 660.059 10 670 10C679.941 10 688 18.0589 688 28Z" fill="#D91A3C"/>
<circle cx="784.5" cy="93.5" r="82" transform="rotate(-180 784.5 93.5)" stroke="#D91A3C" stroke-width="3"/>
<circle cx="656.5" cy="200.5" r="70" transform="rotate(-180 656.5 200.5)" stroke="#D91A3C" stroke-width="3"/>
<circle cx="546.5" cy="292.5" r="59" transform="rotate(-180 546.5 292.5)" stroke="#D91A3C" stroke-width="3"/>
<path d="M400.5 371.5C400.5 343.333 423.333 320.5 451.5 320.5C479.667 320.5 502.5 343.333 502.5 371.5C502.5 399.667 479.667 422.5 451.5 422.5C423.333 422.5 400.5 399.667 400.5 371.5Z" stroke="#D91A3C" stroke-width="3"/>
<path d="M325.5 440.5C325.5 416.752 344.752 397.5 368.5 397.5C392.248 397.5 411.5 416.752 411.5 440.5C411.5 464.248 392.248 483.5 368.5 483.5C344.752 483.5 325.5 464.248 325.5 440.5Z" stroke="#D91A3C" stroke-width="3"/>
<path d="M269.5 497.5C269.5 480.379 283.379 466.5 300.5 466.5C317.621 466.5 331.5 480.379 331.5 497.5C331.5 514.621 317.621 528.5 300.5 528.5C283.379 528.5 269.5 514.621 269.5 497.5Z" stroke="#D91A3C" stroke-width="3"/>
<path d="M226.5 541C226.5 528.574 236.574 518.5 249 518.5C261.426 518.5 271.5 528.574 271.5 541C271.5 553.426 261.426 563.5 249 563.5C236.574 563.5 226.5 553.426 226.5 541Z" stroke="#D91A3C" stroke-width="3"/>
<path d="M191.5 575C191.5 565.887 198.887 558.5 208 558.5C217.113 558.5 224.5 565.887 224.5 575C224.5 584.113 217.113 591.5 208 591.5C198.887 591.5 191.5 584.113 191.5 575Z" stroke="#D91A3C" stroke-width="3"/>
</svg>
